<svg xmlns="http://www.w3.org/2000/svg" viewBox="0 0 500 323.74"><defs><style>.cls-1{fill:#cd9675;}.cls-2{fill:#c5845b;}.cls-3{fill:#d6a98a;}.cls-4{fill:#c07e4e;}.cls-5{fill:#f1d49b;}</style></defs><g id="Layer_2" data-name="Layer 2"><g id="ic-bread"><path class="cls-1" d="M485.4,215.4c6.93,8.1,11.8,17.21,13.7,27.79a5.34,5.34,0,0,0,.9,1.55v16.6c-2.7,6.35-4.66,13-9.1,18.55-10.27,12.84-24.26,19.88-39.21,25.29-18.52,6.71-37.77,10.34-57.28,12.84-39.58,5.1-79.35,6.3-119.16,5.49-40.9-.84-81.79-2.64-121.79-12.47-12.57-3.09-25.08-6.64-36.35-13.39-.72-1.64.54-2.43,1.53-3.15,6.33-4.58,12.67-9.14,19-13.78,1.19-.89,2.49-1.59,4.08-1,17.36,4.6,35.11,6.78,52.93,8.49,19.91,1.9,39.85,3,59.86,3.12,7,0,13.94.91,20.93.8,24.05-.4,48.07-1.09,72.08-2.75,22.11-1.52,44-4.21,65.62-9.16,16.08-3.68,31.62-8.86,45.79-17.63a61.54,61.54,0,0,0,15.33-13.46c6.68-8.14,9.31-17.7,9.06-28.18C483.22,219,482.05,216.23,485.4,215.4Z"/><path class="cls-2" d="M183.81,23.33c17.45-8.7,35.35-16.22,54.53-20.22,15.33-3.19,30.72-4.69,46.17-.73C284.6,4.32,286,5.61,287,7c8.06,11.14,9.41,23.62,7.45,36.77-2.38,15.91-9.22,30.12-17.09,43.86-12.34,21.54-27.74,40.85-43.8,59.7-16.58,19.46-34.12,38-52.37,55.85-29.67,29-59.91,57.38-94.87,80.16-16.15,10.53-32.83,19.93-51.86,24.3C28.25,309.09,22,310,15.6,309.19,1.41,293.71-1.17,274.9.41,255.07,1.82,237.26,7,220.34,13.8,203.9c3.77-1.29,7.08.69,10.35,1.78C43,212,59.36,222.26,72.33,237.54,77.24,243.33,82.75,248,91,247.18c7.24-.76,12.55-4.6,15.07-11.47s1.26-13.17-3.36-18.75a145.63,145.63,0,0,0-65.29-45.27c-2.07-.72-5.15-.55-5.2-4,8.55-14,17.66-27.65,28.21-40.27,5.29-2.6,10.64-.44,15.77.31,25.36,3.67,47.57,13.9,65.41,32.74q4,4.24,8.29,8.26c7.42,7,17.54,7.24,24.66.72,7.32-6.7,8.21-17,1.67-25a145.13,145.13,0,0,0-29.23-27A149.43,149.43,0,0,0,98,95c-2.16-.56-4.56-.65-6.14-2.61,12.43-13.21,26.3-24.8,40.56-35.95,1.39-1.09,2.82-2.14,4.24-3.22,2.78-1.41,5.63-1,8.57-.53,30.9,5,56.06,19.67,75.27,44.49,4.64,6,11.06,7.83,18.31,6.13S250.41,97,252.17,89.89c1.64-6.6-.91-12.18-4.89-17.17A155.14,155.14,0,0,0,216,42.9,163.83,163.83,0,0,0,188,27.29C186.14,26.48,183.7,26.2,183.81,23.33Z"/><path class="cls-3" d="M485.4,215.4c-2.68,3-.62,6.58-.76,9.75-.82,18.44-11.35,30.22-26,39.18C440,275.79,419.11,281,397.8,284.85a524.58,524.58,0,0,1-55.27,6.57c-7.08.52-14.22,1.22-21.34,1.11-16.9-.26-33.74,1.7-50.64,1-18.14-.71-36.31-.84-54.41-2.08-24-1.63-48-3.87-71.47-9.43-1.57-.37-3.32-.26-4-2.15.32-1.93,1.78-3,3.18-4.09,9.26-7,17.82-14.88,26.81-22.22,1.37-1.11,2.54-3.21,4.88-1.65,4.08,6.87,9,12.36,18,12a17.61,17.61,0,0,0,16.94-14.75,95.4,95.4,0,0,0,.41-28.18,12.32,12.32,0,0,1,0-3.88c.44-2.39,2.16-3.93,3.76-5.52,12.68-12.53,25.15-25.24,36.84-38.71,1.44-1.66,2.81-3.64,5.35-3.9,2.2.42,3.07,2.26,4.09,3.89,11.81,18.75,18.21,39.06,17.83,61.35q-.1,6.34,0,12.68c.18,9.36,6.88,16.41,16,17,9.79.57,18.19-6.07,19.24-15.43,3.58-31.94-3.61-61.59-19.18-89.46-1.34-2.41-4-4.46-2.87-7.83,18.17-.64,36.19,1,54.15,3.46,2.83.38,5.88-.59,8.51,1.19,3.2,7.14,8.4,13.07,12,20,10.54,20.13,15.42,41.31,12.87,64a63.75,63.75,0,0,0-.19,8.29c.16,9.27,6.37,16,16,17.32,7.85,1.09,16.59-4.43,18.6-12.63a94.9,94.9,0,0,0,2.28-28.53c-.6-9.58-1.45-19.12-3.68-28.49a167.73,167.73,0,0,0-7-22.34c-.73-1.88-2.14-3.75-1-6C435.14,177.09,463.84,190.21,485.4,215.4Z"/><path class="cls-4" d="M255.86,169.6c-12.57,14.69-26,28.57-39.74,42.17-1.5,1.48-2.85,3.1-4.27,4.65-2.79,5.09-7.22,8.78-11.44,12.45-7.81,6.81-14.64,14.66-22.82,21.06-.89.69-1.63,1.59-2.85,1.75l-34.12,28.23C133,286.12,124.4,291,117.11,297.65c-6,2.1-10.88,6.3-16.41,9.29-14.64,7.9-29.61,14.74-46.44,16.33-15.11,1.43-28.21-2.71-38.66-14.08,4.36-2.19,9.16-.93,13.75-1.72,14-2.41,26.73-7.88,39-14.59,17.65-9.67,33.92-21.48,49.62-34,9.47-7.57,18.74-15.43,27.67-23.64,13.62-12.51,27.3-25,40.16-38.28,17.82-18.38,35.64-36.75,52-56.49,18.08-21.77,35-44.19,47.05-70,6-12.91,9.92-26.38,9.06-40.83-.55-9.17-4-17.25-9.62-24.5-.7-.91-3-2.1.22-2.77,23.52,4.88,44,24.5,39.25,55.72-2.15,14.11-7.65,27.07-14.47,39.45A310.43,310.43,0,0,1,272.56,150C268.76,158.07,262.77,164.23,255.86,169.6Z"/><path class="cls-5" d="M91.87,92.38a148,148,0,0,1,70,35.24,179.09,179.09,0,0,1,14.56,15c7,7.91,7.22,18.47,1,25.81a19.22,19.22,0,0,1-25.09,4.07c-3.11-1.89-5.39-4.71-7.76-7.36C128,146.58,107.4,135,83.05,130.07a139.08,139.08,0,0,0-22.65-2.69c3.35-5.52,7.93-10.09,12.22-14.8C78.87,105.7,84.54,98.23,91.87,92.38Z"/><path class="cls-2" d="M255.86,169.6,272.56,150c3.21,2.25,6.79.54,10.18.9,3,.32,6.12.16,9.18.21,6.53,11.77,13,23.55,17.07,36.51a151.73,151.73,0,0,1,7.25,51.71c-.28,7.66-.64,15.57-7.36,21.35a19.42,19.42,0,0,1-20.49,3.13c-6.81-3.17-11.21-8.4-11.06-16.29.32-16.76.05-33.42-5.67-49.5A135.17,135.17,0,0,0,259,172.33C258.27,171.19,257.74,169.54,255.86,169.6Z"/><path class="cls-2" d="M404.38,167.42a160.32,160.32,0,0,1,12.9,54,153,153,0,0,1-1.41,28.92c-1.52,11.48-10.2,16.7-19.6,16.62-10.67-.09-18.2-8.61-18.44-18.81-.11-5.06.87-10,1-15,.79-27.47-7.91-51.85-24.24-73.72-.73-1-4-2.41,0-3.61C371.54,158.14,388.24,161.59,404.38,167.42Z"/><path class="cls-5" d="M183.81,23.33c1.32,2.48,4.06,2.5,6.21,3.45a151.71,151.71,0,0,1,58,44.82c10.4,13,6.09,29-8.79,33a18.78,18.78,0,0,1-19.65-6.48C200.26,72.64,174.37,58.35,143,53.52a60.57,60.57,0,0,0-6.33-.31,358,358,0,0,1,37-24.21C177,27.06,180.41,25.22,183.81,23.33Z"/><path class="cls-5" d="M32.19,167.65c1.09,2.27,3.5,2.17,5.4,2.83a147.68,147.68,0,0,1,66.68,46.35c6.58,7.94,5.52,19.81-2.16,26.86a18.61,18.61,0,0,1-26.35-.94C66.21,232.22,56,222.62,43.61,215.52c-9.38-5.36-19.43-8.89-29.81-11.62A264.66,264.66,0,0,1,32.19,167.65Z"/><path class="cls-2" d="M174.74,251.68c5.53-5.39,10.77-11.12,16.67-16.07,7.18-6,13.29-13.15,20.44-19.19a116.39,116.39,0,0,1,.91,24.17c-.37,7.54-1.12,14.86-7.72,20.54C195.07,269.7,177.9,264.63,174.74,251.68Z"/></g></g></svg>