<svg xmlns="http://www.w3.org/2000/svg" viewBox="0 0 481.84 415.11"><defs><style>.cls-1{fill:#f3b035;}.cls-2{fill:#cfe6f9;}.cls-3{fill:#a4d0f7;}.cls-4{fill:#dc8525;}.cls-5{fill:#fec151;}.cls-6{fill:#69a8e8;}.cls-7{fill:#436fac;}.cls-8{fill:#e95b35;}.cls-9{fill:#e95a35;}</style></defs><g id="Layer_2" data-name="Layer 2"><g id="Layer_1-2" data-name="Layer 1"><path class="cls-1" d="M0,266.49c1.64-1.52,1.39-3.7,1.81-5.59a73.35,73.35,0,0,1,81.28-56.76c8.44,1.12,16.72,2.86,24.44,6.27,13.24,5.86,26.13-1.53,30.8-15.34,16.8-49.68,51-80.9,101.92-93.65,11.59-2.9,23.48-3.52,35.42-3.32,11.27.18,22.54.14,33.81.2,1.11.64,2.5,0,3.91.88-.73,2.7-3.13,3.62-5.24,4.69a297.82,297.82,0,0,1-35.52,14.9c-26.94,9.55-43.59,28.37-48.7,56.46-2.31,12.7-1.43,25.64,3.81,37.87a13,13,0,0,1,1.51,4.91c2.5,14.08,9.38,25.79,19.6,35.57C261.44,265.65,276.38,272,294,272.89c16.4.87,32.52.32,48.43-3.84,40.23-10.53,72.45-48.31,76.52-89.68.23-2.34,0-4.71.34-7,.19-1.22.37-2.64,1.89-2.92s2.19,1,2.9,2a21.73,21.73,0,0,1,2.09,4.21,178.47,178.47,0,0,1,13.48,72c-.92,36.53-32.6,68.37-68.85,70.29-15.67.82-31.31.69-47,.71q-143.83.15-287.69,0a106.44,106.44,0,0,1-24.7-2.53c-2.74-1.06-3.64-3.66-4.82-6a64.34,64.34,0,0,1-6.62-22Z"/><path class="cls-2" d="M33.73,383.17c-2.74-1.76-5.8-.85-8.72-.94-4.69-.15-9.41-.27-14.09,0-4.29.28-8-.51-10.92-3.83V352.09c2.27-1.93,5-1.49,7.65-1.49q44.66,0,89.31,0,143.36,0,286.72,0a57.06,57.06,0,0,1,14.44,1.53c11.37,2.94,18.17,10.56,21.93,21.28,1,2.84,1.42,5.8-.1,8.68a3.89,3.89,0,0,1-1.52,1.08c-2.59.83-5.28.59-7.93.59q-185.6,0-371.19,0A17.22,17.22,0,0,1,33.73,383.17Z"/><path class="cls-3" d="M419.48,382.07c1.41-13.14-10.29-29.93-30.92-29.95q-52.63-.06-105.25,0L0,352.09V339.86c1.13-4.58,4.45-6,8.73-6.09,6.69-.13,13.38.1,20.08-.11q208.4-.14,416.78,0a29.88,29.88,0,0,1,3.28.12,5.23,5.23,0,0,1,3.44,1.3c6.88,0,13.76,0,20.64.13,6,.06,8.58,2.61,8.61,8.55q.09,14.77,0,29.55c0,6.31-2.53,8.86-8.74,8.91-7.82.05-15.64,0-23.46.05a3.41,3.41,0,0,1-2,1.09,192.33,192.33,0,0,1-25.52.06A3.13,3.13,0,0,1,419.48,382.07Z"/><path class="cls-4" d="M28.55,335c-6.49-5.88-13.11-11.65-17.32-19.56,7.38.61,14.76,1.73,22.14,1.74q163.33.17,326.67.05c20.65,0,39.67-5.28,55-19.73,12.26-11.53,20.33-25.69,22.3-42.7,3.22-27.85-2.82-54.25-13-80a10.85,10.85,0,0,0-3.37-5.24c-1.27,5-.59,9.76-1.36,14.38a107.38,107.38,0,0,1-24.55,52.83,102.44,102.44,0,0,1-60.64,35.43,155.81,155.81,0,0,1-39.05,2.1c-11.51-.71-22.27-3-32.25-8.48-18.32-10.11-29.89-25.55-35.22-45.74-.26-1-.4-1.84.56-2.5,2.24,1.71,3.14,4.38,4.73,6.56,14.08,21.92,34.14,33.86,60.15,34.4,31.33.64,58.63-19,68.87-48.7,8.16-23.72,19-46,33.9-66.25,2.52-3.41,5.18-6.69,7.89-9.93.86-1,1.63-2.45,3.41-1.84,40.71,30.21,65.13,70.22,72.37,120.5,2,14,3,28-.52,42-4.26,16.71-13.77,30-27,40.7-1.72,0-3.44.11-5.16.11q-206.71,0-413.43,0C32,335.15,30.27,335.05,28.55,335Z"/><path class="cls-5" d="M232.31,224.17a14,14,0,0,1-3.79-6.55c-12.27-24.18-7.73-58.37,11.56-79a77.49,77.49,0,0,1,32.49-21.15,266.15,266.15,0,0,0,35-14.62,14.82,14.82,0,0,0,4.93-3.33l-3-1.21c4.94.55,8.94-1.52,13-4.09a210.82,210.82,0,0,0,36.75-28.85c9.06-9.08,19.17-11.63,31.11-7a3.83,3.83,0,0,1,3.11.73c6,4.28,11.53,9,15.41,15.45,1.84,10.62-.9,19.41-8.64,27.37a220.55,220.55,0,0,0-51.73,85.82c-3.76,11.4-9.42,21.63-17.74,30.11a73.68,73.68,0,0,1-41.4,21.57c-17.6,2.92-33.92-.62-49.35-9.2A24.92,24.92,0,0,1,232.31,224.17Z"/><path class="cls-6" d="M33.73,383.17c1.19-1.53,2.88-1,4.37-1q189.3,0,378.62,0c.62,0,1.25.07,1.87.1,1.06,1.34.42,2.71,0,4-5.38,15.92-15.47,26.47-32.83,28.67-3.29.05-6.58.14-9.86.14q-150.65,0-301.28,0C54,415.09,38.57,403,33.73,383.17Z"/><path class="cls-1" d="M232.31,224.17c9.56,6,19.34,11.38,30.65,13.52,23.28,4.4,43.82-1.11,62-16.25,11.41-9.51,18.24-21.77,23-35.64,10.08-29.43,24.94-56.14,46.35-79A131.46,131.46,0,0,0,404.6,94.77c4.43-6,3.56-13.25,3.66-20.2a1.38,1.38,0,0,1,1.26-.17c5.3,4.89,11.4,9.12,13.62,16.56,4.58,12.71,1.68,23.45-8.3,32.52-2.74,2.49-4.93,5.58-7.37,8.39-9.12,9.71-16.47,20.71-23.25,32.11-9.48,15.94-15.69,33.29-22.54,50.42-9.26,23.14-26.65,38-50.94,43.44-26.89,6-50.24-1.27-69.43-21.31C237.74,232.8,234.16,229.13,232.31,224.17Z"/><path class="cls-2" d="M409.07,74.71a5.27,5.27,0,0,1-.81-.14c-5.55-5.86-10.71-12.16-17.92-16.19,5.71-5.79,11.36-11.65,17.15-17.35,2-1.94,2.81-3.47,1.54-6.46C402.23,18.47,416-.31,432.59,0,445,.24,454.68,7.68,458,18.89a3.83,3.83,0,0,0,3.37,3.17,18.37,18.37,0,0,1,8.09,3.5c2.22,14.83-7.69,27.87-19.68,30.68a29.66,29.66,0,0,1-14.41.13c-3.57-.94-5.92,0-8.31,2.5-4.3,4.54-8.78,8.92-13.27,13.29C412.47,73.43,411.33,75.16,409.07,74.71Z"/><path class="cls-3" d="M409.07,74.71c6.27-6.11,12.61-12.17,18.79-18.38a5.34,5.34,0,0,1,6.13-1.6c18.2,5.2,34.29-6.73,34.44-24.79,0-1.51-.47-3.18,1-4.38a25.55,25.55,0,0,1,12,26.45c-2,10.74-10.45,18.72-21.37,20.88a23,23,0,0,1-12.77-1.21c-2.68-1-4.27-.35-6.12,1.53-5.92,6-12,11.84-18,17.75C419.49,84.64,413.67,80.2,409.07,74.71Z"/><path class="cls-7" d="M385.74,415c7.3-2.24,14.34-5,20.15-10.2,6.76-6.1,10.35-13.92,12.7-22.47l.89-.22,29.89.16c-4.67,20.56-19.8,32.8-40.71,32.87C401,415.12,393.38,415,385.74,415Z"/><path class="cls-8" d="M190,243.59a7,7,0,1,1-6.66-7.17A7.24,7.24,0,0,1,190,243.59Z"/><path class="cls-9" d="M96,272c0,4.51-2,6.73-6.37,6.83-4.72.1-7-2.07-6.94-6.72,0-4.46,2.14-6.57,6.6-6.59S96,267.56,96,272Z"/><path class="cls-9" d="M172.33,296.66c-4.52.07-6.75-2-6.86-6.33-.11-4.73,2-7,6.68-7,4.47,0,6.6,2.11,6.63,6.55S176.72,296.59,172.33,296.66Z"/></g></g></svg>