<svg xmlns="http://www.w3.org/2000/svg" viewBox="0 0 500 430.75"><defs><style>.cls-1{fill:#f3b035;}.cls-2{fill:#cfe6f9;}.cls-3{fill:#a4d0f7;}.cls-4{fill:#dc8525;}.cls-5{fill:#fec151;}.cls-6{fill:#69a8e8;}.cls-7{fill:#436fac;}.cls-8{fill:#e95b35;}.cls-9{fill:#e95a35;}</style></defs><g id="Layer_2" data-name="Layer 2"><g id="ic-chicken"><path class="cls-1" d="M0,276.53c1.7-1.58,1.44-3.84,1.88-5.8a76.1,76.1,0,0,1,84.34-58.89c8.76,1.16,17.35,3,25.36,6.5,13.74,6.08,27.11-1.59,32-15.92,17.43-51.55,53-83.95,105.77-97.18,12-3,24.35-3.65,36.74-3.45,11.7.19,23.39.15,35.09.21,1.16.67,2.59,0,4.06.91-.76,2.81-3.25,3.77-5.44,4.88a310.49,310.49,0,0,1-36.85,15.46c-28,9.91-45.24,29.43-50.54,58.59-2.4,13.18-1.48,26.6,3.95,39.29a13.23,13.23,0,0,1,1.56,5.09c2.6,14.62,9.75,26.76,20.34,36.92,13.08,12.52,28.57,19.06,46.85,20,17,.9,33.74.34,50.26-4,41.74-10.93,75.17-50.13,79.39-93.06.24-2.43,0-4.89.36-7.3.2-1.27.38-2.75,2-3s2.28,1,3,2.05a22.17,22.17,0,0,1,2.17,4.36c9.69,24,14.63,48.84,14,74.73-.95,37.91-33.82,70.95-71.43,72.93-16.27.86-32.5.73-48.74.74q-149.26.15-298.52,0A110.66,110.66,0,0,1,11.87,328c-2.85-1.1-3.77-3.8-5-6.19A66.6,66.6,0,0,1,0,299Z"/><path class="cls-2" d="M35,397.61c-2.84-1.83-6-.89-9-1-4.87-.15-9.77-.28-14.62,0-4.46.28-8.3-.53-11.34-4V365.35c2.36-2,5.22-1.54,7.94-1.54q46.33,0,92.67,0,148.77,0,297.53,0a59.49,59.49,0,0,1,15,1.59c11.8,3.05,18.86,11,22.75,22.08,1,2.94,1.48,6-.09,9a4.19,4.19,0,0,1-1.58,1.12c-2.69.86-5.48.61-8.23.61q-192.59,0-385.18,0A18,18,0,0,1,35,397.61Z"/><path class="cls-3" d="M435.28,396.47c1.47-13.64-10.67-31.06-32.08-31.09q-54.61-.06-109.21,0l-294,0V352.67c1.18-4.75,4.61-6.24,9.06-6.32,6.94-.14,13.89.1,20.83-.11q216.26-.15,432.49-.05c1.14,0,2.28,0,3.41.12a5.45,5.45,0,0,1,3.56,1.36c7.14,0,14.28.05,21.42.12,6.21.07,8.91,2.72,8.94,8.88.06,10.22,0,20.45,0,30.67,0,6.55-2.63,9.19-9.08,9.24-8.11.05-16.22,0-24.33.05a3.5,3.5,0,0,1-2.09,1.13,199.84,199.84,0,0,1-26.47.07A3.32,3.32,0,0,1,435.28,396.47Z"/><path class="cls-4" d="M29.63,347.63c-6.73-6.11-13.61-12.1-18-20.3,7.66.63,15.32,1.79,23,1.8q169.49.18,339,.06c21.43,0,41.17-5.48,57.1-20.48,12.71-12,21.08-26.65,23.13-44.31,3.34-28.89-2.93-56.3-13.45-83a11.18,11.18,0,0,0-3.5-5.43c-1.31,5.14-.61,10.12-1.4,14.92A111.48,111.48,0,0,1,410,245.75a106.34,106.34,0,0,1-62.93,36.76,161.75,161.75,0,0,1-40.51,2.18c-11.95-.74-23.11-3.08-33.48-8.8-19-10.49-31-26.52-36.54-47.47-.27-1-.41-1.91.58-2.59,2.33,1.77,3.26,4.54,4.91,6.81,14.61,22.74,35.43,35.14,62.42,35.69,32.51.67,60.84-19.67,71.46-50.53,8.47-24.61,19.66-47.77,35.18-68.75,2.61-3.53,5.37-6.94,8.19-10.3.89-1.07,1.68-2.54,3.54-1.91,42.24,31.35,67.57,72.87,75.09,125,2.1,14.52,3.14,29.09-.54,43.56-4.42,17.33-14.29,31.07-28,42.23-1.78,0-3.57.11-5.35.11q-214.51,0-429,0C33.2,347.78,31.42,347.68,29.63,347.63Z"/><path class="cls-5" d="M241.06,232.62a14.54,14.54,0,0,1-3.93-6.79c-12.73-25.1-8-60.58,12-82a80.39,80.39,0,0,1,33.71-21.94,275.61,275.61,0,0,0,36.29-15.18,15.34,15.34,0,0,0,5.11-3.45l-3.1-1.26c5.13.57,9.28-1.58,13.49-4.24a218.52,218.52,0,0,0,38.13-29.94c9.41-9.42,19.9-12.06,32.29-7.24a4,4,0,0,1,3.23.75c6.22,4.45,12,9.39,16,16,1.9,11-.93,20.14-9,28.4a229,229,0,0,0-53.68,89.05c-3.9,11.84-9.78,22.45-18.4,31.25a76.43,76.43,0,0,1-43,22.38c-18.27,3-35.21-.64-51.22-9.55A25.93,25.93,0,0,1,241.06,232.62Z"/><path class="cls-6" d="M35,397.61c1.23-1.59,3-1,4.53-1q196.46,0,392.89,0c.65,0,1.3.06,1.94.1,1.11,1.38.44,2.81,0,4.15-5.58,16.51-16,27.46-34.07,29.74-3.41.06-6.82.15-10.23.15q-156.32,0-312.63,0C56,430.74,40,418.2,35,397.61Z"/><path class="cls-1" d="M241.06,232.62c9.92,6.21,20.07,11.81,31.81,14,24.16,4.56,45.47-1.16,64.3-16.86,11.84-9.88,18.93-22.6,23.86-37,10.46-30.54,25.88-58.25,48.1-81.94a137,137,0,0,0,10.72-12.52c4.6-6.26,3.69-13.75,3.79-21A1.46,1.46,0,0,1,425,77.2c5.51,5.07,11.84,9.47,14.14,17.19,4.75,13.19,1.74,24.33-8.62,33.74-2.84,2.58-5.11,5.79-7.64,8.71-9.47,10.08-17.09,21.49-24.13,33.32-9.83,16.53-16.28,34.54-23.39,52.32-9.61,24-27.65,39.41-52.86,45.07-27.9,6.28-52.13-1.31-72-22.11C246.7,241.57,243,237.76,241.06,232.62Z"/><path class="cls-2" d="M424.48,77.53a6.17,6.17,0,0,1-.84-.15c-5.76-6.08-11.11-12.61-18.59-16.8,5.92-6,11.78-12.08,17.8-18,2-2,2.91-3.6,1.6-6.69C417.39,19.16,431.65-.33,448.9,0c12.86.25,22.92,8,26.33,19.6a4,4,0,0,0,3.5,3.3,19.07,19.07,0,0,1,8.39,3.62c2.3,15.39-8,28.92-20.42,31.84a30.88,30.88,0,0,1-14.95.14c-3.71-1-6.15,0-8.63,2.59-4.46,4.71-9.11,9.26-13.77,13.79C428,76.19,426.83,78,424.48,77.53Z"/><path class="cls-3" d="M424.48,77.53C431,71.18,437.56,64.89,444,58.45c1.92-1.93,3.54-2.46,6.36-1.66,18.89,5.4,35.59-7,35.75-25.72,0-1.56-.49-3.3,1-4.55A26.52,26.52,0,0,1,499.56,54c-2.06,11.14-10.85,19.43-22.17,21.66a23.81,23.81,0,0,1-13.26-1.25c-2.78-1-4.42-.37-6.35,1.59-6.14,6.22-12.45,12.28-18.7,18.41C435.29,87.83,429.26,83.22,424.48,77.53Z"/><path class="cls-7" d="M400.27,430.59c7.58-2.32,14.88-5.14,20.92-10.58,7-6.33,10.74-14.44,13.17-23.31l.92-.23,31,.16c-4.85,21.33-20.55,34-42.25,34.11C416.13,430.76,408.2,430.65,400.27,430.59Z"/><path class="cls-8" d="M197.13,252.77a7.3,7.3,0,1,1-6.9-7.44A7.5,7.5,0,0,1,197.13,252.77Z"/><path class="cls-9" d="M99.62,282.21c.06,4.68-2.08,7-6.6,7.08-4.9.11-7.22-2.15-7.2-7,0-4.62,2.21-6.81,6.84-6.83S99.57,277.64,99.62,282.21Z"/><path class="cls-9" d="M178.83,307.84c-4.69.07-7-2.07-7.12-6.57-.12-4.91,2.11-7.25,6.93-7.24,4.64,0,6.84,2.2,6.88,6.81S183.38,307.77,178.83,307.84Z"/></g></g></svg>