<svg xmlns="http://www.w3.org/2000/svg" viewBox="0 0 500 499.24"><defs><style>.cls-1{fill:#9dc7fb;}.cls-2{fill:#f5df7f;}.cls-3{fill:#ebb75e;}.cls-4{fill:#e1ad83;}.cls-5{fill:#f5df80;}.cls-6{fill:#80b5fb;}.cls-7{fill:#ebcc61;}.cls-8{fill:#94d5a3;}.cls-9{fill:#d72f3c;}.cls-10{fill:#d6a279;}.cls-11{fill:#deae84;}.cls-12{fill:#deab83;}.cls-13{fill:#dcad84;}.cls-14{fill:#e6ebf0;}.cls-15{fill:#c5cfd9;}.cls-16{fill:#e9a849;}.cls-17{fill:#fbf4f3;}.cls-18{fill:#fbf4f4;}.cls-19{fill:#f2dd93;}.cls-20{fill:#db4955;}.cls-21{fill:#808a95;}.cls-22{fill:#5e6b75;}.cls-23{fill:#e0b286;}.cls-24{fill:#b2e49e;}</style></defs><g id="Layer_2" data-name="Layer 2"><g id="ic-cereal"><path class="cls-1" d="M0,315.92v-9.75c1.45-3.6,4.27-4.89,8-4.93,4.32-.05,8.64,0,13,.24C36,301,51.14,301,66.25,301.43c11.64-.47,23.28-.19,34.92-.26,3.38.82,6.82-.28,10.21.32,15.08-.55,30.16-.43,45.24-.09a28.27,28.27,0,0,0,6.5-.09q20.17-.35,40.35,0a29.54,29.54,0,0,0,6.51.12c15.16-.38,30.32-.45,45.48,0,16.43-.47,32.86-.29,49.29-.15a11,11,0,0,0,2.8.2c15.66-.49,31.33-.52,47,0a130.31,130.31,0,0,1,15.56-.17c6.07.33,9.13,3.52,9.26,9.63.16,7.18-1.19,14.18-2.87,21.11a78.56,78.56,0,0,1-4,17.12c-7.12,26.94-19.27,51.27-37.31,72.64a146.64,146.64,0,0,1-20.67,19.89c-2,1.63-4.08,3.33-7,2.7-4.54.37-9.08.36-13.62.36q-105.15,0-210.31,0a100.9,100.9,0,0,1-13.58-.61c-3.23.41-5.5-1.41-7.78-3.3C34.93,418.28,17.58,389.35,7,355.92,2.88,342.86,1.06,329.48,0,315.92Z"/><path class="cls-2" d="M99.47,0H420.3c1.43,1.45,1.14,3.28,1.14,5.05-.07,49.51,0,99-.07,148.52,0,3.18.73,6.54-1.39,9.44a4.93,4.93,0,0,1-3.4,1.68c-9.35.1-18.71.86-28-.4-3.1-1.67-1.62-3.8-.35-5.63A19.49,19.49,0,0,0,392.07,146c-.45-7.27-3.9-12.41-10.35-15.63-9-3.5-16.49-.61-22.35,6.07-7.07,8.06-15.2,15.09-22,23.4-2,2.4-4.21,4.58-7.71,4.49a41.57,41.57,0,0,1-8.25.6q-107.66,0-215.29,0c-3.34,0-6.88.74-9.9-1.53-1.82-1.79-1.74-4.12-1.74-6.39q-.09-74.33,0-148.64C94.48,4.48,95.09,1.15,99.47,0Z"/><path class="cls-3" d="M419.32,162.82q0-77.08,0-154.17a27.72,27.72,0,0,1,1-8.65h76.07a5.22,5.22,0,0,1,3.43,5.79,28.62,28.62,0,0,0,0,2.93q0,240.95,0,481.88c0,1.95,1,4.23-1,5.89-3-1.5-2.33-4.34-2.45-6.83-.31-6.15-.82-6.86-6.71-6.86-21.87,0-43.74-.23-65.6.13-1.47,0-2.91.18-4.26-.59a3.91,3.91,0,0,1-1.29-1.39,12.41,12.41,0,0,1-1.13-5.67q-.14-61.3,0-122.61c0-1.14.18-2.26.24-3.39a140.4,140.4,0,0,1,0-18q-.28-3.15-.28-6.32,0-76.72,0-153.45C417.28,168.5,416.61,165.24,419.32,162.82Z"/><path class="cls-4" d="M419.32,162.82q0,84.36,0,168.7a6.49,6.49,0,0,1-5.22,2c-11.75.08-23.5.06-35.25,0a6.51,6.51,0,0,1-4.11-1.13c1-7.19,2.56-14.31,2.72-21.6.12-5.49-1.51-7.22-7.1-7.36-5.17-.14-10.34-.15-15.51-.22a4.73,4.73,0,0,1-1.06-4c.65-4.45-.86-8.54-2.11-12.66-4.51-8.75-11.63-13.09-21.51-12.62-9.21.43-15.92,4.65-19.67,13.23-1.32,3-1.35,6.19-1.32,9.38,0,2.4.12,4.82-1.82,6.69l-2.11.07c-1.25-1.69-1.11-3.67-1-5.57a27.53,27.53,0,0,0-1.85-10.83c-4.81-10.14-14.21-14.68-26.21-12.61-1.89.32-3.75,1.12-5.7.27-1.83-2.94.65-4.5,2.22-6,8.12-7.93,16.29-15.84,24.7-23.45,7.59-6.85,14.91-14,22.3-21,16-15.22,32.27-30.09,48-45.62,4.83-4.79,10.18-9,15-13.92,1.19-1.2,2.52-2.69,4.63-1.71Z"/><path class="cls-5" d="M419.32,349.08l.09,131.63c-1.88,1.76-4.3,2.23-6.67,2.85-12.29-.55-24.58-.87-36.89-.82-28.53.12-57.06.06-85.6,0-2.86,0-5.88.54-8.47-1.36-2.68-6.42-2.2-13.08-1.53-19.76a6.82,6.82,0,0,1,3.62-4.3,221.11,221.11,0,0,0,20.26-12.2,8.51,8.51,0,0,1,5-1.65c24.17-17.84,41-41.33,52.74-68.69a262.76,262.76,0,0,0,9.05-25.7,8.94,8.94,0,0,1,6.28-2.08c12.14,0,24.29,0,36.43,0C415.76,347,417.8,347.3,419.32,349.08Z"/><path class="cls-6" d="M309.09,443.48a145.61,145.61,0,0,1-27.61,16.94c-2.3,2.57-5.41,1.85-8.24,1.85q-53.33.11-106.64,0c-20.78,0-41.56,0-62.34,0-2.72,0-5.59.38-7.75-2-10.18-4.74-19.87-10.25-28.4-17.64l236.29,0C306,442.67,307.67,442.37,309.09,443.48Z"/><path class="cls-7" d="M304.17,285.65c2.09,5.78,3.07,11.62,1.07,17.65-16.6.25-33.21.46-49.81-.13-2.2-4.43.45-8.59.7-12.89,1.29-2.27,1.65-5.31,4.92-5.94,9.8-1.52,19.66-.48,29.49-.67C295.14,283.59,300,282.7,304.17,285.65Z"/><path class="cls-7" d="M20.77,303.25c-1.85-5.83-3.12-11.67-.34-17.58a8,8,0,0,1,5.77-2c13.21.08,26.41-.29,39.62.21a3.28,3.28,0,0,1,2.32,1.35c2.64,6.33,3.83,12.52-1.84,18C51.12,303.68,36,303.62,20.77,303.25Z"/><path class="cls-8" d="M257.42,290.62a34,34,0,0,1-2,12.55l-45.59.13c-3.16-1.72-2.47-5.21-3.61-7.87a9.81,9.81,0,0,1,0-4.28c.93-2.43.73-5.52,3.84-6.7,3.63-1.16,7.38-.9,11.09-.8,11.15.3,22.33-.82,33.45.63a5.51,5.51,0,0,1,1.71.59C258.3,286.45,257.38,288.63,257.42,290.62Z"/><path class="cls-8" d="M156.92,303.29l-45.48,0c-4.06-2.75-3.14-7-3.18-10.92a41.39,41.39,0,0,1,.61-4.27,4.42,4.42,0,0,1,2.64-3.54,17.44,17.44,0,0,1,5.73-.95h34.08a16.6,16.6,0,0,1,6.2,1c1.49.76,2.07,2.22,2.78,3.6a16.1,16.1,0,0,1,.46,7C159.66,298,159.91,301.42,156.92,303.29Z"/><path class="cls-9" d="M307.35,303.23c-.36-5.94-1.58-12,1.77-17.55a11.88,11.88,0,0,1,7.27-2.08c10,0,20,0,29.94,0,2.47,0,4.83.27,6.75,2,3.2,5.6,3.23,11.52,1.76,17.59C339,303.74,323.18,303.77,307.35,303.23Z"/><path class="cls-9" d="M159.1,295.21q-.19-3.29-.38-6.59c-.29-1.26-.52-2.51.52-3.58a8.71,8.71,0,0,1,5-1.38c12.9-.06,25.8-.09,38.71,0a6.56,6.56,0,0,1,4.52,1.36c1.24,2.07.67,4.26.43,6.43l-.32,3.76c0,3.31-.1,6.56-3.89,8q-20.39.74-40.78,0C159,301.85,159.38,298.37,159.1,295.21Z"/><path class="cls-10" d="M419.32,349.08H370.88l3.84-16.67c1.93-1.17,4.08-.9,6.17-.9h38.42Q419.31,340.3,419.32,349.08Z"/><path class="cls-9" d="M66.3,303.22a31.09,31.09,0,0,0,1-17.51,4.81,4.81,0,0,1,4.19-2c11.46-.15,22.92-.21,34.38,0a5.63,5.63,0,0,1,2.73.89c1.24.71,1.26,1.87,1.13,3.07-1,6.18-.95,13-8.6,15.46C89.51,303.81,77.91,303.75,66.3,303.22Z"/><path class="cls-11" d="M101.11,303.18c3.86-4.23,6.92-8.91,8.26-14.56.23-.54.46-.57.69,0a35.68,35.68,0,0,0,1.38,14.7Z"/><path class="cls-12" d="M203.73,303.26c1.29-2.68,2.59-5.35,3.89-8l2.22,8.07Z"/><path class="cls-13" d="M159.1,295.21c1.28,2.69,2.57,5.37,3.85,8.05l-6,0C157.65,300.6,158.37,297.91,159.1,295.21Z"/><path class="cls-4" d="M110.06,288.61h-.69c0-1-.07-2-.11-2.95a5.72,5.72,0,0,1-1.9-4.3c-.57-6.93-4.21-12-9.57-16.15-1.31-1-3.42-1.46-3.1-3.82,3.08-.95,1.71-3.52,1.72-5.33.09-29.14.06-58.28.07-87.42,0-1.94.1-3.88.16-5.82l234.9,0c.94,2.57-1.06,3.9-2.43,5.35-18.66,19.67-37.16,39.48-55.94,59-13.48,14-26.39,28.64-40.43,42.16-1.78,1.24-3.93,1.45-5.94,2a22.26,22.26,0,0,0-13,9.55,14.87,14.87,0,0,1-4.16,4.66c-1.59,1.64-.29,4.12-1.67,5.82-.12-1.91-.25-3.82-.37-5.73a13.92,13.92,0,0,1-2.88-4.4c-3.49-8.43-9.85-13.21-18.79-14.78-2-.35-4.21-.39-5.79-2.06-1.18-4.68-.56-9.72-2.93-14.15-3.62-8.11-9.88-12.64-18.7-13.4-9.07-.78-16.06,2.89-21,10.47a26.51,26.51,0,0,0-2.48,4.17c-.92,4.37-1.71,8.72-.48,13.19a5.69,5.69,0,0,1-.3,4.2,3.8,3.8,0,0,1-2.76,1.73c-7.73,1.15-13,5.84-17.19,12a19.84,19.84,0,0,1-3.08,3C110.81,286.65,110.44,287.63,110.06,288.61Z"/><path class="cls-14" d="M232.06,268.24q24.45-25.76,48.88-51.52,25.37-26.88,50.6-53.87c7.82-8.15,15.7-16.24,23.44-24.46,3-3.19,5.8-6.56,9.7-8.7,5.71-3.12,11.59-3.8,17.61-.81,3,3,2.91,6.6,2,10.42-1.58,6.69-5.85,11.57-10.89,15.74-8.65,7.15-16.36,15.28-24.46,23q-24,22.78-48,45.55c-16.68,15.87-33.33,31.77-50.22,47.42-1.31,1.22-2.61,2.46-4.48,2.78-4.39-.46-8.32-2.59-12.62-3.41A1.87,1.87,0,0,1,232.06,268.24Z"/><path class="cls-15" d="M246.69,272.9c9.77-10.39,20.43-19.86,30.91-29.52,6.91-6.37,13.5-13.07,20.41-19.46,16.91-15.61,33.28-31.8,49.95-47.67,8.92-8.49,18-16.81,27-25.16,6.57-6.07,9.76-13.2,7.3-22.21,12.83,6.09,16,21,6.77,31.64-.64.73-1.21,1.51-1.81,2.27-6.08,5.6-12.24,11.13-18.24,16.83-16.37,15.54-32.63,31.2-49,46.74-15.43,14.63-31,29.15-46.44,43.75-1.29,1.22-2.42,2.62-3.62,3.93-.86,4.42-5.48,5.55-7.7,8.78-2,.92-3.1,3.43-5.76,3l-.92-.19C251.91,281.88,248.23,278.13,246.69,272.9Z"/><path class="cls-3" d="M258.05,59.49q37,0,74.06,0a25.36,25.36,0,0,1,4.86.17,7.21,7.21,0,0,1,6.25,7.06c.26,3.72-1.44,6.17-5.05,7.35a21.42,21.42,0,0,1-6.7,1q-73.58,0-147.15,0c-.49,0-1,0-1.46,0-6.5-.26-10.34-3.27-10.23-8,.11-5,3.51-7.51,10.38-7.51Q220.53,59.47,258.05,59.49Z"/><path class="cls-3" d="M257.66,110.16q-23.15,0-46.3,0c-5.91,0-10-3.13-10.08-7.62s4.08-7.9,10.28-7.91q46.29,0,92.59,0c.81,0,1.63,0,2.44,0,4.25.37,8.17,4,8.26,7.59.11,3.75-4,7.78-8.46,7.86-9.09.16-18.19.06-27.29.06Z"/><path class="cls-16" d="M498.36,496.4c-1,2.28-2.89,2.83-5.15,2.83l-73.83-.2c-3.5-5.44-2.61-11.08-.72-16.76.25-.19.51-.36.77-.54,3.95-1.1,8-1,12.06-1,20,0,39.94,0,59.91,0,6.48,0,6.9.47,6.92,6.91C498.33,490.55,498.35,493.47,498.36,496.4Z"/><path class="cls-17" d="M460.09,72.31c3.39,0,6.8-.14,10.18,0,4.88.26,7.74,3.17,7.77,7.55s-2.8,7.51-7.65,7.66c-7.11.23-14.23.24-21.34,0-4.81-.16-7.61-3.35-7.52-7.77s3-7.2,7.88-7.44C453,72.17,456.53,72.31,460.09,72.31Z"/><path class="cls-17" d="M459.73,429.39c-3.88,0-7.8.27-11.65-.07-4.4-.39-6.63-3.24-6.52-7.61s2.86-7,7.07-7.18c7.45-.3,14.93-.29,22.38,0,4,.15,6.68,2.52,7,6.76s-1.77,7.33-6.13,7.93c-4,.56-8.08.48-12.12.67Z"/><path class="cls-18" d="M460.14,102.35c3.57,0,7.14-.15,10.7,0a7.15,7.15,0,0,1,7.2,7.55c-.06,4.17-2.56,7.06-7,7.18-7.61.21-15.24.22-22.85,0-4.3-.14-6.76-3.21-6.7-7.41s2.71-6.87,6.94-7.31c.32,0,.64,0,1,0h10.7Z"/><path class="cls-18" d="M459.83,42.84c3.4,0,6.81-.07,10.21,0,4.93.14,7.91,2.91,8,7.27.1,4.53-2.65,7.44-7.61,7.55q-10.69.24-21.4,0c-4.79-.11-7.4-2.82-7.5-7.17s2.75-7.35,7.59-7.65c.33,0,.65,0,1,0Z"/><path class="cls-18" d="M459.79,459.28c-3.73,0-7.47.16-11.18,0a7.07,7.07,0,0,1-7.08-7.63c.11-4.17,2.61-7,7.05-7.1,7.45-.2,14.92-.21,22.37,0,4.61.13,7.2,3.16,7.09,7.55-.1,4-2.88,6.83-7.06,7.22-.32,0-.65,0-1,0H459.79Z"/><path class="cls-19" d="M413.5,481.62c1.78-1.49,3.92-.72,5.91-.91,0,.34,0,.68,0,1h-.07C417.38,483.34,415.42,483.73,413.5,481.62Z"/><path class="cls-20" d="M94.69,261.4c10.06,5,15.41,12.77,14.57,24.27l-42,0-1-1c-3-2.1-5.25-4.64-4.87-8.66C69,261.2,80.26,256.23,94.69,261.4Z"/><path class="cls-5" d="M61.46,276.09c1.62,2.9,4.17,5.26,4.87,8.66-1.52,1.31-3.38.91-5.12.92q-20.39,0-40.78,0a24.17,24.17,0,0,1,36.28-12.92C58.34,273.8,59.88,275,61.46,276.09Z"/><path class="cls-21" d="M96.51,460.34l185,.08q.24,10.13.47,20.23c2.86,4.67,2.58,7.26-1.08,10-2.49-1.87-2-4.63-2.05-7.16-.06-2-.65-2.77-2.63-1.81-2.58,1.26-5.38,1.1-8.13,1.1q-79.44,0-158.86,0h-.49c-8.38-.12-9.74-1.11-12.14-8.86Z"/><path class="cls-22" d="M96.57,473.89c2.64,5.54,7,7,13.06,7q79.11-.31,158.21-.06c4.91,0,9.34-.44,13.17-6.26v15.91c1.18,4,.21,6.35-3.26,7.63-1.21.44-2.53.53-3.75,1-21.41.05-42.82.14-64.24.15q-50.37,0-100.74,0c-9.08,0-12.56-3.51-12.6-12.69C96.4,482.31,96.51,478.1,96.57,473.89Z"/><path class="cls-7" d="M274,499.07c3.48-1.94,6.77-4,7-8.61,1.43-3.16.19-6.58.94-9.81,43.85.64,87.71-1,131.55,1l5.86.11q0,8.65,0,17.3c-11,.07-22,.2-33.05.19Q330.17,499.17,274,499.07Z"/><path class="cls-2" d="M261.4,281.86c2.19-3.32,5.53-5.4,8.55-7.82,2.88-.43,5.5-1.77,8.47-2.08,11.73-1.22,20.05,3.72,25.75,13.69H260.31C259.08,283.92,260.75,283,261.4,281.86Z"/><path class="cls-20" d="M353.08,285.65l-44,0c4.48-9.51,12.14-13.89,22.49-13.78C341.6,272,348.83,276.54,353.08,285.65Z"/><path class="cls-23" d="M261.4,281.86c-.36,1.26-.72,2.52-1.09,3.78l-2.89,5a8.72,8.72,0,0,1-.94-4.78Z"/><path class="cls-24" d="M246.69,272.9c4.12,3.43,7.46,7.42,8.87,12.75H209.61c2.89-9.29,9.49-14.36,18.7-16.49,1.25-.29,2.5-.61,3.75-.92C237.09,269.33,242.2,270.13,246.69,272.9Z"/><path class="cls-7" d="M133.63,268.88c-2-6.08-2.68-12.17,0-18.26,3.81-1.59,7.27.21,10.77,1.24a30.67,30.67,0,0,1,7.86,3.68c2.7,1.72,4.9,1.55,7.45-.41a42.31,42.31,0,0,1,12-6.24c2.33-.81,4.71-1.33,6.8.66a16.87,16.87,0,0,1,2,14.85c-.14,2.15-2,2.34-3.42,2.86-7.45,2.64-12.84,7.36-15.41,15a9.39,9.39,0,0,1-2.55,3.48c-.14,1-.27,1.93-.41,2.89-.35-.95-.69-1.91-1-2.86-6.2-7.77-13.22-14.35-23.56-16.08C133.87,269.64,133.74,269.2,133.63,268.88Z"/><path class="cls-24" d="M133.63,268.88c11.76.3,19.83,5.86,24.05,16.88l-46.49-.08C114.49,275.57,122.16,269.83,133.63,268.88Z"/><path class="cls-20" d="M159.13,285.73c1.86-12.39,9.91-18.57,21.38-21.33,14.91,0,25.22,8.1,27.06,21.34Z"/><path class="cls-2" d="M178.48,249.55c-7.7.21-13.8,4.14-19.65,8.57-1.35,1-2.43,2.28-4.19,1-6.26-4.67-13.7-6.39-21-8.48,7.87-16.6,24.63-20.8,39-9.77A15.88,15.88,0,0,1,178.48,249.55Z"/></g></g></svg>