<svg xmlns="http://www.w3.org/2000/svg" viewBox="0 0 431.46 492.22"><defs><style>.cls-1{fill:#fef0b7;}.cls-2{fill:#e7d174;}.cls-3{fill:#fee680;}.cls-4{fill:#e7daa6;}.cls-5{fill:#b16029;}.cls-6{fill:#a15725;}.cls-7{fill:#70330a;}</style></defs><g id="Layer_2" data-name="Layer 2"><g id="Layer_2-2" data-name="Layer 2"><path class="cls-1" d="M189.81,492.22H134.08c-1.78-1.42-2.15-3.4-2.39-5.53-4.08-36.46-7.88-72.95-12.28-109.37a18.2,18.2,0,0,1,.18-6.66c.58-1.92,2.11-2.73,3.86-3.17,12.19-3.06,24.11-3.64,35.74,2.59a119.09,119.09,0,0,0,22.53,9.17c2,.59,4,1.13,5.06,3.23,1.29,6,1.31,12.12,1.41,18.12.19,12.15.93,24.27,1.29,36.4q.71,24,1.82,47.89C191.42,487.4,191.67,490.05,189.81,492.22Z"/><path class="cls-2" d="M376.42,339.69c-3.25,14.63-6.47,29.27-9.78,43.89Q359,417.2,351.29,450.77c-5,21.66-17.88,35.52-39.8,40.54a6.22,6.22,0,0,0-1.56.91H298.4c-1.55-1.8-1-3.87-.81-5.93,1.58-15.51,3.84-30.94,5.23-46.46A61.52,61.52,0,0,1,305,427q4.56-17.4,7.84-35.09c.91-4.88-1-9.45-2.67-13.95a6.38,6.38,0,0,1-.14-1.63c.85-8.49,1.39-17,3.32-25.38,2.21-1.83,4.88-1.5,7.36-1.26,17.85,1.75,34.62-2.12,50.8-9.37C373.06,339.62,374.61,338.32,376.42,339.69Z"/><path class="cls-1" d="M310.92,376.89c0,.32.05.65.08,1,2.23,7.49-.31,14.84-.87,22.22-.67,9-2.45,17.89-4,26.79l-1.95,12.48c-2,9.28-2.34,19.06-7.56,27.41-8.76,14-20,24.46-37.72,25a1.31,1.31,0,0,0-.82.44H242.67c-1.76-2-1.55-4.48-1.5-6.86.32-15.32,1.18-30.64,1.61-46,.36-12.77,1.37-25.53,1.23-38.32A135.64,135.64,0,0,1,245.45,383c.68-2.26,2.49-3.27,4.53-3.88,10-3,19.27-7.8,28.62-12.37a25.29,25.29,0,0,1,29.29,4.88A10,10,0,0,1,310.92,376.89Z"/><path class="cls-3" d="M246.54,381.69q-1.28,28.94-2.13,57.9c-.54,17.54-1.9,35.06-1.74,52.63H189.81c-.65-21.86-.95-43.74-2.08-65.57-.77-15-1.07-30-1.84-44.94l.69-.48c6.58-.26,12.95,1.55,19.43,2.29,11.47,1.3,22.61-.07,33.79-2.07,2-.36,4-1.21,6.1-.31Z"/><path class="cls-3" d="M120.56,370.15c.34,11.62,2.4,23,3.69,34.55,1.12,9.94,2,19.91,3.12,29.85,1.46,13.08,3.12,26.14,4.54,39.23.66,6.16.93,12.35,2.17,18.44H120.62c-2-1.92-4.69-1.73-7-2.58-16.93-6.16-27.76-17.94-31.91-35.39-7.33-30.85-14.28-61.78-21.38-92.68,1.51-.47,2.83.22,4.16.72,16.84,6.28,34.28,7.47,52,6.09a7.66,7.66,0,0,1,2.39.08A2.48,2.48,0,0,1,120.56,370.15Z"/><path class="cls-4" d="M258,492.22c6.3-2,12.86-3.05,18.64-6.6,14.86-9.12,22.7-22.69,25.52-39.53.39-2.33.66-4.67,1.94-6.73C303,449.9,302,460.45,300.82,471c-.76,7.08-1.61,14.15-2.42,21.23Z"/><path class="cls-5" d="M55.18,339.61c-28.95-16.15-47-40.37-53.38-73C-6,226.56,12.34,183.93,46.9,161.91a8.37,8.37,0,0,0,4.35-7.24c5.21-69.75,49.62-126,116.2-147.16,8.51-2.71,17.18-5,26.18-5.5,20.72,2.05,39.45,9.81,57.18,20.21A160,160,0,0,1,300.22,67c1.19,1.65,4,3.45.91,5.92-3.4.15-6.54-1.24-9.84-1.73-10.62-1.57-19.82,3.2-22.83,12.13-3.31,9.84.64,19.33,10.11,24.68,6.15,3.49,12.77,4.14,19.48,3,5.95-1,9.66-5.24,11.95-10.71.93-2.21,1.22-4.63,2.26-6.8,1.76-2.12,3-1,4.09.69a37.56,37.56,0,0,1,3.17,6.46c4.22,10.9,8.17,21.89,10.11,33.49,2.43,14.5,8.42,27,19.69,36.93a85.91,85.91,0,0,1,16,19.09c1,1.56,2.57,3,1.49,5.21-2.74.55-3.88-1.81-5.53-3.14-10.05-8.11-21.11-10.38-33.19-5.41-11.73,4.82-19.72,12.82-21,26.16-1.07,10.89,3.8,19.88,13.58,24.72,18.78,9.31,40,2.24,48.28-16a30.72,30.72,0,0,0,2.32-13.11c.25-1,.22-2.46,1.61-2.58s1.71,1.28,2.17,2.24a73.56,73.56,0,0,1,6,20.66c3.15,21.15,1.4,41.76-7.55,61.47q-18.61,41-60.84,56.45a54.53,54.53,0,0,0-7.14,2.75c-6.79.28-12.66-2.9-18.75-5.13-2.6-.95-4.37-.8-6.52.92-10,7.95-21.33,13.38-33.31,17.61-20.53,6.25-41.07,6.92-61.64.22a99.85,99.85,0,0,1-34.41-18.21c-2.1-1.68-3.9-1.59-6.13-.59-8.77,4-18.11,6-27.51,7.86-17.45,1.83-34.47.08-50.92-6.24C62.28,344.4,58.06,343.17,55.18,339.61Z"/><path class="cls-6" d="M366.6,195.37c-3-7.53-8.58-13.25-13.8-19.19-4.21-4.78-9.29-8.73-13.2-13.82-7.64-9.94-9.91-21.79-12.4-33.65A146,146,0,0,0,315.53,95c-.5-1-.79-2.69-2.64-1.57-1-.73-1.12-1.85-1.25-3-.79-6.6-3.6-12-9.13-15.92-.75-.53-1.58-1.13-1.22-2.3-.55-5.46-5.09-8.44-8.09-12.2C278,41.09,259,26.86,237.3,16.3A147.55,147.55,0,0,0,195.21,2.94c-.56-.09-1.05-.61-1.58-.93,10.57-2.26,21.31-2.33,32-1.6,45.15,3.08,83.31,21.17,113.65,54.8,25.63,28.4,39.56,62,41.83,100.24.14,2.39.66,4.07,2.9,5.5,67.1,42.66,61.09,140.17-5.55,177.45-.69.39-1.35.86-2,1.29a110.78,110.78,0,0,1-62.59,11.17c-3.27,1-6.22.51-8.69-2,3.26-3.12,7.76-3.46,11.67-5.05,23.8-9.69,41.43-26.24,53.11-48.79,9.91-19.13,13.14-39.69,10.32-61.24A94.46,94.46,0,0,0,373.53,208c-.17-.4.26-1.44-.87-1.11-.1,0-.17.25-.18.39-.05.48-.07,1-.11,1.44C369.22,204.81,367,200.49,366.6,195.37Z"/><path class="cls-2" d="M55.18,339.61c14.41,7.44,29.79,11.16,45.91,12.07,5.59.31,11.11-1.35,16.71-.62,3.23,5.78,4.1,11.8,1.87,18.13-19,2.48-37.58.94-55.69-5.55a20.47,20.47,0,0,1-3.7-2.07Q57.75,350.59,55.18,339.61Z"/><path class="cls-4" d="M119.67,369.19c.12-6.12-.87-12.12-1.87-18.13,9.69-2.44,19.51-4.47,28.64-8.72,1.79-.83,3-.12,4.28,1a103.26,103.26,0,0,0,34.22,18.55c1.83,6.53,3.79,13.06,1.07,19.84l-.12,0c-9.72-2.17-18.78-6.13-27.6-10.58-9.22-4.64-18.71-6-28.68-3.44-3,.78-6.46.11-9.05,2.46Z"/><path class="cls-4" d="M305.14,348.85l8.69,2a175.14,175.14,0,0,1-2.91,26c-9.43-12.86-23.31-14.4-34.93-7.59-9.26,5.42-19.34,9-29.45,12.39l-.14,0c-2.11-6.82-2.57-13.56,1.06-20.08,12.17-4.57,23.76-10.2,33.76-18.69,1.68-1.43,3.16-.83,4.84-.12A92.39,92.39,0,0,0,305.14,348.85Z"/><path class="cls-3" d="M306.09,426.88c.42-11.38,2.31-22.61,3.45-33.92.51-5,1-10.06,1.46-15.09,3.8,6,4.14,12.38,2.36,19.11C310.75,406.9,309.41,417.13,306.09,426.88Z"/><path class="cls-2" d="M247.46,361.57c-1.42,6.64-.71,13.39-1.06,20.08-10.47,1.91-20.91,4.23-31.63,3.84A134.24,134.24,0,0,1,186,381.68q-.54-9.92-1.07-19.84C205.81,368.3,226.65,367.66,247.46,361.57Z"/><path class="cls-7" d="M212.57,161.57c12.21-.73,23.12,4.06,31.32,14.4,11.28,14.22,7.6,32.7-8.39,43.54-18.29,12.4-41.66,9.07-52.76-7.65-6.9-10.39-7.81-21.8-2.68-32.85,5.53-11.94,15.95-17.34,29.07-17.44Z"/><path class="cls-7" d="M366.6,195.37c2.2,4.34,4.69,8.55,5.77,13.37,1,18.5-13.92,32.62-32.25,34.43-15.73,1.56-31.62-8.78-33.92-21.43-3-16.8,7-32.15,23.58-37.11C344.6,180.19,356.3,185,366.6,195.37Z"/><path class="cls-7" d="M159.28,113.59C140.24,115.06,129.77,96,134,81s13.38-24.87,28.57-28.63c12.47-3.09,26.26,6.89,29,21C195.73,94.53,182.84,113.66,159.28,113.59Z"/><path class="cls-7" d="M109.13,231.88c0,13.38-8.72,21.9-22.43,22-15,.07-26.85-11.2-26.53-25.62.28-13.06,8.32-22.17,21.94-22.17C98.23,206.06,109.74,218.57,109.13,231.88Z"/><path class="cls-7" d="M301.29,72.23c7.91,4.84,11.85,11.85,11.6,21.17-2.06,17.49-14.7,22.92-30.71,17.6-14.63-4.86-20.12-18.82-13.3-31.68,3.57-6.73,13.31-11.2,21.29-9.64C293.9,70.41,297.58,71.37,301.29,72.23Z"/></g></g></svg>