<svg xmlns="http://www.w3.org/2000/svg" viewBox="0 0 438.28 500"><defs><style>.cls-1{fill:#fef0b7;}.cls-2{fill:#e7d174;}.cls-3{fill:#fee680;}.cls-4{fill:#e7daa6;}.cls-5{fill:#b16029;}.cls-6{fill:#a15725;}.cls-7{fill:#70330a;}</style></defs><g id="Layer_2" data-name="Layer 2"><g id="ic-dessert"><path class="cls-1" d="M192.81,500H136.2c-1.81-1.44-2.18-3.46-2.43-5.61-4.14-37-8-74.11-12.48-111.1a18.79,18.79,0,0,1,.19-6.77c.59-1.95,2.15-2.78,3.92-3.22,12.38-3.1,24.49-3.7,36.31,2.63a120.52,120.52,0,0,0,22.88,9.31c2,.6,4.09,1.16,5.15,3.29,1.3,6.07,1.32,12.31,1.42,18.4.2,12.34,1,24.65,1.31,37q.72,24.33,1.85,48.64C194.45,495.1,194.7,497.8,192.81,500Z"/><path class="cls-2" d="M382.37,345.06c-3.31,14.86-6.57,29.74-9.93,44.59q-7.74,34.14-15.59,68.25c-5,22-18.17,36.08-40.44,41.18a6.24,6.24,0,0,0-1.58.92H303.12c-1.58-1.83-1-3.93-.83-6,1.61-15.75,3.91-31.43,5.31-47.2a62.79,62.79,0,0,1,2.26-13q4.63-17.67,8-35.64c.93-5-1-9.6-2.7-14.18a6.15,6.15,0,0,1-.15-1.65c.87-8.63,1.42-17.3,3.37-25.78,2.25-1.86,5-1.53,7.48-1.28C344,357,361,353,377.42,345.68,379,345,380.53,343.66,382.37,345.06Z"/><path class="cls-1" d="M315.83,382.84c0,.34.06.67.08,1,2.27,7.61-.31,15.07-.87,22.57-.69,9.15-2.49,18.18-4.11,27.21l-2,12.68c-2,9.43-2.37,19.37-7.67,27.85C292.37,488.39,281,499,263,499.55a1.38,1.38,0,0,0-.83.45H246.5c-1.78-2-1.57-4.55-1.52-7,.32-15.57,1.2-31.13,1.64-46.69.37-13,1.39-25.94,1.24-38.93A136.67,136.67,0,0,1,249.33,389c.69-2.29,2.53-3.32,4.61-3.94,10.18-3,19.56-7.92,29.07-12.56a25.67,25.67,0,0,1,29.75,5A10.14,10.14,0,0,1,315.83,382.84Z"/><path class="cls-3" d="M250.43,387.72q-1.29,29.4-2.16,58.82c-.55,17.82-1.92,35.61-1.77,53.46H192.81c-.66-22.21-1-44.43-2.11-66.61-.79-15.21-1.08-30.44-1.87-45.64l.69-.5c6.7-.26,13.17,1.58,19.74,2.33,11.66,1.33,23-.07,34.33-2.1,2.06-.36,4.08-1.23,6.2-.32Z"/><path class="cls-3" d="M122.46,376c.35,11.8,2.44,23.41,3.76,35.1,1.13,10.1,2,20.22,3.16,30.32,1.49,13.29,3.17,26.56,4.61,39.85.68,6.25.95,12.55,2.21,18.73H122.53c-2-1.94-4.77-1.76-7.15-2.62-17.2-6.26-28.21-18.23-32.42-35.95-7.44-31.33-14.5-62.76-21.72-94.14,1.53-.49,2.88.22,4.23.72,17.11,6.38,34.82,7.6,52.83,6.19a8.24,8.24,0,0,1,2.43.08A2.5,2.5,0,0,1,122.46,376Z"/><path class="cls-4" d="M262.12,500c6.4-2,13.06-3.1,18.94-6.71,15.09-9.26,23.05-23.05,25.92-40.15.39-2.36.67-4.74,2-6.84-1.12,10.71-2.21,21.43-3.37,32.14-.77,7.19-1.63,14.37-2.45,21.56Z"/><path class="cls-5" d="M56.06,345C26.64,328.57,8.31,304,1.83,270.86c-8-40.72,10.7-84,45.82-106.4a8.49,8.49,0,0,0,4.41-7.35c5.29-70.84,50.4-128,118-149.48,8.65-2.75,17.45-5,26.59-5.59,21.05,2.08,40.08,10,58.09,20.54A162.53,162.53,0,0,1,305,68c1.2,1.67,4,3.5.92,6-3.45.16-6.64-1.25-10-1.75-10.78-1.6-20.13,3.24-23.19,12.32-3.36,10,.66,19.63,10.27,25.07,6.25,3.54,13,4.21,19.79,3,6.05-1.06,9.81-5.32,12.14-10.87.94-2.25,1.24-4.71,2.3-6.92,1.78-2.15,3.06-1,4.15.71a38,38,0,0,1,3.22,6.56c4.29,11.08,8.3,22.24,10.27,34,2.47,14.73,8.56,27.47,20,37.51a88.34,88.34,0,0,1,16.22,19.39c1,1.59,2.6,3.08,1.51,5.3-2.79.55-3.94-1.84-5.62-3.19-10.21-8.24-21.44-10.54-33.71-5.5-11.92,4.9-20,13-21.37,26.58-1.08,11.06,3.87,20.19,13.8,25.11,19.07,9.45,40.63,2.27,49-16.28,1.94-4.26,2.38-8.73,2.36-13.31.25-1.07.22-2.5,1.64-2.63s1.73,1.31,2.19,2.28a74.49,74.49,0,0,1,6.12,21c3.21,21.48,1.42,42.42-7.67,62.44q-18.9,41.61-61.8,57.34a56.07,56.07,0,0,0-7.26,2.8c-6.88.28-12.86-3-19-5.22-2.64-1-4.44-.81-6.62.94-10.14,8.08-21.67,13.59-33.84,17.88-20.85,6.35-41.72,7-62.61.23a101.27,101.27,0,0,1-35-18.49c-2.13-1.71-4-1.62-6.22-.6-8.92,4-18.4,6.11-27.94,8-17.74,1.86-35,.08-51.73-6.34C63.26,349.84,59,348.6,56.06,345Z"/><path class="cls-6" d="M372.4,198.46c-3.07-7.65-8.72-13.46-14-19.49-4.28-4.86-9.44-8.87-13.41-14-7.76-10.1-10.07-22.14-12.6-34.18a148.39,148.39,0,0,0-11.85-34.28c-.51-1-.8-2.73-2.68-1.6-1-.74-1.14-1.88-1.27-3-.81-6.71-3.66-12.22-9.28-16.17-.76-.54-1.6-1.15-1.24-2.34-.56-5.55-5.17-8.57-8.22-12.39-15.39-19.24-34.71-33.69-56.78-44.42A150,150,0,0,0,198.3,3c-.57-.08-1.07-.61-1.61-.94C207.43-.25,218.34-.32,229.17.42,275,3.55,313.8,21.92,344.62,56.09c26,28.85,40.19,62.94,42.49,101.82.15,2.43.67,4.14,2.95,5.58,68.16,43.34,62.05,142.39-5.64,180.26-.7.4-1.37.87-2.05,1.31a112.53,112.53,0,0,1-63.57,11.35c-3.33,1-6.33.51-8.84-2.05,3.31-3.16,7.89-3.51,11.86-5.13,24.18-9.84,42.09-26.65,53.95-49.56,10.06-19.43,13.34-40.32,10.48-62.21a95.93,95.93,0,0,0-6.81-26.15c-.18-.4.25-1.46-.89-1.13-.1,0-.17.26-.19.4-.05.49-.07,1-.1,1.46C375.06,208.05,372.8,203.65,372.4,198.46Z"/><path class="cls-2" d="M56.06,345c14.63,7.55,30.25,11.34,46.63,12.26,5.68.32,11.28-1.37,17-.63,3.29,5.87,4.17,12,1.9,18.42-19.3,2.52-38.17,1-56.57-5.64a20.14,20.14,0,0,1-3.75-2.11Q58.65,356.14,56.06,345Z"/><path class="cls-4" d="M121.56,375c.12-6.22-.88-12.32-1.9-18.42,9.84-2.48,19.82-4.54,29.09-8.86,1.82-.84,3-.13,4.36,1a104.52,104.52,0,0,0,34.75,18.85c1.86,6.64,3.85,13.27,1.09,20.16l-.12,0c-9.87-2.21-19.08-6.23-28-10.75-9.36-4.72-19-6.1-29.13-3.5-3.07.79-6.56.12-9.2,2.5Z"/><path class="cls-4" d="M310,354.36l8.84,2.05a177.73,177.73,0,0,1-3,26.43c-9.57-13-23.67-14.62-35.48-7.7-9.4,5.5-19.64,9.11-29.92,12.58l-.13,0c-2.15-6.93-2.61-13.77,1.08-20.39,12.35-4.65,24.13-10.37,34.28-19,1.71-1.45,3.22-.84,4.92-.12A94.07,94.07,0,0,0,310,354.36Z"/><path class="cls-3" d="M310.93,433.62c.43-11.56,2.34-23,3.5-34.45.52-5.11,1-10.22,1.48-15.33,3.86,6.09,4.21,12.58,2.41,19.41C315.66,413.33,314.3,423.72,310.93,433.62Z"/><path class="cls-2" d="M251.38,367.29c-1.45,6.74-.73,13.6-1.08,20.39-10.64,1.94-21.24,4.3-32.14,3.91A137.17,137.17,0,0,1,189,387.72q-.54-10.08-1.09-20.16C209.06,374.12,230.23,373.47,251.38,367.29Z"/><path class="cls-7" d="M215.93,164.13c12.4-.75,23.48,4.12,31.81,14.63C259.2,193.2,255.47,212,239.22,223c-18.58,12.59-42.32,9.21-53.59-7.77-7-10.56-7.93-22.14-2.73-33.37,5.63-12.13,16.21-17.61,29.54-17.71Z"/><path class="cls-7" d="M372.4,198.46c2.23,4.4,4.76,8.68,5.86,13.58,1,18.79-14.15,33.13-32.76,35-16,1.58-32.13-8.92-34.46-21.77-3.09-17.07,7.13-32.66,23.95-37.7C350.05,183,361.93,188,372.4,198.46Z"/><path class="cls-7" d="M161.8,115.38c-19.34,1.5-30-17.92-25.69-33.06s13.59-25.26,29-29.09c12.67-3.13,26.68,7,29.5,21.38C198.83,96,185.73,115.46,161.8,115.38Z"/><path class="cls-7" d="M110.85,235.54c0,13.6-8.85,22.25-22.78,22.31-15.22.07-27.27-11.37-26.95-26,.29-13.27,8.45-22.52,22.29-22.52C99.79,209.32,111.47,222,110.85,235.54Z"/><path class="cls-7" d="M306.05,73.37c8,4.92,12,12,11.79,21.5-2.1,17.77-14.94,23.29-31.2,17.88-14.86-4.94-20.44-19.11-13.51-32.18,3.63-6.84,13.52-11.37,21.62-9.78C298.54,71.53,302.29,72.5,306.05,73.37Z"/></g></g></svg>