<svg xmlns="http://www.w3.org/2000/svg" viewBox="0 0 281.28 500"><defs><style>.cls-1{fill:#fec163;}.cls-2{fill:#fea85b;}.cls-3{fill:#def3f9;}.cls-4{fill:#caeef8;}.cls-5{fill:#fed978;}</style></defs><g id="Layer_2" data-name="Layer 2"><g id="ic-drink"><path class="cls-1" d="M1.93,8.67C3.82,3.63,8.39,1.94,12.76,0h6.83L99.15,34.19c7.31,3.14,14.66,6.17,21.94,9.4,15.67,7,24.08,19,25.55,36.16.94,10.82,2.41,21.59,3.64,32.37a3.32,3.32,0,0,1-1.2,1c-2.54.79-5.16.44-7.75.45-8.26,0-8.88-.64-9.71-9.06s-1.69-17.13-2.72-25.67C127.73,69,122,62.92,113.37,59.24,78.53,44.37,43.77,29.34,8.91,14.52c-1.79-.76-3.57-1.57-5.3-2.46C2.25,11.35,1,10.54,1.93,8.67Z"/><path class="cls-1" d="M33.08,485.61c-2.18-3.07-2.39-6.71-2.61-10.22-1.46-23.49-2.71-47-4.2-70.48-2.1-33.2-4.39-66.39-6.5-99.59-1.18-18.63-2.11-37.28-3.23-55.91-.88-14.58-1.89-29.15-2.81-43.73-.11-1.78,0-3.57,0-5.36,4.31-1.28,8.73-.61,13-.42,10.46.45,19.88-2.6,28.81-7.61,20.5-11.48,40.89-10.94,61.16.51a58.45,58.45,0,0,0,9.74,4.42c10.45,3.5,21.08,3.14,31.78,1.53,7.85-1.78,14.5-6.33,21.77-9.43,19.37-8.27,38.12-7.22,56,4.36a3.1,3.1,0,0,1,.79,2.45c-1.56,13.4-1.87,26.88-2.81,40.32-1.33,19.12-2.38,38.25-3.63,57.37q-1.17,18-2.25,36-1.77,28.92-3.63,57.85c-.78,12.16-1.58,24.31-2.23,36.47s-1.55,24-2.27,36a25.55,25.55,0,0,1-3.26,11.66C211.66,480.38,204.41,485,194,485c-50.08-.15-100.15-.06-150.23-.08A63.68,63.68,0,0,0,33.08,485.61Z"/><path class="cls-2" d="M33.08,485.61c.81-3.41,3.6-2.18,5.61-2.18,51.41-.06,102.83-.43,154.24.21,14,.17,25.25-10.14,25.92-25.52.78-18.11,1.65-36.22,3-54.29,1.13-15.33,1.91-30.68,2.92-46q2.1-31.71,4-63.45c.91-15.33,2-30.66,2.89-46,1-15.82,2.46-31.61,2.87-47.47a7.6,7.6,0,0,1,2.14-5.74,3.7,3.7,0,0,1,3.71.2c10,4.87,20.7,4.71,31.44,4.31,1.55-.06,3.24-.73,4.58.7-1.08,19-2.12,38-3.26,56.94-.75,12.49-1.66,25-2.45,37.46q-3.36,52.78-6.68,105.58c-1.1,17.68-2.08,35.37-3.17,53-.53,8.43-.92,16.89-1.85,25.28-1.37,12.4-11.35,21.21-23.88,21.26-21.81.1-43.61,0-65.42,0-38.07,0-76.15.08-114.23-.06C45.13,499.89,37.3,495.41,33.08,485.61Z"/><path class="cls-3" d="M126,198.28c-3.44-.57-6.39-2.31-9.34-4-20.08-11.5-40.35-12.34-60.6-.73-13.34,7.66-27.44,9.37-42.32,6.77-2.2-6.75-1-13.82-1.74-20.73-1.46-13.48-1.26-27.14-2.36-40.67-.47-5.83-.84-11.62-.82-17.45,0-5.59,2.67-8.19,8.39-8.2q47.28,0,94.58,0c1.85,0,4,.75,5.5-1,1.1,0,1.54.79,1.89,1.66q3.27,30.27,6.33,60.55c.51,5,1.1,10,1.62,15C127.47,192.41,128.28,195.56,126,198.28Z"/><path class="cls-3" d="M235.4,194.06c-10.25-5.54-21-9.16-32.87-8.59a56.71,56.71,0,0,0-23.79,5.89c-6.31,3.25-12.4,7-19.51,8.51-3.48-5-2.6-10.92-3.24-16.43-2.46-21.06-4.4-42.19-6.69-63.27-.26-2.39-.77-4.87,1.17-6.91h89.81a5.77,5.77,0,0,1,1.31,4.54c-1.48,16.95-2.05,33.95-3.38,50.91-.52,6.62-.58,13.27-1.29,19.89C236.72,190.52,237,192.55,235.4,194.06Z"/><path class="cls-4" d="M235.4,194.06c.93-20.17,2.29-40.31,3.72-60.45.49-6.76,1-13.55,1.16-20.34,10.88,0,21.77,0,32.65,0,5.7,0,8.52,2.65,8.34,8.24q-.7,22-2.75,44c-.53,5.63-.31,11.29-.91,17-.63,5.91-.4,12-1.27,17.89-13.77,2.28-27.12,1.31-39.73-5.21Z"/><path class="cls-4" d="M150.47,113.26c.54,12.42,2.37,24.71,3.64,37.05.64,6.26,1.19,12.51,2,18.76,1.28,10.24,2.12,20.53,3.14,30.8-11.2,2.22-22.31,2.71-33.2-1.59-.3-12.75-2.55-25.32-3.58-38-.88-10.77-2.45-21.46-3.21-32.23-.36-5-1.62-9.91-1-15,4.72-2.43,9.7-1.51,14.56-.85a60.69,60.69,0,0,0,16.65,0,4.43,4.43,0,0,0,.8-.19C150.34,112.5,150.41,112.88,150.47,113.26Z"/><path class="cls-5" d="M149.48,112.31c-2.66,1.79-5.64.75-8.45.8-7.58.15-15.18,0-22.76,0l-1-.93c-1-10.65-2-21.3-3.06-31.95-.39-3.89-3.1-5.81-6.43-7.23Q69.07,56.47,30.33,39.87C23.47,36.93,16.55,34.11,9.74,31,.72,27-2.41,17.78,1.93,8.67c1.39,3.31,4.86,3.5,7.49,4.64C36.17,24.92,63,36.35,89.82,47.8c7.9,3.38,15.89,6.53,23.73,10C126.7,63.71,129.81,71.08,131,84c.73,8.35,2,16.65,2.74,25,.26,2.94,1.62,3.41,4.08,3.34C141.67,112.2,145.58,112.3,149.48,112.31Z"/><path class="cls-5" d="M82.1,264.83A14.54,14.54,0,0,1,85,254.91c4.73-6.78,9.21-13.74,14.06-20.43C103.6,228.17,112.3,226,119,230c8,4.71,15.7,9.82,23.14,15.28,6.76,5,8.43,12.43,4.51,20a150.29,150.29,0,0,1-16.42,24.67c-5.4,6.71-14.7,6.63-23.41.69-5.9-4-11.72-8.15-17.64-12.13C84.34,275.2,81.58,271,82.1,264.83Z"/><path class="cls-5" d="M169,225.55a12.91,12.91,0,0,1,2.73-9.38c4.61-5.68,9.55-11.11,15.54-15.33,6.57-4.63,14.21-3.7,19.94,1.94,4.06,4,8.1,8,12.08,12.08a15.1,15.1,0,0,1,0,21.43c-3.75,3.84-7.57,7.61-11.38,11.4-6.67,6.63-15.74,7.3-22.76,1.22a141.22,141.22,0,0,1-12.4-12.43A13.5,13.5,0,0,1,169,225.55Z"/><path class="cls-5" d="M212,310.23c-.06,9.15-12.88,22-21.74,21.77-9.92-.24-22.17-12.58-22.2-22.36s12.22-21.63,22.51-21.57C200.21,288.12,212,300.33,212,310.23Z"/></g></g></svg>