<svg xmlns="http://www.w3.org/2000/svg" viewBox="0 0 500 498.97"><defs><style>.cls-1{fill:#e1e1e1;}.cls-2{fill:#ececec;}.cls-3{fill:#f4f4f4;}.cls-4{fill:#eee;}.cls-5{fill:#fbce3f;}.cls-6{fill:#eea235;}.cls-7{fill:#fedc87;}</style></defs><g id="Layer_2" data-name="Layer 2"><g id="ic-egg"><path class="cls-1" d="M227.6,1C237-.22,246.37,0,255.77.06c23.09.19,45.49,4.16,66.37,14.22C339,22.41,353,34.54,365.17,48.7c18.89,22,34.66,46.49,55.49,66.84,9.76,9.54,20.74,17.6,31.45,26,24.42,19,38.95,43.73,44.08,74.19,1.37,8.14,2.84,16.23,2.86,24.52,1.27,3.5-.41,7.27.95,10.77v18.55c-1,2.14-.26,4.41-.5,6.6-.18,28.38-9.57,54.16-22.51,78.88a156.86,156.86,0,0,1-28,37.88c-15.11,15.18-32.67,27.29-53.6,32.47-25.3,6.26-46,19.77-65.15,36.59-12.21,10.7-24.6,21.23-39.46,28.37-11.64,5.61-23.69,8.82-36.68,8.15-3-.24-6,.5-8.92-.44-8.94.56-17.58-1.57-26.29-3-.2-2.28,1.73-2.58,3.13-3.06,18-6.15,32.15-18.18,46.34-30.15,14.81-12.49,29.49-25.15,47.82-32.44,6.22-2.47,12.68-4.13,19.09-6,24.84-7.22,45.06-21.48,61.66-41,23.43-27.56,36.45-59.87,41.82-95.29,2.56-16.89,2-34,.72-51.09a163.34,163.34,0,0,0-10.26-47c-6.82-17.65-18.47-31.66-32.75-43.64-12.57-10.56-26.1-20-37.77-31.62-11-10.92-20.38-23.22-29.74-35.52-9.56-12.56-19.11-25.19-30-36.54-18.15-18.84-40.13-31.35-66-36.48-1.76-.35-3.52-.68-5.27-1-1.16-.25-3-.1-2.84-1.88C224.89.88,226.86,2,227.6,1Z"/><path class="cls-2" d="M500,251c-2.06-3.44-.49-7.2-.95-10.77l.95,0Z"/><path class="cls-3" d="M254.94,498c0,.32,0,.64,0,1h-9.76c0-.32,0-.64,0-1Z"/><path class="cls-2" d="M500,276.35l-.95,0c.33-2.28-.91-4.79.95-6.86Z"/><path class="cls-4" d="M227.6,1l-2.07,1.47c19.15,3.42,37.25,9.29,53.21,20.63a162.28,162.28,0,0,1,29.71,27.67c15.63,18.37,29.41,38.21,45.35,56.3,8.61,9.76,18.94,17.67,29.1,25.73,12.84,10.17,25.69,20.29,35.41,33.74,11.17,15.47,16.73,33.06,20.23,51.57,3.59,19,3.75,38.16,2.63,57.2-1.38,23.23-7.59,45.51-17.41,66.77-8.51,18.42-19.43,35.11-33.72,49.56a127,127,0,0,1-61.27,34.91C310.62,431,295.59,441,281.43,452.5c-15,12.25-29.16,25.74-46.28,35.21-5.19,2.87-10.85,4.9-16.29,7.32-10.87-3.33-21.56-7-31.7-12.28a149.22,149.22,0,0,1-32.7-23.4c-16.73-15.62-31.58-33-45.62-51.09-7.53-9.71-15.31-19.26-23.48-28.44-10.27-11.54-23.49-19.29-36.69-26.94-14.9-8.63-28.56-18.49-37-34.17a89.83,89.83,0,0,1-9.42-29.47,163.46,163.46,0,0,1-2.14-31c.9-23.52,6-45.85,19.1-65.78,9.14-13.86,21.3-24.69,34.66-34.36,16.57-12,34.64-21.61,51.59-33,17.41-11.71,29.48-27.49,37.33-46.81,5.14-12.63,10.31-25.26,17-37.17,11.45-20.36,29.23-32,51.65-37.09C216.77,2.84,222.21,2,227.6,1Z"/><path class="cls-5" d="M212.05,307.62c-29.75-54.6,0-123.18,60.39-138.9,25-6.5,48.84-3.63,71.48,8.87a91,91,0,0,1,10.57,43.12c0,22.95-7,43.83-21.59,61.8-16.12,19.91-36.89,31.94-62.31,35.69a97.51,97.51,0,0,1-53.34-7C215.25,310.31,213.76,308.82,212.05,307.62Z"/><path class="cls-6" d="M212.05,307.62c9.47,3.75,18.88,7.43,29.11,9.06A94,94,0,0,0,293,310.84c27.21-11.36,46-31.29,55.22-59.34,7.67-23.26,6.64-46.46-3.48-69-.68-1.51-2-3-.81-4.89,27,15,43.28,38,48.49,68.2,7.25,42-13.14,80.37-47.48,100.47-34.18,20-81.77,15.33-111.28-11.31C224.88,327,217.35,318.23,212.05,307.62Z"/><path class="cls-7" d="M227.63,276.06c1.7-19.84,9.6-37.15,26.22-49.92,4.09-3.14,7.79-2.85,10.62.68s2.25,7.87-2,11c-7.78,5.86-12.81,13.62-16.55,22.38a51.85,51.85,0,0,0-3.64,17c-.43,6.32-2.71,9.64-7.25,9.69S227.56,282.87,227.63,276.06Z"/></g></g></svg>