<svg xmlns="http://www.w3.org/2000/svg" viewBox="0 0 500 488.02"><defs><style>.cls-1{fill:#9fd84c;}.cls-2{fill:#eaf2fe;}.cls-3{fill:#feda96;}.cls-4{fill:#dae9fb;}.cls-5{fill:#95c542;}.cls-6{fill:#f6ca85;}.cls-7{fill:#c17742;}.cls-8{fill:#f6ca86;}.cls-9{fill:#d88954;}.cls-10{fill:#fbd158;}.cls-11{fill:#fee9ba;}.cls-12{fill:#e84442;}.cls-13{fill:#fe949a;}.cls-14{fill:#ce3636;}.cls-15{fill:#feda97;}</style></defs><g id="Layer_2" data-name="Layer 2"><g id="ic-eastern"><path class="cls-1" d="M439.68,49.76c-.51,1.54.73,1.94,1.67,2.5a53.41,53.41,0,0,1,21.29,22.86,9.07,9.07,0,0,0,6.63,5.08c16,3.89,26.16,13.72,29.89,29.92.09.4.55.72.84,1.08v13.68c-1.49,1.07-1.33,2.87-1.82,4.34a37.65,37.65,0,0,1-20.71,23.24c-6.33,2.94-7.21,4.53-6.1,11.29,3,18.15-11.38,35.06-31,36.55-5.5,1.1-10.17.15-14.44-4.05-5.16-5.08-11.18-9.22-17.21-13.28-1.19-.8-2.47-1.57-2.92-3.1.6-4,3.92-6.23,6.23-9,12.94-15.63,25.81-31.31,38.76-46.93,4.41-5.32,3.7-8.84-2.57-11.88-17.83-8.63-35.15-18.26-52.92-27-2.12-1-4.68-1.68-5.51-4.42-.1-5,2.63-9.77.67-14.9-1-2.58-1.72-5.23-3.2-7.61-.92-1.47-2.27-2.87-1.54-4.89,4.11-4,9.27-6.05,14.66-7.23C413.81,43,427.06,43.38,439.68,49.76Z"/><path class="cls-2" d="M320.3,324.28c-8.22,7.29-16.39,14.64-24.68,21.85s-16.74,14.24-25.08,21.41Q252.9,382.72,235.31,398c-7.7,6.67-15.45,13.28-23,20.08a50.71,50.71,0,0,1-7.24,5.68c-2.81.44-3.95-1.94-5.47-3.44-13.06-12.94-26-26-39.05-38.94-24.39-24.55-48.95-48.94-73.38-73.45-1.59-1.6-3.43-3-4.49-5.09a2.84,2.84,0,0,1,0-1.39c9-10.85,18.39-21.42,27.64-32.09q20.73-23.92,41.4-47.91c9.09-10.59,18.48-20.93,27.42-31.66a8.57,8.57,0,0,1,3.4-2.72c2.83,0,4.16,2.32,5.82,4q44.84,44.7,89.58,89.49c12.84,13,25.85,25.83,38.72,38.8C318.07,320.78,320,322,320.3,324.28Z"/><path class="cls-3" d="M320.3,324.28c-14.56-14.15-29-28.38-43-43.12-.5-2.35,1.34-3.49,2.57-4.91,22.43-25.79,36.3-55.57,41-89.43,1.56-11.36,3.19-22.82,1.21-34.37-.35-2-.41-4.24.93-6.12,2.94-1.1,5.77-.08,8.59.54a224.48,224.48,0,0,1,31.32,9.23,259.81,259.81,0,0,1,32.84,15.65c3.53,2.59,8,4,10.56,7.85,8.48,6.12,17,12.18,24.73,19.29,2.75,2.52,6.27.54,9.31,1.41-1.75,1.47-4.13-.05-6,1.24.78,2.23,3.05,2.84,4.47,4.32,5.15,5.39,5.37,11.14-.16,16-13.92,12.37-28,24.52-42.1,36.72-6.48,5.62-13,11.14-19.57,16.7a4.78,4.78,0,0,1-2.61-2.06c-6.25-7.61-14.58-9.07-23.38-6.74-9.49,2.51-14.29,9.73-15.5,19.23-.71,5.6,1.54,10.49,4.81,14.93.95,1.28,2.37,2.26,2.62,4Q332,314.95,320.3,324.28Z"/><path class="cls-3" d="M161.21,380.64Q181,400.22,200.73,419.8c1.38,1.37,2.86,2.63,4.3,3.94-5.67,6.27-12.44,11.33-18.73,16.91-13.45,12-27.22,23.55-40.84,35.31-3.07,2.65-6.06,5.39-9.13,8-6.13,5.27-7.65,5.3-15.41.42A201.85,201.85,0,0,1,76.64,405c-.68-2.33-2.37-4.85,0-7.29,6.74-1.8,13.58-.42,20.36-.56a129,129,0,0,0,56.57-14.52C155.88,381.4,158.15,379.33,161.21,380.64Z"/><path class="cls-3" d="M163.79,167.89c3.65-6.19,8.91-11.1,13.52-16.5,20.55-24.07,41.34-47.95,62.05-71.89q12.9-14.93,25.86-29.8c4.51-5.15,7.62-5.26,16.92-1,4,5,9.47,9,11,15.66-8.2,4.56-13.05,12.48-19,19.24-16.62,18.89-33,38-49.46,57q-17.07,19.66-34,39.45c-2.27,2.66-4.24,5.81-8,6.78-1.66.13-2.67-1-3.69-2q-6.74-6.59-13.31-13.31C164.69,170.58,163.55,169.57,163.79,167.89Z"/><path class="cls-4" d="M163.79,167.89l18.75,18.58c.31.18.42.37.34.58s-.18.33-.28.33Q168.5,203.67,154.4,220c-11.36,13.22-22.62,26.53-34,39.73-9.29,10.76-18.69,21.43-28.08,32.1-3,3.39-5.38,7.33-9.29,9.83a1.18,1.18,0,0,1-1.37.08C75.1,296,68.39,290.33,63.47,283q17.49-20.13,35-40.26c15.61-18.11,31-36.4,46.81-54.35C151.32,181.45,156.79,174,163.79,167.89Z"/><path class="cls-5" d="M439.68,49.76c-5.12,1.07-9-2.78-13.89-3.34-13.49-1.56-26.45-1.19-38.24,6.62a6.61,6.61,0,0,1-1.83.55c-1.85.55-3-.81-4.37-1.6-4-2.31-8.08-4.13-12.81-4-3.5.13-5.47-1.28-5.6-5-.19-5.34-2.28-10.06-5.17-14.45-.8-2.2-3.7-3.3-3.28-6.15,3.74-12,11.36-19.81,24.08-22,8.18-1.39,15.83.52,21.79,6,5.12,4.68,9.31,5.77,15.94,2.83C427.51,4.25,439,8.9,445,19.49S448.85,42,439.68,49.76Z"/><path class="cls-6" d="M76.16,398.31c6.93,28.31,20.12,53.52,37.91,76.43,2.43,3.13,6.06,5.38,6.85,9.67C106.76,478,94,469.3,81.81,459.91a278.5,278.5,0,0,1-66-71.61c-4.35-6.84-8.76-13.65-12-21.12,1.17-2.88,2.49-.48,3.31.12,4.3,3.12,8.42,6.49,13.14,9a132.93,132.93,0,0,0,52.31,19.81C74,396.32,76,395.87,76.16,398.31Z"/><path class="cls-3" d="M19.43,376.88c-5.11-2.07-9.13-5.74-13.39-9.07-.65-.51-1.13-1.81-2.27-.63-5.26-8.1-5-9.35.79-16q29.55-34,58.91-68.17L83,301.65l.06.91c-.5,4.44-4.29,6.72-6.81,9.66-17.89,20.83-35.93,41.52-53.84,62.33C21.58,375.53,20.87,376.67,19.43,376.88Z"/><path class="cls-7" d="M354.49,22.4l3.84,4.79c-5.95,4.51-11.66,9.2-15.28,16-1,1.93-3.37,2.36-5.42,3C320.8,51,310.24,61.47,307.5,79.19c-.28,1.8-.31,4-2.5,4.93-3-1-3.53-4.06-4.77-6.36-2.41-4.49-6.45-8.1-7.31-13.43-2-4-5.3-7.15-8-10.71-1.12-1.48-2.76-2.74-2.81-4.87A39.67,39.67,0,0,1,303.45,36a9.58,9.58,0,0,0,6.54-4.5c10.38-16.75,26.56-20.35,43.19-9.74A12,12,0,0,0,354.49,22.4Z"/><path class="cls-8" d="M342.91,304.69c-7.68-6-10.42-14.52-7.62-24.11,2.88-9.83,9.38-14.55,17.76-15.85,9.82-1.52,18.79.66,23.92,10.59Z"/><path class="cls-9" d="M304.91,83.82c1.81-3.2,1.43-6.9,2.41-10.3C311.76,58.25,322.09,49.1,337.1,45c3.08-.84,5.08-2.1,6.67-4.92,3.32-5.91,7.81-10.74,14.56-12.89,3.56,4.8,5.93,10.06,5.89,16.13,0,2.47.76,3.61,3.36,3.4,7.11-.57,12.85,2.6,18.14,6.87,6.68,8.28,8.46,17.38,4.6,27.43-3.44,10.64-12.2,13.53-21.9,15.09-6-2.06-11.72-4.58-18-5.82-10.36-2-20.3-1-30.2,2.27-3.06,1-5.93,2.69-9.26,2.82A12.36,12.36,0,0,1,304.91,83.82Z"/><path class="cls-10" d="M369.15,95.53c1.46-1.52,3.57-1.38,5.37-1.81,7.32-1.77,11.86-6.82,15.8-12.7l55,28.17c1.45.74,2.92,1.43,4.36,2.18,6.06,3.16,7,7.16,2.78,12.53-4.83,6.09-9.89,12-14.85,18L406.29,179.6l-10.77-6.75a8.69,8.69,0,0,1,.43-4.29c4-11.13,3.8-22.48,1.79-33.93-3.44-14.78-11.83-26.15-24.06-34.89C372,98.54,369.85,97.8,369.15,95.53Z"/><path class="cls-11" d="M304.91,83.82c1.73,3.66,3.11,7.51,5.53,10.82,3.44,3.92,4.29,9,5.95,13.68a84,84,0,0,1,3.5,11.61A156.93,156.93,0,0,1,324,141.32c.2,1.75.72,3.54-.71,5.06-.35,4.07.83,8.07.86,12.08a187.31,187.31,0,0,1-3.93,40.48A173.85,173.85,0,0,1,288,268.56c-3.33,4.37-7.1,8.41-10.66,12.6-1.33-1.18-2.72-2.3-4-3.55q-43.21-43.17-86.41-86.37c-1.36-1.36-2.88-2.58-4.33-3.86,0-.31,0-.61-.06-.91,8-6.24,13.42-14.84,20.25-22.17,7.59-8.14,14.58-16.85,21.84-25.3q14.37-16.74,28.75-33.45c9.43-10.87,19-21.65,28.39-32.51,3.16-3.64,5.75-8,11.15-8.71C297.57,70.42,301.15,77.17,304.91,83.82Z"/><path class="cls-11" d="M19.43,376.88c7.13-9.83,15.6-18.52,23.43-27.75,11.49-13.54,23.13-27,34.71-40.42,1.8-2.09,3.67-4.1,5.5-6.15C90,309.38,97,316.14,103.88,323q28.71,28.75,57.33,57.61c-8.3,3.19-15.91,7.93-24.41,10.76a129.49,129.49,0,0,1-48.48,7c-4-.22-8.11-.06-12.16-.08-4.67-1-9.37-1.85-14-3C46.84,391.69,32.3,386.22,19.43,376.88Z"/><path class="cls-12" d="M398.53,133.56c3.51,13.44,2.94,26.57-3,39.29C385,167.08,374.14,162,363.16,157.17c-.87-2.66.51-5.09.9-7.59,2.71-17.71-10-32.87-27.95-33.19-2.06,0-4.24.34-6.07-1.09,0-2.75,2.36-2.8,4-3.21,21.74-5.2,41.06-.66,57.67,14.54C394.14,128.81,396.3,131.23,398.53,133.56Z"/><path class="cls-13" d="M330.07,115.06c9.87-.66,19,.74,26.45,8.23,9.39,9.46,11.85,21.41,6.64,33.88-10.81-3.08-21.4-6.88-32.43-9.19-2.49-.53-5.21-.12-7.49-1.6a204,204,0,0,0-4.73-26.56C321.65,116.49,325.15,114.07,330.07,115.06Z"/><path class="cls-8" d="M400.36,211.52c-.12,3.86-4.23,7.89-7.93,7.79s-7.75-4.36-7.54-8.15C385.07,208,389.6,204,393,204A7.56,7.56,0,0,1,400.36,211.52Z"/><path class="cls-8" d="M361.32,222.78a7.49,7.49,0,0,1-7.6,7.55,7.62,7.62,0,0,1-7.05-7.78c0-3.2,4.37-7.71,7.44-7.7C358.25,214.86,361.38,218.31,361.32,222.78Z"/><path class="cls-8" d="M118.13,451.42c.06-4.78,2.45-7.16,7.23-7.18a7.33,7.33,0,1,1-.28,14.65C120.36,458.75,118.08,456.3,118.13,451.42Z"/><path class="cls-8" d="M161.11,421.37a7.19,7.19,0,0,1-6.88,7.24,7.5,7.5,0,0,1-7.77-7.46c0-4.93,2.61-7.33,7.68-7.19C158.86,414.09,161.16,416.54,161.11,421.37Z"/><path class="cls-14" d="M330.07,115.06c-4.12,1-7.78,3-11.56,4.76l-8.07-25.18c8.48-3.11,16.95-6.47,26.1-6.78a62.38,62.38,0,0,1,32.61,7.67c15,8.66,25.37,20.89,29.38,38-2.85.6-3.68-2-5-3.45-12.61-13.69-28.6-19.06-46.68-18.78C341.16,111.42,335.28,112.11,330.07,115.06Z"/><path class="cls-3" d="M258.1,156.14c-8.53,0-14.88-6.17-15-14.49s7.26-16,15.33-15.76,15,7.44,14.94,15.67C273.38,150.21,267.13,156.16,258.1,156.14Z"/><path class="cls-15" d="M229.73,183.5a7.56,7.56,0,0,1,7.55,7.28,7.35,7.35,0,1,1-14.65.93A7.65,7.65,0,0,1,229.73,183.5Z"/><path class="cls-15" d="M292,204c-.15,4.59-3.53,8-7.61,7.66a7.66,7.66,0,0,1-7-7.87A7.33,7.33,0,1,1,292,204Z"/><path class="cls-15" d="M75.07,335.48c-.38,3.82-4.75,7.54-8.34,7.09s-7.18-4.85-6.83-8.25c.36-3.68,4.56-7.5,7.91-7.2C71.59,327.45,75.42,331.87,75.07,335.48Z"/></g></g></svg>