<svg xmlns="http://www.w3.org/2000/svg" viewBox="0 0 499.34 500"><defs><style>.cls-1{fill:#e5e5e5;}.cls-2{fill:#3ea6fe;}.cls-3{fill:#2b7cd3;}.cls-4{fill:#cbcbcb;}.cls-5{fill:#b2b2b2;}.cls-6{fill:#cfd9e4;}.cls-7{fill:#c4daed;}.cls-8{fill:#bfd2e6;}.cls-9{fill:#c3d2e3;}.cls-10{fill:#cbd2d8;}.cls-11{fill:#dbdfe4;}.cls-12{fill:#c4dcf0;}.cls-13{fill:#c9deef;}.cls-14{fill:#c4ddf2;}.cls-15{fill:#c8d7e8;}.cls-16{fill:#c4d4e7;}.cls-17{fill:#c9deee;}.cls-18{fill:#609ada;}.cls-19{fill:#a5c2e2;}.cls-20{fill:#d4e7f8;}.cls-21{fill:#cadff0;}.cls-22{fill:#c5dcef;}.cls-23{fill:#114f91;}.cls-24{fill:#cdcdcd;}.cls-25{fill:#d2d2d2;}.cls-26{fill:#7f8080;}.cls-27{fill:#e4e4e4;}</style></defs><g id="Layer_2" data-name="Layer 2"><g id="ic-fish"><path class="cls-1" d="M436,408.48a97.19,97.19,0,0,1-60.07,29.95,25.56,25.56,0,0,0-3.61.94,19.62,19.62,0,0,0-9.57.07l-3.36,0c-3.43-1.09-7-.2-10.43-.49a5.37,5.37,0,0,1-1.59-.23c-2.66-.4-5.36-.48-8-1.06a67.63,67.63,0,0,1-16.77-5.41c-1.95-.89-3.91-1.82-4.91-3.93-1.33-5.28-.69-10.66-.61-16,.07-4.42-1.71-6.34-6-7.19-17.68-3.51-35.43-6.71-53-10.69-13.27-3.9-24.14-12.46-36.12-18.85-2.83-1.52-5.52-3.35-8.24-5.08-14.21-9.43-28.33-19-41.12-30.35a10.71,10.71,0,0,0-3.16-2,10.49,10.49,0,0,1-5-5.63c-8.78-8.87-17.65-17.65-26.32-26.64-16-16.62-29.68-35.11-42.27-54.42a5.29,5.29,0,0,1-.42-1.54c2-2.12,4.69-1.49,7.12-1.5,14.71,0,29.41.22,44-2a180.82,180.82,0,0,0,88.78-39.89,155,155,0,0,0,21.75-21.57c1.54-1.88,2.86-4.25,5.66-4.68,2,.18,3.16,1.61,4.38,2.89,9.44,9.84,19.33,19.22,28.56,29.29q19.3,21,37.45,43A932.23,932.23,0,0,1,404.8,355C415.74,372.51,426.52,390.11,436,408.48Z"/><path class="cls-2" d="M436,408.48c-2.37-.47-2.71-2.7-3.62-4.35A983.65,983.65,0,0,0,314.91,235.81q-24.72-28.5-51.58-55a3.06,3.06,0,0,1-.47-1.62c.3-2.45,2-4.17,3.3-6a178.21,178.21,0,0,0,32.41-82.67c.5-4-.84-8.38,2.63-11.69C322.45,94,341,112.09,358.49,131.37c12.77,14.1,23.93,29.45,34.71,45.09,3.23,2.18,5.06,5.52,6.94,8.73,16.17,27.6,31.71,55.57,47.72,83.26a40.39,40.39,0,0,1,3.13,7.36c4.91,10.32,10,20.59,11.94,32C469.34,345.49,463,379.75,436,408.48Z"/><path class="cls-1" d="M37.3,89.29,36.24,86a8.73,8.73,0,0,0,0-6.38l-1-3.36a19.78,19.78,0,0,0-.07-9.58l0-3.28c-1-1.71-.31-3.57-.51-5.35,0-2.65,0-5.3,0-7.94,1.46-2.68,3.7-1.54,5.62-.94,26.78,8.39,44.42,26,53.06,52.71.16.51.27,1,.4,1.56,2.08,8,5.76,9.64,13.59,6.45,3.3-1.35,2.11-3.78,1.63-5.89A90.71,90.71,0,0,0,87.51,62.31,92.47,92.47,0,0,0,39.14,33.78c-1.78-.41-4.18-.11-4.57-2.86.06-9.41-.08-18.81.07-28.2,2.79-3,4.85-.29,6.84,1.09,11.5,8,22.65,16.38,33.93,24.63C107.53,51.93,139.9,75.06,171.69,99c10.74,8.09,21.07,16.69,31.45,25.22,1.39,1.14,2.87,2.21,3.11,4.2-1,6.23-5.27,10.57-9.33,14.72-11.2,11.45-24.55,19.07-40.75,21-1.43.17-2.82.62-4.25.69-3.46.18-4.39,2.11-4.48,5.33-.28,9.63-.28,9.67,9.28,8.45,24.46-3.1,43.75-14.87,58.3-34.63,1.27-1.73,2.39-3.65,4.89-3.81,4.39.75,6.73,4.51,9.71,7.1,5.89,5.1,11.74,10.28,17.32,15.74,1.63,1.59,3.45,3.15,3.47,5.76-.71,3.56-3.37,5.91-5.57,8.42-27.6,31.31-62.2,49.73-103.46,55.52-17.29,2.42-34.74,1.21-52.13,1.33a7.57,7.57,0,0,1-4.55-1.41c-4.72-8-9-16.19-13-24.57-11.95-24.84-20.59-50.8-27.27-77.47-2.33-9.31-4.47-18.69-5-28.34-1.25-1.61.21-3.74-1-5.35l-1-2.28A6.23,6.23,0,0,0,37.3,89.29Z"/><path class="cls-2" d="M249.67,167.75c-9.25-9.5-19.21-18.22-29.28-26.82a2.22,2.22,0,0,1-1.25-2.84,97.65,97.65,0,0,0,11.35-34.94c.83-6.22.22-7-5.78-7.06-7.52-.09-7.49-.08-8.72,7.23-1.47,8.82-3.06,17.6-9,24.81a1.44,1.44,0,0,1-1.6-.08C185.82,111,165.06,95.41,144.08,80.12Q91.55,41.84,39.06,3.51c-.86-.63-1.82-1.12-2.74-1.68-.58-.47-2.15-.49-.85-1.83,25.66,0,51.31-.1,76.87,2.92A387.58,387.58,0,0,1,253.86,48c10.38,5.67,20.64,11.55,30.19,18.59,2.35,3.82,1.59,8,1.27,12.07-2.31,28.9-10.68,55.82-26.64,80.19-2.15,3.27-4.11,6.74-7.4,9.12A1.34,1.34,0,0,1,249.67,167.75Z"/><path class="cls-3" d="M164.38,332.5c2.82.3,3,3.77,5.4,4.53,9.21,9.65,16.3,21.11,26,30.35,1,1,1.8,2.26.95,3.84a4.27,4.27,0,0,1-2.16,1.47c-19.15,2.29-38.39,3.52-57.55,5.63-6.5.72-6.4.86-6.58,7.67-.09,3.5.85,7.19-1.48,10.39L69,486.1c-.89,1.33-1.84,2.63-2.77,3.95-1.08.18-1.46-.52-1.72-1.37.65-5.86,4-10.72,6.37-15.84,10.48-22.43,21-44.83,31.31-67.34,3.63-7.93,5.82-16.21,4-25.07A38,38,0,0,0,99,360.64c-5.08-8.48-13.4-13.38-21.12-18.87-21.36-15.18-42.63-30.48-64-45.7-1.9-1.35-4.67-2.2-4.7-5.32,2.17-.56,3.75.79,5.46,1.71q46.3,24.92,92.57,49.9a11.75,11.75,0,0,0,9.08,1.3C132.32,339.78,148.37,336.2,164.38,332.5Z"/><path class="cls-1" d="M129,396.38c0-5.19,0-10.39-.12-15.58,0-2.21.24-3.62,3.06-3.85,21.21-1.75,42.4-3.66,63.6-5.51,2.57-1.3,4.47-.07,6.23,1.66,22.8,22.39,49.72,38.14,79.54,49.21,4.48,3.32,7.71,7.87,11.35,12,.95,1.07,3.75,3.59-.53,4.63-10.77,0-21.52,0-32.28,0-3.77.32-7.61-.67-11.33.6l-1.2.95c-14.66.9-28.06-3-40.56-10.48-6.85-4-12.12-10.05-18.42-14.79a67.79,67.79,0,0,0-35.37-16.44c-2.29-.36-4.54-.94-6.82-1.31C140.49,395.23,134.66,396.85,129,396.38Z"/><path class="cls-1" d="M451,275.81c-8.11-13.92-16.29-27.79-24.31-41.76-11.06-19.25-21.76-38.72-33.48-57.59,13.81,1.61,27.63,3.17,41.43,4.84,13.09,1.59,26.17,3.27,39.25,4.93,7.93,1,15.86,2.05,25.46,3.28-12.62,8.35-23.21,16.69-31,28-6.49-4.76-13.32-9-19.94-13.61-2.77-1.92-4.63-1.64-6.7,1.15-6,8.14-6.09,8,2.29,13.74,5.6,3.84,11.57,7.14,16.74,11.6C453.76,244.75,451.25,260,451,275.81Z"/><path class="cls-4" d="M249.67,167.75a7,7,0,0,0,1,.08c4.93,3.31,10.21,6.24,12.65,12.14,0,.29,0,.59,0,.88-5.57,3.75-8.83,9.65-13.44,14.32a184.09,184.09,0,0,1-70.48,44.65A175.51,175.51,0,0,1,136.66,249c-13.79,1.26-27.54.27-41.29,1-4.67-5.09-7.61-11.25-10.67-17.33,12.36,0,24.73.23,37.09,0,37.8-.87,71.75-12.54,101.29-36.47a183.62,183.62,0,0,0,25.28-25.44A11.86,11.86,0,0,0,249.67,167.75Z"/><path class="cls-1" d="M107.38,380.16c2.12,9.76-.49,18.79-4.53,27.51Q85,446.13,67.05,484.5c-.68,1.45-1.26,2.95-1.88,4.43a8.81,8.81,0,0,1-2,4.25c0,1-.2,1.88-1.23,2.33s-1.43-.37-1.95-.95c.34-1.5.67-3,1-4.49a15.37,15.37,0,0,0,.06-8.48,11.66,11.66,0,0,0,1-5.55,204.57,204.57,0,0,0,0-32.18c-.36-1.85-.71-3.69-1.07-5.53a11.71,11.71,0,0,0,0-7.4c-.25-1.82-1.58-3.63-.06-5.47-.56-2.63,1.54-3.84,3-5.29Q82.49,401.5,101.19,383C102.81,381.35,104.19,378.56,107.38,380.16Z"/><path class="cls-1" d="M9.24,290.75Q34.64,309.11,60,327.46c9.73,7,19.5,14,29.22,21a36.38,36.38,0,0,1,10.5,11.31c-.83,3.31-3.57,2.6-5.63,2.3-17.56-2.52-35.19-4.64-52.67-7.67-2.42-4.92-4.9-9.81-7.24-14.76A259.16,259.16,0,0,0,0,285.72C4.11,287.32,7.19,288,9.24,290.75Z"/><path class="cls-4" d="M41.46,354.39c3.38-2.95,6.93-.23,10.17.15,13.89,1.63,27.68,4,41.53,6,2.2.32,4.6,1.09,6.6-.78a33,33,0,0,1,7.62,20.4c-.82.29-1.87.35-2.43.91-14.69,14.76-29.86,29.06-44,44.39-2.69-6.93-2.78-14.36-4.24-21.53.66-2.6,2.71-4.17,4.46-5.94,6.42-6.49,12.94-12.87,20-20.14-8.69-2-16.66-2.56-24.5-3.86-3-.5-6.12-.43-8.69-2.41Z"/><path class="cls-5" d="M293.82,438.37c-3.39-5.84-8.69-10-13-15.07-5.15-2.85-8.27-7.82-12-12-4.38-4.9-9.3-9.38-12.92-14.94-1.59-2.44-1.48-2.51,1.28-3.29l58.05,11.34c2.49.49,3.45,1.82,3.39,4.47-.17,6.6,0,13.21,0,19.82a9.35,9.35,0,0,1,1.4,5.92,11,11,0,0,1-.43,3.47,9.46,9.46,0,0,1-.9,1.5V465l-23.73-25.63A1.83,1.83,0,0,1,293.82,438.37Z"/><path class="cls-3" d="M263.34,180l-12.65-12.14a164.59,164.59,0,0,0,27.88-57.37,161.67,161.67,0,0,0,5.48-43.84,90.2,90.2,0,0,1,17.15,12.2c-1.59,15-3.52,30-8.29,44.48a180.53,180.53,0,0,1-27,52.59C264.93,177.17,264.19,178.6,263.34,180Z"/><path class="cls-4" d="M35.12,32.07c14.72,1.4,27.52,7.79,39.12,16.3a90.8,90.8,0,0,1,32.05,42.08,102.15,102.15,0,0,1,4.72,17c.13.69.53,1.78.24,2-4.12,3.45-9.46,2.06-14.16,3.36-2.78.77-3.14-2.11-3.45-3.82C90.4,91.54,81.42,77.52,68.32,65.87a70.34,70.34,0,0,0-33.2-16.48c-.38.51-.71.51-1-.08q0-8.58,0-17.16C34.41,31.63,34.74,31.58,35.12,32.07Z"/><path class="cls-4" d="M206.55,428.63c12.12,6.65,24.95,10.78,38.91,10.92.6,0,1.2.6,1.81.91C223.85,448.24,200.4,456,177,463.87c-3.75,1.28-5.65,1.17-6.95-3.17-2.27-7.52-5.25-14.82-7.93-22.21.59-1.82,2.16-2.31,3.75-2.64q18.15-3.78,36.36-7.29C203.69,428.29,205.12,428.8,206.55,428.63Z"/><path class="cls-5" d="M206.55,428.63c-9.74,3.27-20,4.17-29.93,6.57-4.81,1.16-9.83,1.36-14.47,3.29-2.71-5.18-4.44-10.73-6.27-16.25a2.71,2.71,0,0,1,1.75-1.91c10.45-2.27,20.75-5.46,31.57-5.68Z"/><path class="cls-4" d="M189.2,414.65c-9.7,3.25-19.9,4.2-29.81,6.51-1.19.28-2.34.72-3.51,1.08l-9.78-24.8c2.53-2.6,5.19-.25,7.56.14C167.1,399.81,179.4,404.7,189.2,414.65Z"/><path class="cls-1" d="M48,371.58q16.65,2.18,33.29,4.35c3.06.41,1.88,1.95.64,3.18q-12.58,12.45-25.25,24.82a239.68,239.68,0,0,0-6.94-26.41C49.14,375.61,47.31,373.91,48,371.58Z"/><path class="cls-4" d="M460.77,230.43c-9-3.68-16.24-10.26-24.4-15.32-.43-.26-1-.91-.95-1.22,1.3-4.92,4.56-8.77,7.71-12.48,2.11-2.48,4.14.4,5.94,1.57,5.4,3.5,10.7,7.14,16.08,10.66,1.51,1,3.19,1.74,3.23,3.91Z"/><path class="cls-6" d="M293.82,438.37l1.06,1-35.63.06c-.36-.22-.48-.45-.36-.67s.23-.35.35-.35Z"/><path class="cls-7" d="M35.12,32.07c-.34,0-.67.06-1,.08,0-9.33-.09-18.67,0-28,0-1.47-.74-3.35,1.41-4.15l.85,1.83c-1.88,1.51-1.18,3.63-1.19,5.52C35.07,15.59,35.11,23.83,35.12,32.07Z"/><path class="cls-8" d="M62.09,443.86c2.24,6.79.73,13.78.91,20.67.1,3.8,1.28,7.84-.92,11.51Q62.1,459.95,62.09,443.86Z"/><path class="cls-9" d="M318.61,439.56c0-.4,0-.81,0-1.21,5.85-3,12-1,18.06-1.2,3.66.38,7.36.35,11,1.23h0c.35.23.46.45.34.67s-.23.33-.35.33Z"/><path class="cls-10" d="M347.6,439.38c0-.33,0-.67,0-1,3.9.54,8-1.13,11.76,1Z"/><path class="cls-11" d="M259.24,438.39c0,.34,0,.68,0,1l-10.78.1C251.86,437.21,255.67,438.9,259.24,438.39Z"/><path class="cls-12" d="M362.73,439.44a10.14,10.14,0,0,1,9.57-.07Z"/><path class="cls-13" d="M35.13,66.65a10.16,10.16,0,0,1,.07,9.58C35.18,73,35.15,69.84,35.13,66.65Z"/><path class="cls-14" d="M34.12,49.31l1,.08c0,2.86,0,5.73,0,8.6-.34.5-.67.49-1,0C34.09,55.08,34.11,52.2,34.12,49.31Z"/><path class="cls-15" d="M61.06,481.59a8,8,0,0,1-.06,8.48Z"/><path class="cls-16" d="M61,430.93a6.42,6.42,0,0,1,0,7.4Z"/><path class="cls-17" d="M36.21,79.59a4.91,4.91,0,0,1,0,6.39Z"/><path class="cls-18" d="M63.17,493.18a6.94,6.94,0,0,1,2-4.25l1.07,1.12C65.77,491.63,65,492.89,63.17,493.18Z"/><path class="cls-19" d="M60,494.56l1.95.95L60,500Z"/><path class="cls-20" d="M34.08,58c.33,0,.67,0,1,0,0,1.79,0,3.59,0,5.38C33.34,61.84,34.23,59.81,34.08,58Z"/><path class="cls-21" d="M38.37,96.84c1.77,1.51.78,3.55,1,5.35C37.62,100.69,38.55,98.66,38.37,96.84Z"/><path class="cls-22" d="M37.3,89.29a3.62,3.62,0,0,1,0,5.27C37.33,92.8,37.31,91.05,37.3,89.29Z"/><path class="cls-5" d="M247.46,263.74l69.94,62.53c-5.52,3.42-11.25,2.13-16.5,2.91A226.41,226.41,0,0,1,271,331.61c-22.71.3-43.39-15.75-49.3-37.63-1.16-4.3-2.27-8.62-3.4-12.94-.33-2,1.43-2.36,2.63-2.78,8.38-3,15.69-7.8,22.66-13.22C244.7,264.19,245.82,263.11,247.46,263.74Z"/><path class="cls-4" d="M247.46,263.74A104.32,104.32,0,0,1,218.32,281c-8,.83-15.62,3.55-23.8,3.39-4.28-.08-6-1.32-5.33-5.53a10.8,10.8,0,0,0,0-1.61c0-9.73,0-9.37,9.61-10.33,22.81-2.26,39.32-14.11,49.93-34.21,1.38-2.6,2.3-3.72,5-1.94a9.25,9.25,0,0,0,2,.74c11.67,4.4,11.54,4.37,4.89,15.32C256.86,253,252,258.24,247.46,263.74Z"/><path class="cls-4" d="M257.13,393c-2.34.35-1.42,1.31-.49,2.38q6.84,7.86,13.66,15.76l10.49,12.12A218.13,218.13,0,0,1,211.72,384a150.07,150.07,0,0,1-11.06-10.16,7,7,0,0,0-5.17-2.41l1.3-.93c5.45-2.53,11-3.42,16.8-1.19,10.68,6.1,21.44,12.08,32,18.39A93.11,93.11,0,0,0,257.13,393Z"/><path class="cls-23" d="M213.59,369.32l-16.8,1.19a348.94,348.94,0,0,1-25.41-30.22c-.77-1-1.65-1.89-1.6-3.26,9.24,7,18.43,14,27.72,20.86C202.78,361.81,208.22,365.51,213.59,369.32Z"/><path class="cls-24" d="M318.56,435.2c0-2.18,0-4.35,0-6.53,6.83,3.49,13.82,6.5,21.49,7.6-.22,2.58-2.27,1.14-3.47,1.56C330.47,437.6,324.25,438.24,318.56,435.2Z"/><path class="cls-25" d="M336.81,437.32c1.17-.06,2.44.2,3.22-1.05,2.43,1,5.35.35,7.58,2.11H336.82c-.35-.23-.46-.46-.35-.7S336.69,437.32,336.81,437.32Z"/><path class="cls-4" d="M205.4,128.05c.34,0,.69,0,1,.06,5.5,2.17,9.48,6.13,12.8,10.87.39.65.78,1.3,1.16,2-4.94,2.07-6.58,7.24-9.81,10.86a88.11,88.11,0,0,1-31.49,22.5c-8.4,3.63-17.38,5.24-26.4,6.48-5.87.8-6.56.15-6.6-5.62-.07-11.63.08-10.76,11.87-12.82C179.05,158.64,195.69,147.92,205.4,128.05Z"/><path class="cls-3" d="M219.23,139l-12.8-10.87a71.86,71.86,0,0,0,8.63-30.05c.06-1.22-.17-3,1.35-3.1,4.8-.24,9.63-.19,14.43,0,1.3,0,1.49,1.45,1.41,2.51C231.16,112.29,228.47,126.67,219.23,139Z"/><path class="cls-26" d="M154.68,55.94a12.9,12.9,0,1,1-25.8-.47,12.9,12.9,0,0,1,25.8.47Z"/><path class="cls-27" d="M336.81,437.32c0,.35,0,.71,0,1.06l-18.23,0,0-3.15C324.76,434.91,330.56,438.07,336.81,437.32Z"/></g></g></svg>