<svg xmlns="http://www.w3.org/2000/svg" viewBox="0 0 500 464.56"><defs><style>.cls-1{fill:#a46021;}.cls-2{fill:#8b4c17;}.cls-3{fill:#be6c0d;}.cls-4{fill:#da9b2e;}.cls-5{fill:#b86913;}.cls-6{fill:#b66811;}.cls-7{fill:#a05917;}</style></defs><g id="Layer_2" data-name="Layer 2"><g id="ic-indonesian"><path class="cls-1" d="M138.48,210.19l-3.52,12c2.08.2,2.3-1.92,3.72-2.23,3,3.6,2.54,6.79-1.73,7.8a11.77,11.77,0,0,0-7.12,5.14c-2.38,2.07-3.72,5.23-6.77,6.63-10.27,11.94-23.18,19.1-38.92,20.17-13.42.91-24.68-4.28-32.1-15.53-5.17-7.85-11.51-11.75-20.86-12.73C16.32,229.86,3.48,215.91,1,200c-.14-.94.09-2-1-2.54v-16.6c2.35-8.06,4.4-16.22,8.85-23.5,4.23-6.92,9-13.35,15.56-18.24,1.89,2,.89,4.25.69,6.47-1.31,14.74,1.4,28.11,12.82,38.69a32,32,0,0,0,18.7,8.65c8.48.89,14.55,4.81,19.1,11.8,5.49,8.43,13.13,14,23.19,15.51,12.47,1.91,23.81-1.46,34.32-8.13C134.83,211.08,136.25,209.5,138.48,210.19Z"/><path class="cls-1" d="M128.91,232.6c1.66-3.16,3.68-5.48,7.72-6,4.66-.58,3.07-3.91,2.05-6.69a24.75,24.75,0,0,1,7.79-6.82c1.47,1.58.58,3.39.46,5.11-.85,12.14.74,23.66,8.44,33.67a34.37,34.37,0,0,0,24.36,13.63c6.81.76,12.83,3.24,16.24,9.37,10.67,19.18,33.47,22.19,52,13.47,3.51-1.65,6.43-4.44,10.33-5.28,3,3.55-.61,6.71-.61,9.54,1.82-2.05,3.29-5.14,7.39-4.07,1.66,5.25.63,10.64.78,15.95.44,15.25,11.54,30,26,34.29a36.62,36.62,0,0,0,6.23,1.1c7.51.91,13.49,4.16,17.57,10.82,6.29,10.27,15.74,15.76,27.58,17,10.43,1.11,19.84-2.3,28.75-7.4,1.79-1,3.18-2.9,5.57-2.63-.25,4.85-2.35,9.17-3.94,13.64.28,2.92-1.66,5-2.69,7.48-2.43,3.53-4.53,7.3-7.79,10.19-7,6-13.65,12.35-22.31,16.16-19.11,8.4-40.86,5-52-13.92-3.46-5.85-8.78-8.62-15.58-9.4-18.77-2.13-31.83-16-34-35.64a64.8,64.8,0,0,1,.18-15.56c.64-4.95,2.23-9.69,3.51-14.71-4.27,3.64-8.31,7.43-13,10.33-10.94,6.72-22.55,10.55-35.59,7.91a34,34,0,0,1-23-15.76c-4.38-7.07-10.36-10.61-18.52-11.63-16.42-2.07-29-14.81-31.72-31.08-1.82-11-1.22-21.59,2.83-32a30.94,30.94,0,0,0,1-4.2A40,40,0,0,1,128.91,232.6Z"/><path class="cls-2" d="M305.76,199.42c-.7,3.54-3.19,6.16-4.87,9.58,3.89.2,6-3.45,9.36-3.92,1.58,1.61,1.63,1.62.9,4-1.84,5.91-3.26,11.87-3.24,18.13.06,17.08,8.2,29.67,24.15,35.74,7.8,3,12.46,8.1,15.3,15.74,5.19,13.92,17.69,22.45,32.56,23A54.25,54.25,0,0,0,399.56,299c3.07-1,3.12-.92,4.84,1.19-1.31,3.92-4,7.06-6,10.59-.1,3-2.67,4.43-4.31,6.43-3.24,2.92-5.85,6.65-10.3,8l-7.62,4.41c-1.82-.5-2.34-2.1-3-3.56-5.34-11.22-14-18.42-26.33-20.15-9.43-1.32-16-5.73-21.36-13.57-9.16-13.44-22.68-16.35-37.95-13.8-3.51.58-6.72,2.51-10.41,2.21-5.09-5.42-5.62-12.52-5.57-19.14.09-11.33,2.92-22.2,9.84-32-10.94,6.65-22.28,10.46-34.94,9-2.77-.56-4.94-2.36-7.34-3.68a38.51,38.51,0,0,0-12.84-4.22c-2.09-.34-4.74-.12-5.57-3-4.51-6.82-7.61-14.38-11.45-21.55a13.77,13.77,0,0,0-8.37-6.3c-22.31-6.89-31.09-27.6-25.64-51.05,1.89-8.16,6.46-15,10.09-22.37.63-2.53,3-3.69,4.45-5.54a30.5,30.5,0,0,0,4.7-5.13c1.06-1.38,2-2.94,3.85-3.35,3.59-.28,5.77-3.27,8.82-4.58,1.6-.69,2.87-2.13,4.78-2.09,1.48,2.17,0,4-.62,6-4.52,14.59-4.12,28.51,5.64,41.13a29.83,29.83,0,0,0,14.34,10.51c8.33,2.71,13.77,8,16.74,16.3,6.82,19,26.86,25.1,40.85,22.77,4.5-.74,9-1.37,13.25-3.06C303.29,198.85,304.57,198.37,305.76,199.42Z"/><path class="cls-3" d="M138.48,210.19c-6.56,4.55-13.39,8.8-21.23,10.44C101,224,85.46,222.81,72.31,202.38a17.17,17.17,0,0,0-12.91-7.77c-19.69-2.48-31.34-13.7-35.14-33.31-1.46-7.53-.24-14.8.15-22.19,13.81-11,29-16.48,46.57-10.7A30.91,30.91,0,0,1,88.29,142c4.44,7.47,10.68,11,19.15,12.4,18.19,3,30.26,16.37,32.23,34.55A59.18,59.18,0,0,1,138.48,210.19Z"/><path class="cls-2" d="M198.3,112.37l-3,4c-2.18,1.37-3.82,3.33-5.64,5.11s-3.33,3.92-6,4.55c-10.56,7.48-22.11,11.89-35.24,11.82-16.69-.1-30.14-9.11-36-24.7-2.4-6.4-5.87-11.41-12.65-13.67C77.66,92.14,69.38,71.64,74.6,49.86,79.23,30.59,90.81,16.3,108.42,7c1.75,2.05,1.8,2.07.45,6.05-2.88,8.46-4,17-2.24,25.92,2.53,12.88,9.92,22,21.92,26.67,8.36,3.29,13.53,8.56,16.86,16.9,7.36,18.39,26.74,26.69,47.49,21,2.35-.65,4.7-1.32,7-2.11,1.53-.51,3.13-1.14,4.53.35Z"/><path class="cls-1" d="M204.44,101.83c-6,.6-11.37,3.34-17.34,4.23-18.63,2.8-36.43-5.69-43.22-23.62C141,74.83,136.47,70.08,128.8,67.3,111.32,61,101.37,41.7,105,23.18c.86-4.32,2-8.48,3.29-12.65.33-1.08,1.66-2.31.1-3.5,17-10.27,39.8-9.17,53.25,2.54a32.82,32.82,0,0,1,10,14.75c2.42,7.59,7.29,12.22,14.7,14.91,20,7.28,26.64,25.65,24.17,44.34A49.57,49.57,0,0,1,204.44,101.83Z"/><path class="cls-3" d="M220.67,227.66c1,.51,2,1.43,3,1.47,8.58.29,15.78,4.16,22.8,8.57,4.54,2.11,7,6.1,9.27,10.29,5.08,9.5,6.12,19.73,5.25,30.27-.16,1.93-.48,3.9-2.29,5.15-10.93,8.28-23.24,12.27-36.88,10.61-9.65-1.18-18.21-5.44-23.53-13.87-5.1-8.08-11.24-12.68-21.25-13.77-15.07-1.64-27.59-15.24-30.48-30.64a60.43,60.43,0,0,1,0-22.63c10-8,21.52-12.2,34.3-11.4,12,.74,21.48,6.62,28.25,16.75C211.88,222.73,214.57,227.41,220.67,227.66Z"/><path class="cls-3" d="M277.26,280.39c16.22-6.28,31.62-6.35,45.25,6.13a28.07,28.07,0,0,1,4.79,6c4.17,6.77,9.82,10.5,18,11.6,14,1.87,24.22,9.37,29.59,22.8.36.9.87,1.74,1.31,2.61a53.14,53.14,0,0,1,1.41,28.13c-14.36,12.3-33.87,14.91-49.85,6.53a31.6,31.6,0,0,1-13-12.71,19.42,19.42,0,0,0-16.63-10.34c-15.39-.75-28.85-14.25-32.46-29.27-1.89-7.88-.53-15.86-1-23.79C267.55,283.45,271.88,281.07,277.26,280.39Z"/><path class="cls-1" d="M305.76,199.42a121.26,121.26,0,0,1-16.35,4.18c-17.16,2.78-36.4-5.72-42.63-23.56-2.74-7.84-7.81-12.6-15.49-15.43-13.72-5.05-20.75-15.45-23.44-29.6-2-10.39,1.07-19.77,4.05-29.31,11.38-5.56,23.29-7.12,35.51-3.8,11.71,3.18,20,10.7,24.18,22.14,2.74,7.52,7.24,12.64,15,15.36C305.32,146,313,163.73,311,181.83A47.79,47.79,0,0,1,305.76,199.42Z"/><path class="cls-1" d="M404.4,300.14c-1.42-2-2.84-.51-4.29,0-15.9,5.17-31,4.3-44.47-6.55a29,29,0,0,1-9.32-14c-2.52-8.08-7.55-13-15.61-15.79-18.38-6.29-26.32-25.39-23.75-43.56.72-5.16,3.39-9.85,3.29-15.16,10.67-5,21.71-7.17,33.49-4.78,13.19,2.68,22.43,10.23,27.12,22.67,3,7.92,7.81,12.87,15.79,15.81,17.59,6.46,26.94,24.79,23.32,44.43A59.08,59.08,0,0,1,404.4,300.14Z"/><path class="cls-3" d="M363.17,389c1.24-4.34,4.95-7.1,7-10.93,2.55-.44,4.3,1.29,6.15,2.46,35.31,22.31,70.83,44.27,106,66.77a56.71,56.71,0,0,0,13.6,6c.6,4.37-1.22,7.59-4.86,9.78-3.92,2.36-7.79,1.63-11.47-.68q-19-11.88-37.92-23.8Q404,415,366.26,391.29C365.18,390.61,364.2,389.77,363.17,389Z"/><path class="cls-3" d="M383.8,325.16l9.84-8.57c3-.3,4.19,2.2,5.82,3.83q44.09,43.95,88.06,88c2.77,2.77,5.46,5.58,9.36,6.83,1.91.62,3.05,1.88,2.31,4.09-3.52,7.47-10.22,9.12-16.54,4a44.71,44.71,0,0,1-3.51-3.38l-91.43-91.22C386.45,327.52,385.1,326.36,383.8,325.16Z"/><path class="cls-4" d="M499.19,419.35c-.25-1.11-.39-2.52-1.67-2.74-5.62-1-8.72-5.37-12.33-9q-43.83-43.69-87.58-87.48c-1.25-1.26-2.64-2.38-4-3.56l4.77-5.86q48.64,48.48,97.27,97C498.84,410.87,501.35,414.47,499.19,419.35Z"/><path class="cls-4" d="M495.92,453.33c-4.93.92-8.77-1.6-12.62-4q-55.79-35-111.56-70.12c-.55-.34-1.06-.74-1.59-1.11,1.16-2.25,2.33-4.49,3.5-6.74,11.26,8.25,23.38,15.15,35.15,22.6q39.92,25.24,80,50.27C492.23,446.39,495.6,448.67,495.92,453.33Z"/><path class="cls-5" d="M128.91,232.6c-.72,2.66-1.48,5.3-4,6.92l-1.85,0C125.07,237.24,126.11,234.17,128.91,232.6Z"/><path class="cls-6" d="M183.66,126.06l5.78-4.79c.34-.4.66-.41,1,0a16.15,16.15,0,0,1-5.13,5.11Z"/><path class="cls-7" d="M190.43,121.28h-1c1.6-2.06,2.94-4.42,5.87-4.87A15.27,15.27,0,0,1,190.43,121.28Z"/><path class="cls-4" d="M55.21,140.77c10.11.7,19.1,4,25.29,12.82,3.28,4.67,3,8.73-.84,11.53-3.33,2.44-7.14,1.18-10.64-3.37-5.3-6.91-10.23-7.21-21.13-5.74-2.21.3-4.28,1.55-6.48,2.07-3.83.9-7.31.21-9-3.75-1.49-3.54.4-7.61,4.24-9.23A56.84,56.84,0,0,1,55.21,140.77Z"/><path class="cls-2" d="M136,13.85c9.21-1,19.45,8.46,19.28,19C155.14,43.56,146,53,135.6,52.9s-19.17-9.38-19.47-19.71C115.85,23.43,125.41,12.36,136,13.85Z"/><path class="cls-4" d="M184.91,214.84c5.08-.3,11.47,2.56,16.92,8,2.93,2.94,3.17,6.1.93,9.16s-6.21,3.82-9.09,1.51c-10.38-8.3-19.46-4.81-28.53,2.19-4,3.08-8.15,2.7-10.76-.62-2.77-3.51-1.89-7.31,2.47-10.68C164.33,218.67,172.55,214.89,184.91,214.84Z"/><path class="cls-4" d="M302.88,288.67a26.48,26.48,0,0,1,17.89,7.93c2.61,2.59,3.8,5.72,1.15,9.12-2.79,3.57-6,4.33-9.67,1.45-8.42-6.58-16.58-4.93-24.83.06-1.66,1-3.15,2.31-4.83,3.28-3.55,2-6.83,1.88-9.46-1.63s-1.45-6.95,1.48-9.45C282.2,292.94,291,289.05,302.88,288.67Z"/><path class="cls-2" d="M240.33,154.48c-9.84-.34-19.13-7.73-19.21-19.81-.07-10.62,9.25-19.45,19.78-19.21s19.59,7.79,19.45,20C260.23,146.94,250.72,154.57,240.33,154.48Z"/><path class="cls-2" d="M358.4,233.8c0,11.29-8,19.17-19.2,19.36-12.14.21-19.63-9.49-19.65-19.26a19.66,19.66,0,0,1,19.34-19.83C351,214,359.46,224.38,358.4,233.8Z"/></g></g></svg>