<svg xmlns="http://www.w3.org/2000/svg" viewBox="0 0 498.43 421.57"><defs><style>.cls-1{fill:#e8dac7;}.cls-2{fill:#efe3d1;}.cls-3{fill:#e93942;}.cls-4{fill:#902c2c;}.cls-5{fill:#fb4e51;}.cls-6{fill:#912c2c;}.cls-7{fill:#e93a42;}.cls-8{fill:#f2e7d6;}</style></defs><g id="Layer_2" data-name="Layer 2"><g id="ic-meat"><path class="cls-1" d="M429.36,60.32A184.29,184.29,0,0,1,474.68,110a153.05,153.05,0,0,1,21.89,60.86c.33,2.48.36,5.1,1.86,7.31v27.26c-1.19,1.48.15,3.44-.92,5a198.69,198.69,0,0,1-9.1,44.31,271.59,271.59,0,0,1-18.19,43.17c-8.08,15.54-18.87,29.14-31.32,41.25-24.56,23.88-53.41,39.83-87.66,45.14-24.89,3.86-49.11.53-73-6.7-12.8-3.88-25-9-36-16.84A78.6,78.6,0,0,1,217,331.63c-.88-1.75-2.53-3.61-.69-5.77a6.11,6.11,0,0,1,3.72.75A185.13,185.13,0,0,0,270,339.81,162,162,0,0,0,289.16,341c7.54,1,14.71,3.65,22.37,4.49,21.69,2.37,42.27-1.26,62.26-9.59,8.3-3.46,15.79-8.26,23.34-13,4.55-2.79,8.33-6.57,12.49-9.87q42-40.1,49.5-97.65a128.51,128.51,0,0,0-3.64-51.94,12.78,12.78,0,0,1-.54-3.84,167.64,167.64,0,0,0-8.87-60.55,144,144,0,0,0-16.42-33.43C427.56,62.56,427.67,62.48,429.36,60.32Z"/><path class="cls-2" d="M497.51,210.37c.15-1.68-.7-3.55.92-5v4.86C498.12,210.3,497.81,210.33,497.51,210.37Z"/><path class="cls-2" d="M289.13,341.94c-6.06,1.28-12.18.09-18.08-.57a178.71,178.71,0,0,1-48.41-12.29c-2.23-.92-4.42-1.94-6.63-2.92-2.58-.53-2.75-2.94-3.52-4.76-4.82-11.38-7.62-23.4-10.84-35.27-3.44-12.69-7.36-25.19-13.05-37.08-9.83-20.59-24.63-36.64-43.9-48.81-15.48-9.76-32.47-16.13-49.31-22.87a339.08,339.08,0,0,1-32.8-14.71C40.42,150.92,26.87,133,23.62,108c-2.15-16.61-1.41-33,7.32-48.06C33,56.35,35.65,53.35,38,50.09c6.75-5.19,12.57-11.44,19.71-16.24,19.41-13.06,41.12-20.07,63.64-25C143.6,3.94,166.13,1.59,188.92.72c11.64-.45,23.31-1,34.89-.5,20.74,1,41.43,2.59,62.07,5.36a373.06,373.06,0,0,1,70.12,16c26.06,8.81,50.08,21.69,72.48,37.63a4.87,4.87,0,0,1,.88,1.15c-2.05,1.92.36,3,1.05,4a149.16,149.16,0,0,1,21.47,50,131.16,131.16,0,0,1,3.85,27.18c.12,6.06,1.75,12.09.1,18.16-3.51-2.82-3.81-7.31-5.44-11a156.58,156.58,0,0,0-14.88-27c-3.49-5.34-7.91-9.95-11.88-14.91a174,174,0,0,0-26.81-22.78C363.68,62,326.63,50.73,287.9,44.24a540.86,540.86,0,0,0-76.39-7c-31.67-.78-62.78,2.06-93.15,11.16C105,52.36,91.87,57.09,80.15,65A57.76,57.76,0,0,0,67.33,76.79c-3.42,4.76-6,9.86-6.61,15.82-.77,14.84,6.85,25.25,18,33.61C89.16,134,101.42,138,113.44,142.43c22.46,8.28,44,18.31,63.37,32.6,22.59,16.66,39.52,37.67,50.3,63.67,8.3,20,13.25,41,19.07,61.78,6.17,19.1,19.53,31.06,37.84,38.12C285.94,339.34,288.11,339.79,289.13,341.94Z"/><path class="cls-3" d="M189.49,248.34c8.32,15.92,12.12,33.36,16.94,50.46,2.62,9.31,5.17,18.67,9.58,27.36,7.63,18.74,21.26,31.84,39,40.74,18.79,9.42,38.85,14.61,59.76,16.71,44.12,4.42,82-9.84,115.24-38.2,15-12.83,27.18-28.11,37.64-44.8.67-1.07,1.06-2.42,2.53-2.76-8.43,20.7-20.43,39.25-34.52,56.47-23.09,28.22-51.13,49.57-86.26,60.57-29.91,9.36-59.54,9.49-88.72-3.45-16.06-7.12-31.55-15.05-45.12-26.4-15.89-13.31-26.18-30.21-32.6-49.72-5.42-16.44-9.54-33.32-16.43-49.26-1.54-3.56-3.21-7.06-4.81-10.58.37-1.68,1.57-2.79,2.71-3.94,6.87-6.87,13.72-13.76,20.63-20.59C186.32,249.74,187.36,248.09,189.49,248.34Z"/><path class="cls-3" d="M189.49,248.34l-27.73,27.14c-17.21-31.92-44.76-51.7-77.07-66.08-16-7.1-32-14-47.29-22.57C-4.29,163.32-8.52,111.57,11.9,79.9,19.16,68.64,27.53,58.47,38,50.09a3.15,3.15,0,0,1-.85,2.67c-14,18.05-15.33,38.55-11.43,60,4.62,25.42,21,41.13,43.24,51.92,17.92,8.68,36.88,14.88,55,23.12,21.54,9.8,40.7,22.7,54.72,42.19C182.84,235.74,186.8,241.68,189.49,248.34Z"/><path class="cls-3" d="M436.22,120.81c8.81,11.8,14.85,25,19.61,38.84,14.36,53.64.33,100.49-34.06,142.47a79.35,79.35,0,0,1-11.86,12.1c-11.58-7.24-18.21-18.06-22.25-30.76-2.36-7.4-4.49-14.87-7.05-22.21-.53-1.52-1-3.09-.33-4.73,3.94-5.94,8.5-11.43,12.3-17.48a161.51,161.51,0,0,0,24.47-74,125.45,125.45,0,0,0-2.65-37.2c-.51-2.29-1.65-4.75.75-6.77C422.16,119.64,429.19,120,436.22,120.81Z"/><path class="cls-4" d="M380.76,257c3.46,11.4,6.68,22.89,11.05,34A44.28,44.28,0,0,0,407,310.59c1.3,1,2.78,1.74,2.88,3.63-3.65,3.29-7.18,6.75-11.59,9.08-5-.82-8-4.62-11-8.06-5.61-6.41-9.39-13.95-12.25-21.92-2.79-7.77-5.21-15.67-7.89-23.47-6.24-20.66-13.33-41-23.71-60A116.88,116.88,0,0,0,317.56,178c-25.09-22-53.53-38.58-83.88-52.1-2.38-1.06-5.5-1.65-5.67-5.24,1.45-4,2.52-8.1,4.36-11.94,2.34-2,4.66-.69,6.81.25,15.88,7,31.56,14.39,46.18,23.78,4.1,2.62,7.22,2.52,11.48,0,23.15-13.43,48.29-21.15,74.69-24.93,12.67-1.82,25.38-3.26,38.22-3.12,4.85.4,9.94-1.35,14.53,1.53a83.42,83.42,0,0,1,11.94,14.56c-5,2-10.16.37-15.24.83-2.08.19-4.19.09-6.29.13-1.79,1.53-4,1.2-6.05,1.2a221.86,221.86,0,0,0-87.17,17.35c-3.59,1.52-7,3.33-10.53,5-2.48,1.2-2.7,2.38-.43,4.16,4.71,3.71,9.5,7.31,14.16,11.1,23.48,19.15,38.56,43.88,48.71,72,2.36,6.55,4.72,13.12,7.15,19.65C381.09,253.77,381.7,255.34,380.76,257Z"/><path class="cls-3" d="M368.12,269.5c2.58,7.48,5.11,15,7.74,22.42,4.46,12.61,11,23.74,22.46,31.38-13.63,10.54-29.14,17.14-45.75,21.06-21.31,5-42.53,4.54-63.44-2.42-9.66-3.67-19-7.89-26.93-14.74a53.53,53.53,0,0,1-16.86-26.42c.65-2.82.68-2.94,4-2.1a148.29,148.29,0,0,0,20,4c20.26,2.29,39.75-.85,58.6-8.21a118.18,118.18,0,0,0,37-22.89A7.57,7.57,0,0,1,368.12,269.5Z"/><path class="cls-5" d="M368.12,269.5c-5.41,7.52-13.27,12.08-20.9,16.78-22.38,13.81-46.92,19.58-73.07,18.33A101.51,101.51,0,0,1,249,300c-1.13-.35-3.12-2.33-3.7.8-3.23-11.32-6.34-22.67-9.72-33.93-7-23.23-15.73-45.56-31.5-64.53-14.41-17.34-32-30.53-51.66-41.29-17.09-9.38-35.42-15.82-53.53-22.8C85.47,133.05,73,126.38,65,113.57c-4.06-6.5-6.19-13.48-5.36-21.21,1.59-1.47,3.6-1.25,5.52-1.31,34.2-1.1,67.78,3.88,101.17,10.56a10.48,10.48,0,0,1,3.64,1.28c2.1,1.42,2.37,3.66,2.72,5.92,2,12.84,9.53,21.33,21.85,24.41,11.93,3,22.72,0,30.83-10,.83-1,1.39-2.71,3.31-2.17,1.43,3,4.62,3.3,7.16,4.46A366.49,366.49,0,0,1,309,169.08c23,17.79,38.43,40.69,48.29,67.78C361.24,247.65,365,258.46,368.12,269.5Z"/><path class="cls-5" d="M408.82,106c-25.46.61-50.46,4.12-74.81,11.81a163,163,0,0,0-37.52,16.81c-4.18,2.6-7,2.26-10.76-.16-15-9.61-31.06-17.3-47.36-24.44-1.7-.75-3.39-2-5.46-1-1.82-2.61-.61-5.63-1.06-8.44-2.17-13.35-9.85-21.71-22.62-25.11S186,76.71,177.82,86.74c-1.2,1.46-2,3.48-4.41,3.34-22.58-4.19-45.19-8.27-68.1-10.12-10.78-.87-21.58-1.76-32.42-1.61-2.36,0-4.91.5-6.87-1.5C73.2,66.16,83.9,60.15,95.3,55.28c25-10.65,51.08-16.29,78.1-18.45,30.84-2.47,61.48-.81,92.12,2.84C293,42.94,319.87,48.3,346,57.43c18.55,6.49,36.22,14.83,52.35,26.21a135,135,0,0,1,9.8,17.49C408.82,102.61,410.26,104.11,408.82,106Z"/><path class="cls-6" d="M66,76.85A408.88,408.88,0,0,1,127.89,81c15.6,2.2,31.32,4,46.51,8.6.46,5.3-1.36,10-4,14.38-20.15-4.3-40.49-7.32-61-9.69-16.58-1.91-33.16-1.77-49.76-1.9A25.87,25.87,0,0,1,66,76.85Z"/><path class="cls-7" d="M408.82,106c-2.44-7.3-6.8-13.63-10.36-20.36-.35-.67-1.13-1.22-.14-2a126.29,126.29,0,0,1,25.95,22.6Z"/><path class="cls-5" d="M380.76,257c-6.61-19.14-13.34-38.24-23.27-56-8.09-14.45-19-26.6-31.43-37.39-6.45-5.59-13.24-10.79-20.63-16.78C340,128.32,376.37,121,414.69,121.75c2.4,12.52,4.5,25.05,4,37.9A164.79,164.79,0,0,1,406.07,216c-5.91,14.31-14.13,27.2-23.45,39.45A9.94,9.94,0,0,1,380.76,257Z"/><path class="cls-8" d="M170.36,104c.49-5,2.46-9.65,4-14.38,12.86-20.26,37.77-22.36,52.46-4.24a28.47,28.47,0,0,1,6,23.6c-.55,4.32-2.33,8.21-4.23,12.06a31.41,31.41,0,0,1-54.79-3C171.71,113.47,171.63,108.59,170.36,104Z"/></g></g></svg>