<svg xmlns="http://www.w3.org/2000/svg" viewBox="0 0 500 449.89"><defs><style>.cls-1{fill:#e64133;}.cls-2{fill:#f9bd19;}.cls-3{fill:#f4861e;}.cls-4{fill:#d6e5e5;}.cls-5{fill:#ef4b37;}.cls-6{fill:#d6322d;}.cls-7{fill:#bd5000;}.cls-8{fill:#90b845;}.cls-9{fill:#4b8b41;}.cls-10{fill:#d6332e;}.cls-11{fill:#fe6955;}.cls-12{fill:#fe8773;}.cls-13{fill:#d6e4e4;}.cls-14{fill:#db752a;}.cls-15{fill:#db6e1e;}</style></defs><g id="Layer_2" data-name="Layer 2"><g id="ic-noodle"><path class="cls-1" d="M483.17,216.41c10.68,1,16.37,7.36,16.68,18,.73,25.11-1,49.87-10.36,73.51-23.22,58.28-65.82,93.54-127.09,106.25a94.71,94.71,0,0,1-24.8,2.3c-3.8-.23-4.74,1.13-4.47,4.67a116.34,116.34,0,0,1,.05,12c-.25,9.47-7.05,16.68-16.41,16.71q-66.88.18-133.78,0c-9.32,0-16.19-7.29-16.42-16.7-.1-4.16-.18-8.33,0-12.49.15-3-.44-4.16-3.87-4.26-37.8-1.08-71.74-13.16-101-37.18C26,349.85,5.72,312,.83,265.94c-1.1-10.39-.78-20.79-.81-31.2,0-10.77,5.64-16.88,16.57-18.2,5.18-2.85,10.76-1.11,16.16-1.44,1.57,0,3.15-.1,4.72,0,2.78-.09,5.57-.07,8.35,0,2.79-.11,5.59-.09,8.38,0q5.65-.18,11.31,0c2.86-.12,5.71-.09,8.57,0,6.09-.15,12.19-.18,18.28,0,2.86-.09,5.72-.13,8.58,0,3.78-.1,7.56-.12,11.34,0,2.83-.09,5.66-.11,8.49,0,2.86-.14,5.72-.09,8.58,0q10.23-.27,20.45,0,6.38-.21,12.74,0,12.42-.28,24.83,0c8.32-.18,16.65-.2,25,0,8.33-.18,16.66-.2,25,0,8.33-.18,16.66-.2,25,0,8.33-.18,16.66-.2,25,0,8.32-.18,16.65-.2,25,0q10.51-.27,21,0,24.85-.33,49.7,0,12.61-.27,25.21,0,24.9-.31,49.8,0c6.41-.25,12.82-.09,19.23-.09C479.32,215,481.41,215,483.17,216.41Z"/><path class="cls-2" d="M187.35,216.52l-25-.05c-2.61-5.89.14-11.15,2.23-16.32,1.89-4.67,5.33-8.47,8.57-12.3,6-7.15,6.21-11.47.26-18.79-3.39-4.17-6.9-8.22-9-13.25-.78-1.88-2-3.72-1.06-5.92-3.12-15.08,1.27-27.76,11.63-39,6-6.53,5.93-12.26-.19-18.85-11.33-12.19-15.12-26-10.4-42-.58-3.56,1.86-5.93,3.37-8.67,2.43-2.89,4.31-6.34,8-8A11.88,11.88,0,0,0,179.09,25c-.09-3.08,1.33-5.64,2.84-8.17,4.35-7.11,12.15-7.51,19.58-1a10.63,10.63,0,0,1,3.07,6.73c2,8.35-.81,15.72-4.86,22.74A60,60,0,0,1,193.17,54c-5.53,6.49-5.61,11.31-.43,18.15.94,1.25,2,2.4,3,3.59,12.38,14.53,13,34.56,1.46,49.85-1.46,1.94-3,3.78-4.53,5.7-4.95,6.41-5,10.9,0,17.3,3.73,4.77,7.78,9.31,9.94,15.12,5.25,14.16,3.34,27.3-6,39.16C193.25,207.24,189.86,211.56,187.35,216.52Z"/><path class="cls-3" d="M312.44,216.52H287.31c-2-3.86.57-6.64,2.45-9.42,2-3,4.66-5.58,6.68-8.63a36.11,36.11,0,0,0-1.63-42.72c-1.82-2.32-3.77-4.55-5.48-6.94-4.41-6.15-4.26-12.24.33-18.2,1.59-2.06,3.26-4.06,4.85-6.11,11.35-14.59,10.86-33.28-1.2-47.32-1-1.18-2.05-2.35-3-3.6-5.74-7.61-5.61-13.88.51-21.13,1.34-1.59,2.62-3.23,3.92-4.86a33.72,33.72,0,0,0,7.63-24.2,16,16,0,0,1,4.38-7.73c7.46-6.33,15.07-5.87,19.38,1.16,3.63,5.09,3.29,10.66,2,16.34,1.8,3.07-.57,5.48-1.25,8.16-1.82,3.32-3.36,6.88-7.14,8.57-1.66,2-3.45,3.9-5,6-3.44,4.86-3.41,10.16.1,14.94,1.83,2.51,4,4.79,5.91,7.24a37.55,37.55,0,0,1-.28,47.45c-.65.81-1.35,1.58-2,2.38-8.5,10.24-8.68,13.76-.09,23.79a43.3,43.3,0,0,1,10.77,24.22c2.75,5.91.17,11.4-1.55,16.86a31.85,31.85,0,0,1-6.64,11A56.5,56.5,0,0,0,312.44,216.52Z"/><path class="cls-4" d="M312.44,216.52c-.44-4.24,1.91-7.33,4.54-10.1,8.14-8.58,12.5-18.59,12.18-30.5,20-14,46.37-12.28,63.61,5.06,2.32,2.32,3.61,2,5.86-.09,15.47-14.52,33.54-18.51,53.1-10.47,20.12,8.26,30.42,24.19,31.44,46h-25c-1.69-1.75-1.63-4.16-2.32-6.26-3.43-10.32-12.67-17.3-22.94-17.2-10,.1-19.05,7.09-22.41,17.2-.7,2.11-.63,4.51-2.32,6.26h-25c-1.69-1.75-1.63-4.16-2.32-6.26-3.43-10.32-12.67-17.3-22.94-17.2-10,.1-19,7.09-22.41,17.2-.7,2.11-.63,4.51-2.32,6.26Z"/><path class="cls-5" d="M150.11,8.36c.45-5.64,3-8.16,8.31-8.34,1.38,0,2.77,0,4.16,0H491.87C500,0,500,0,499.6,8.36c-2.83,2.43-6.27,1.65-9.48,1.66q-82.77.08-165.53,0-82.5,0-165,0C156.38,10,152.94,10.8,150.11,8.36Z"/><path class="cls-6" d="M150.11,8.36H499.6c.44,8.31.44,8.31-7.71,8.31H332.37c-2.08,0-4.16.1-6.23.15-7.68-5.81-11.55-5.82-19.22,0a7.35,7.35,0,0,1-5.65,1,6.72,6.72,0,0,1-2.78-1.27c-5.9-4.65-11.23-1.75-16.56,1.24a14.67,14.67,0,0,1-5.68,0,6.81,6.81,0,0,1-2.76-1.29c-5.9-4.63-11.22-1.74-16.54,1.24a14.48,14.48,0,0,1-5.68.05,6.9,6.9,0,0,1-2.77-1.28c-5.9-4.64-11.22-1.75-16.54,1.23a14.53,14.53,0,0,1-5.69.05,7.09,7.09,0,0,1-2.78-1.29c-5.94-4.69-11.27-1.64-16.63,1.27a7.28,7.28,0,0,1-5.71-1c-7.5-5.79-11.6-5.78-19.22,0-7.58-.05-15.16,0-22.75-.17C153.43,16.55,151.05,14.29,150.11,8.36Z"/><path class="cls-7" d="M33.26,216.55H16.59c0-16.1,0-32.2.05-48.29.07-20.75,14.17-34.88,34.87-34.94,6.4,0,12.87-.45,19.19.3,16.89,2,28.93,15.91,29.22,33,0,2.08,0,4.16,0,6.23-2.79,2.15-5,.48-6.79-1.39a54.23,54.23,0,0,0-11.68-9.28c-3.73-8.06-10.09-11.43-18.85-10.81-3.28.22-6.58,0-9.87,0-12.17.1-17.84,5.72-18,17.77-.13,9,.31,18-.24,27-2.07,3.94-.91,7.86.13,11.79C34.55,210.9,35.48,214,33.26,216.55Z"/><path class="cls-4" d="M82.27,162.31c4.67.14,7.06,3.74,10,6.56,2.17,2.12,4,4.82,7.73,4a31.45,31.45,0,0,0,8.51-.82,7.92,7.92,0,0,1,8,1.82c3.14,2.22,2.89,5.84,3.26,8.94a10.93,10.93,0,0,0,7,9.43,32.13,32.13,0,0,1,3.71,1.86c6,3.6,7,6.63,3.89,12.8-1.64,3.22-2.73,6.76-5.21,9.53l-8.28.08c-2-1.87-1.62-4.5-2.17-6.8-5.89-25.07-31.61-36.62-53.92-23.89-9.18,5.24-14.6,13.55-16.94,23.89-.52,2.3-.2,4.93-2.16,6.8l-8.14,0c-2.71-2.52-2.88-6.18-4.21-9.32-1.25-3.39-3.08-6.78.12-10.12,1.27-2.48,3.55-3.7,6-4.7,4.37-1.82,7-4.84,7.32-9.75a24.88,24.88,0,0,1,.89-4.58c1.51-6.12,4.41-8.53,10.42-7.23,7.52,1.62,13.56.28,18.41-6C77.78,163.19,79.65,161.59,82.27,162.31Z"/><path class="cls-6" d="M319.72,49.89l6.07-8.3c2-1.68,4.51-1.61,6.93-1.61q80,0,160,0c2.39,0,4.9-.23,6.85,1.69C500,50,500,50,491.87,50Z"/><path class="cls-5" d="M499.6,41.68l-173.81-.09c.77-2.81,1.55-5.62,2.32-8.43q34,.09,68.1.17,47.84,0,95.67,0C500,33.34,500,33.34,499.6,41.68Z"/><path class="cls-8" d="M163.38,149.89c2.39,7.62,7.25,13.67,12.14,19.77,5.27,6.58,4.95,12.21-.86,18.51-7.42,8-12.42,17-12.29,28.3l-12.52,0c-1.73-1.81-1.58-4.12-1.59-6.33q-.09-18.58,0-37.18c0-2.24,0-4.51,1.6-6.37,0-1,0-2.07,0-3.11C150,151.71,151.53,150.12,163.38,149.89Z"/><path class="cls-9" d="M149.86,166.55q0,24.94,0,49.88h-20.7c.3-4.14,2.91-7.3,4.63-10.82,2.16-4.42,1.18-7.6-3.12-9.85A31.73,31.73,0,0,0,127,193.9c-5.44-1.94-8.41-5.49-8.62-11.5-.1-2.86-1.23-5.68-1.89-8.53,1.55-5.46,5.26-7.47,10.8-7.31C134.79,166.77,142.33,166.57,149.86,166.55Z"/><path class="cls-5" d="M175.8,33.44l-7,8.26c-6.23,2.3-12.45,2.68-18.68,0,.45-5.57,3-8.23,8.19-8.32C164.12,33.27,170,33.41,175.8,33.44Z"/><path class="cls-10" d="M150.1,41.68l18.68,0-4.36,8.37c-2.08,0-4.17.09-6.23-.12C153.26,49.45,150.23,47,150.1,41.68Z"/><path class="cls-2" d="M232,16.79c7.55-5.79,11.67-5.79,19.17,0,2.57,1.17,3.14,3.5,3.47,6,1.89,8.37-.91,15.75-5,22.75A77.07,77.07,0,0,1,242.3,55c-4.33,5.27-4.44,10.18-.63,15.72a58.53,58.53,0,0,0,3.91,4.86c12.63,14.78,13.18,34.91,1.36,50.32-1.37,1.79-2.83,3.51-4.21,5.29-5.12,6.62-5.1,11,.19,17.72,3.54,4.5,7.37,8.81,9.45,14.25,5,13,4.17,25.53-3.93,37.14-3.74,5.38-8.08,10.35-11.11,16.22H212.44c-1.7-1.72-1.23-3.8-1-5.87,1-8.67,5.5-15.54,10.93-22,7-8.35,7.08-12.8-.42-21.31C215,159.48,211.19,150.52,211,140c-.15-9.63,3.38-17.92,9.27-25.32,9.8-12.32,9.84-13.73.25-25.78-13.06-16.42-12.86-36.22.81-52.2,3.62-4.23,6.31-8.63,6.71-14.25C228.7,20.13,229.57,17.94,232,16.79Z"/><path class="cls-2" d="M281.94,16.79c7.55-5.79,11.67-5.79,19.17,0,2.64,1.3,3.18,3.31,2,5.91,2.4,7.81-.61,14.67-4.18,21.2-2,3.59-4.85,6.71-7.56,9.84-5,5.72-5.4,11.8-.73,17.83,5.5,7.1,11.13,13.84,12.72,23.32,2,11.83-.71,22.2-8.26,31-10.54,12.23-10,16.24-.16,28,12.77,15.29,12.18,36.16-1.58,51-3.14,3.37-5.72,6.93-6.06,11.71H262.42c-1.7-1.72-1.23-3.8-1-5.87,1-8.67,5.5-15.54,10.93-22,7-8.35,7.08-12.8-.42-21.31C265,159.48,261.17,150.52,261,140c-.15-9.63,3.38-17.92,9.27-25.32,9.8-12.32,9.84-13.73.25-25.78-13.06-16.42-12.86-36.22.81-52.2,3.62-4.23,6.31-8.63,6.71-14.25C278.68,20.13,279.55,17.94,281.94,16.79Z"/><path class="cls-3" d="M229.05,21.86c.58,6-1.92,10.61-5.92,14.86-14,14.92-14.5,35.34-1.44,51.26q2.13,2.61,4.21,5.24c4.36,5.5,4.28,11.66-.28,17-7.32,8.53-13.47,17.55-13.25,29.5.18,10.09,3.43,18.89,10.35,26.34,8.39,9,8.42,14.34.39,23.76-1.11,1.31-2.06,2.77-3.14,4.11a34.32,34.32,0,0,0-7.53,22.6H187.35c-.21-4.82,2.75-8.08,5.68-11.26,12.84-13.9,14.74-31.59,4.84-47.71a73.93,73.93,0,0,0-6.74-8.52c-4.88-5.81-5-12.12-.12-17.81,7.44-8.72,13.56-18,13.07-30.15-.39-9.71-3.56-18.22-10.23-25.38-6.85-7.35-8.24-12.49-4.47-19,2-3.39,5.06-6.12,7.32-9.37,5.13-7.4,8.75-15.28,6.46-24.66.84-2.24,1.11-4.86,3.8-5.9,7.67-5.78,11.56-5.78,19.18,0A4.75,4.75,0,0,1,229.05,21.86Z"/><path class="cls-3" d="M279,21.86c.58,6-1.92,10.61-5.92,14.86-14,14.92-14.5,35.34-1.44,51.26q2.13,2.61,4.21,5.24c4.36,5.5,4.28,11.66-.28,17-7.32,8.53-13.47,17.55-13.25,29.5.18,10.09,3.43,18.89,10.35,26.34,8.39,9,8.42,14.34.39,23.76-1.11,1.31-2.06,2.77-3.14,4.11a34.32,34.32,0,0,0-7.53,22.6H237.33A15.57,15.57,0,0,1,242,206.35c16-16.36,16.25-38.51.22-56.27-6.49-7.2-6.49-12.27-.48-19.65,6.9-8.45,12.66-17.3,12.33-28.86-.27-9.91-3.45-18.59-10.24-25.89s-8.26-13-4.25-19.44c2-3.19,5-5.78,7.11-8.89,5.14-7.39,8.76-15.27,6.46-24.65.84-2.24,1.11-4.86,3.8-5.9,7.67-5.78,11.56-5.78,19.18,0A4.75,4.75,0,0,1,279,21.86Z"/><path class="cls-11" d="M161,399.87c-32.82-1.45-62.31-12.18-87.9-32.72C46,345.42,28.42,317.48,20.35,283.57a157.18,157.18,0,0,1-3.72-41.69c.18-5.34,3.45-8.65,8.37-8.63s8.34,3.33,8.26,8.69c-.2,14.77,1.13,29.31,5.1,43.58,7.52,27,22.31,49.2,43.84,67.13a129.52,129.52,0,0,0,59.41,27.93,131.91,131.91,0,0,0,22.59,2.57c7.15.14,10.73,2.86,10.71,8.41s-3.6,8.3-10.77,8.31Z"/><path class="cls-2" d="M333.17,216.41c.82-14.18,11.31-24.69,24.74-24.79,13.73-.1,24.39,10.36,25.25,24.79Z"/><path class="cls-2" d="M408.14,216.41c.82-14.18,11.31-24.69,24.73-24.79,13.74-.1,24.4,10.36,25.26,24.79Z"/><path class="cls-12" d="M45.68,216.51c1.83-30.3,31.77-47,57.27-31.65,11.7,7,17.27,18.08,17.92,31.65h-8.56c-1.59-2-1.6-4.53-2.21-6.85a27.68,27.68,0,0,0-53.65,0c-.61,2.32-.62,4.85-2.21,6.85Z"/><path class="cls-4" d="M54.24,216.5a29,29,0,1,1,58.07,0l-11.12-.07c-1.78-1.23-1.6-3.33-2.22-5.06a16,16,0,0,0-15.69-11.12,16,16,0,0,0-15.7,11.12c-.62,1.73-.44,3.83-2.22,5.06Z"/><path class="cls-12" d="M65.36,216.43C66.21,205.64,73,198.85,83,198.77c10.36-.08,17.29,6.66,18.18,17.66l-8.61.11c-1.12-1.14-1.44-2.73-2.28-4a8.09,8.09,0,0,0-7.91-3.91,7.22,7.22,0,0,0-6.77,4.75A9.24,9.24,0,0,1,74,216.54Z"/><path class="cls-13" d="M74,216.54c.38-6.39,3.55-9.52,9.52-9.43,5.46.09,8.71,3.46,9.09,9.43Z"/><path class="cls-14" d="M33.33,207.21a20.66,20.66,0,0,1,4.21,9.32l-4.28,0Q33.29,211.87,33.33,207.21Z"/><path class="cls-15" d="M82.27,162.31a17.82,17.82,0,0,0-6.81,5.45c-3.78,5.14-8.69,6.07-14.63,4.9-9.65-1.91-11.75-1.06-12.22,8.4-.51,10.48-8.49,12.27-15.16,16-.05-10.4-.27-20.82-.1-31.22A16.17,16.17,0,0,1,49.4,150c5.9-.15,11.8-.14,17.7,0C74.82,150.15,80.75,155.07,82.27,162.31Z"/></g></g></svg>