<svg xmlns="http://www.w3.org/2000/svg" viewBox="0 0 500 423.06"><defs><style>.cls-1{fill:#b22425;}.cls-2{fill:#9d1219;}.cls-3{fill:#f1433b;}.cls-4{fill:#fe9f35;}.cls-5{fill:#fef4ce;}.cls-6{fill:#feeba0;}.cls-7{fill:#d62e2e;}.cls-8{fill:#f68719;}</style></defs><g id="Layer_2" data-name="Layer 2"><g id="ic-rice"><path class="cls-1" d="M160.51,423.06c-6.55-2.85-12.75-6.14-16.09-13-1.34-2.72-2.56-5.48-2.4-8.62-.82-10.2-.08-20.43-.39-30.64-.08-2.78,1.3-3.88,3.75-4.24a38.87,38.87,0,0,1,5.91-.28q80.51,0,161,0c2.69,0,5.4-.21,8,.81,2.67,1.55,2.32,4.24,2.36,6.68.13,7.51.08,15,0,22.54-.08,14.8-6.79,23.31-21,26.7Z"/><path class="cls-2" d="M301.72,423.06c4.16-2.31,8.84-3.59,12.27-7.31a25,25,0,0,0,7.13-17.41c0-10.06,0-20.12,0-30.17a3.75,3.75,0,0,1,1.7-1.19c10.53-1.16,21.08-.48,31.62-.48a5.41,5.41,0,0,1,4.39,1.63q0,14.5,0,29c0,12.44-5.46,20.27-17.24,24.93-.42.17-.71.65-1.06,1Z"/><path class="cls-3" d="M322.19,368a8.87,8.87,0,0,0-1,.18q-87.14,0-174.26-.16c-3.92,0-4.8,1.4-4.75,5,.15,9.49-.06,19-.13,28.49-1.46-9.09-.69-18.25-.47-27.34.12-5-1.8-7.08-5.91-9.26q-90.82-48-123.39-145.56a16.13,16.13,0,0,1-.43-2.09c1.46-1.67,3.48-1.68,5.45-1.79,2.15-.12,4.31-.06,6.46-.06H439.42c3.41,0,6.83-.25,10.19.41a5.11,5.11,0,0,1,1.67.74c1.26,1.3.5,2.67.07,4a249.06,249.06,0,0,1-52.45,90.63,255.49,255.49,0,0,1-64.47,51.46A46.77,46.77,0,0,1,322.19,368Z"/><path class="cls-4" d="M451.52,217.21l-439.7,0C7.3,206.5,5.42,195.07,3.4,183.73A243,243,0,0,1,0,147.48c-.24-9.17,1-10.77,9.59-13.32C12,132,15,132.4,17.83,132.4c16.7-.05,33.39,0,50.08,0q186.06,0,372.12,0c4.12,0,8.25.27,12.37.17,9.93-.25,19.85-.08,29.78-.08,2.13,0,4.28.07,6,1.6,1.79.51,3.9-.52,5.46,1.12-2,2.07-4.65,1.59-7.1,1.62-8.05.09-16.11,0-24.65,0,4.21,11.18,1.46,22.21.53,33.08a204,204,0,0,1-8.11,41.66C453.72,213.6,453.45,215.82,451.52,217.21Z"/><path class="cls-5" d="M452.67,134.15c-2,.07-3.94.2-5.91.2q-215.88,0-431.76,0c-1.79,0-3.59-.12-5.38-.19a29.12,29.12,0,0,1,20.87-25.73c2.22-.64,4.15-1.19,4.82-3.58C39,92,47.66,84.85,60.55,82.36a8.41,8.41,0,0,0,1.87-.89c1.48-1.07,3.14-.65,4.68-.38a6.37,6.37,0,0,0,6.18-2.36,28.44,28.44,0,0,1,23-9.54,12.29,12.29,0,0,0,8.32-3c5.25-6.7,10.86-13,19.89-14.29,6.34-.88,7.34-5.85,9.07-10.45A26.67,26.67,0,0,1,150,31.82c5.76-1,10.55-2.89,13.91-7.93a9.24,9.24,0,0,1,5-3.88c8.59-4.21,17.47-6.05,26.94-3.48,1.56.43,2.63-.78,3.72-1.74,8.29-7.24,17.95-8.49,28.11-5.63,4.13,1.17,7.63,1.49,11.74-.12S247.69,5.4,252.18,8c-1.64,1.09-3.73,1.53-1.09,4.32,3.09,3.25,5.92,4.69,10.67,4.32a32.88,32.88,0,0,1,24.07,7.62c3.48,2.89,6.79,3.86,11.33,2.53,17-5,35.13,4.17,42.18,19.65a9.76,9.76,0,0,0,7,6c8.56,2.28,15.9,6.64,20.89,14.24,1.77,2.69,4.14,3.66,7.28,3.65,15,0,26.2,6.45,33.3,19.72a9.93,9.93,0,0,0,5.5,4.81c11.63,4.46,19.51,12.51,23.06,24.57a7,7,0,0,0,4.52,4.93,32.48,32.48,0,0,1,9.12,5.66C451.29,131,453.17,131.86,452.67,134.15Z"/><path class="cls-6" d="M452.67,134.15c-2.91-3.22-6.3-6.18-10.25-7.56-4.8-1.67-6.81-4.5-8.27-9.2-3.42-11-11.59-17.87-22.2-21.66A7.82,7.82,0,0,1,407,91.46C400.23,78,389.21,71.3,374.16,71.71c-3.92.1-6.27-1.16-8.27-4.43-4.78-7.81-12.33-11.93-21-13.8-3.33-.72-5-2.2-6.22-5-5.89-14.1-17.19-20.58-31.75-21.92a23.39,23.39,0,0,0-10.44,1.9c-4.39,1.78-7.47.35-10.67-2.36-8.11-6.87-17.39-9.59-27.93-7.56-1.47.28-2.89.43-4-.84-2.52-2.95-5-5.94-7.61-9,2-1.22,4-.31,5.85-.69,7.42,3.09,13.16.65,19.84-3.61,12.79-8.12,26.85-4.56,37.72,8.06,2.13,2.48,4.14,3.44,7.28,3.14,9-.84,17.06,1.4,23.52,8.07,1.43,1.47,2.8,1.55,4.8,1,17.67-4.93,30.09.45,38.17,16.64a6.53,6.53,0,0,0,5.17,3.85,27.77,27.77,0,0,1,18.46,12.76,5.53,5.53,0,0,0,5.7,3c13.32-.93,22.61,5.28,28.7,16.76A6.92,6.92,0,0,0,445.47,81c9.85,3.69,16.54,10.37,19.5,20.59.56,1.94,1.28,3.52,3.44,4.36,12.82,5,18.52,15,19.8,28.13Z"/><path class="cls-7" d="M322.19,368c15.64-8.66,31-17.66,45.09-28.85a252.38,252.38,0,0,0,56.06-62.2,235.49,235.49,0,0,0,26.3-55.65,14.43,14.43,0,0,1,2-3.11,82.73,82.73,0,0,1,36.65,0c-6.42,22.59-16.8,43.34-29.73,62.81a248.23,248.23,0,0,1-99.67,87.15Z"/><path class="cls-8" d="M488.27,218.16H451.62c-.05-.32-.08-.64-.1-1,2.82-12.5,6.4-24.83,8.09-37.58a264.88,264.88,0,0,0,2.77-35.69c0-3.29-1.93-5.57-4.3-8.78h35.59c4,.46,6.23,3.09,6.29,6.73C500.4,168,497,193.47,488.27,218.16Z"/></g></g></svg>