<svg xmlns="http://www.w3.org/2000/svg" viewBox="0 0 500 388.68"><defs><style>.cls-1{fill:#4fe167;}.cls-2{fill:#e8e2d4;}.cls-3{fill:#b5afa1;}.cls-4{fill:#00af4b;}.cls-5{fill:#fe5368;}.cls-6{fill:#c4324f;}.cls-7{fill:#fe7e40;}.cls-8{fill:#fe7c8b;}.cls-9{fill:#c53c53;}.cls-10{fill:#fe7b8a;}.cls-11{fill:#fece5d;}.cls-12{fill:#9d8657;}.cls-13{fill:#fecd5d;}</style></defs><g id="Layer_2" data-name="Layer 2"><g id="ic-salad"><path class="cls-1" d="M500,96.66c-3.87,10.77-11.61,17.83-21.23,23.65-9.24,5.59-14,13.82-13.06,25.32,1.43,18-7,31.49-21.28,41.77a4.72,4.72,0,0,1-3.92,1.52c-10.62,0-21.25.62-31.85-.33-3-1-2.7-3.78-3.24-6-4.29-17.95-14.68-30.83-31.64-38.28A44.74,44.74,0,0,0,361.12,141c-29.52-5-54.93,18.16-58.91,42.58-.3,1.87-.25,4-2.53,4.91-8.35,1.2-16.74.43-25.11.51-4.19,0-8.38-.13-12.58,0-6-.09-12.08.57-18.09-.5-2.51-1-3-3.34-3.81-5.54-3-12.48-.7-23.94,6.71-34.41a41.62,41.62,0,0,1,14.76-12.59A44.28,44.28,0,0,1,272,132.11c6.62-1.65,11.64-5.33,14.54-11.64,2.73-4.38,2.34-9.45,3.22-14.25a41.56,41.56,0,0,1,44.08-34.3c2.4.2,4.27,1.42,6.36,2.25,10.22,3.43,20.88-.66,27.13-10.79,5.88-9.53,14.14-15.71,25.05-17.87,13.32-2.63,25.83-.65,35.58,9.58,8.31,8.71,18.29,10.9,29.42,8.74C467,62,476.05,62.17,484.77,67c8,4.44,12.73,11.25,15.23,19.85Z"/><path class="cls-2" d="M243,187.3l18.66.31c31.75.59,55.84,31.35,58.24,59,1.75,20.15-4.23,37.5-17.23,52.6-19.81,23-44.77,36.66-75,40.6a67.57,67.57,0,0,1-8.76.46q-51.21,0-102.42,0c-3.43,0-6.47.27-8.31,3.62-.45-5.05-4.35-7-8.14-9A213.94,213.94,0,0,1,45.57,293c-18.22-19.56-32.27-41.75-39-67.93-5.12-19.81,8.89-37.52,29.31-37.63,2.36,0,4.88.82,7.08-.78a5.23,5.23,0,0,1,3.27-.76c22.93.15,45.86-.19,68.78.16,5.91-.23,11.83-.1,17.74,0,6.48-.18,13-.05,19.45,0,4.88-.12,9.77-.07,14.66,0,3.63.08,7.27-.15,10.9.05,5.16-.13,10.31-.14,15.46,0q5-.18,10,0c5.17-.15,10.34-.1,15.51-.05,6.37.07,12.74-.21,19.1.07A9.72,9.72,0,0,1,243,187.3Z"/><path class="cls-3" d="M108.25,343.81c-.51-4.14,1.45-5,5.35-5,34.49.15,69,.3,103.47,0,28.47-.24,53.06-10.68,74.08-29.79,11-10,20.3-21,24.68-35.49,6.84-22.6,2.68-43.2-11.73-61.79-10.47-13.49-24.25-21.22-41.15-23.46a4.36,4.36,0,0,1-1.26-.69l38.93-.19a8.36,8.36,0,0,1,5.54-1.49c21.92,0,43.85-.21,65.78.11,9.79-.26,19.59-.09,29.38-.1,2.09,0,4.2,0,6,1.42l37.15,0c6.18.1,12.47-.52,18.51.43,18.33,2.9,29.17,20.76,23.87,38.66-7.42,25.1-20.64,46.85-38.44,65.9a218.39,218.39,0,0,1-59.23,44.76c-2.45,1.28-3.3,2.83-3.64,5.6-3.39,28.15-23.48,45.89-51.77,45.89q-88.34,0-176.67,0C131.89,388.57,110.09,368.38,108.25,343.81Z"/><path class="cls-1" d="M115.43,187.28q-34.37.09-68.73.14a19.49,19.49,0,0,1-3.78-.76c-13.92-6.9-20.29-18-19.1-33.58C24.28,147,21,142.56,16.44,139c-2.15-1.71-4.57-3.1-6.83-4.69-7.65-5.38-11.15-13.8-9-21.48C3,104.41,11,98.13,20.11,97.57a36.65,36.65,0,0,1,8.73.61c8.1,1.45,15.45.27,21.43-6.18a25.16,25.16,0,0,1,8-6.15c12.51-5.92,28.15,0,34.59,10.48,4.5,7.31,11.1,9.92,19.61,7.87,3.49-.83,7.27-2.37,10.58.75a2.87,2.87,0,0,1-.47,3.16c-6.23,8.58-9.41,18.54-12.84,28.38-2.52.84-2.85-1.43-3.67-2.75-6.29-10.13-15.35-11.32-23.75-3-6.58,6.53-13.28,12.94-19.61,19.71-8,8.59-4.37,20.85,6.89,23.57,5.37,1.3,9.66-1.16,13.28-4.53,7-6.52,13.86-13.25,20.27-20.39,1.07-1.19,1.83-2.75,3.71-2.9a2.56,2.56,0,0,1,1.48,1.68,100.49,100.49,0,0,0,7.15,36.57A3.15,3.15,0,0,1,115.43,187.28Z"/><path class="cls-4" d="M123,105.41c-4.19-2.07-8.3-.35-12.34.47-7.16,1.47-13.43-.6-17.11-6.41C85.46,86.75,74.45,82.75,60.22,85.86a8.4,8.4,0,0,1-1.94,0A32.78,32.78,0,0,1,83.05,78c16.09,1.24,21.85-2,28.78-16.5,7.93-16.55,27.07-25.42,45.43-21.06,1.1.27,2.21.49,3.32.73,2.49-.15,3.66,1.85,5.12,3.27,5.46,5.32,10.65,10.92,16.25,16.09a14.53,14.53,0,0,0,18.76,1c5.22-4.1,6.45-10.86,3.19-17.58-.63-1.29-1.64-2.46-1.28-4.06,10.91-8,22.83-8.59,35.35-4.84,1.69,1.28.78,3,.68,4.51-1,15.88,1,31.1,8.75,45.34a74.89,74.89,0,0,0,30.89,30.94c3.08,1.66,6.82,2.35,8.94,5.58-2,5.62-6.31,8.88-11.64,10.85-4.53,1.68-9.19,3-13.8,4.49-2.12-1.21-2.17-3.5-2.77-5.46-9.51-31.17-34-51.51-66.33-54.9-23.6-2.47-43.66,5.26-60.8,21.41C129.06,100.43,127.25,104.4,123,105.41Z"/><path class="cls-5" d="M340.17,74.17c-15.33-3.1-28.5.79-39.38,12.12-5.44,5.66-8.53,12.51-10.06,20.13-1.88,1.24-3.44,0-5-.75C248.19,87.74,238.78,34.84,267.81,5a5.79,5.79,0,0,1,1.94-1.43L300,33.88c1,1.77-.17,3.06-1,4.46-4.58,8.08-3.6,17.17,2.48,23.31,5.92,6,14.91,7.16,22.91,3,1.55-.8,3-2.11,4.94-1.4Z"/><path class="cls-6" d="M269.75,3.59c-.56,3.34-3.6,4.91-5.37,7.38C245.44,37.34,248.27,71.9,271.6,94.2a53.51,53.51,0,0,0,19.13,12.22c-.56,5.13.28,10.58-3.5,15C250.91,105.93,232.52,73.69,238,35A81.05,81.05,0,0,1,248.73,7.19C253.82-.85,262.15-2.29,269.75,3.59Z"/><path class="cls-7" d="M202.62,39.84c5.12,7,5.79,13.44,2,19.27a15.13,15.13,0,0,1-16.13,6.31,16.52,16.52,0,0,1-8.2-4.91c-6.55-6.48-13.15-12.92-19.73-19.37-4.21-4.84-6.08-10.3-4.1-16.62,3.27-10.42,16.75-13.43,25-5.5C188.66,25.85,195.59,32.89,202.62,39.84Z"/><path class="cls-8" d="M329.34,63.25c-4.82,3.08-9.7,5.66-15.81,5.16-7.85-.64-13.57-4.4-16.8-11.35-3.11-6.68-3-13.52,1.47-19.8.75-1.07,1.64-2,1.77-3.38A336.38,336.38,0,0,1,329.34,63.25Z"/><path class="cls-5" d="M238.24,187.32l-19.56,0c-.23-2.6,1.89-4,3-5.86,2.33-3.81,2.16-7.41-.6-9.65s-5.92-1.59-9.34,1.95c-3.81,3.93-7.61,7.85-8.66,13.54l-9.73,0a17.21,17.21,0,0,1,4.28-20.77c8.09-6.94,8.5-20.51.09-27.57-4.71-4-6.22-8.27-5.83-14a60.85,60.85,0,0,0-.14-11.21c-.51-4.44-3.18-7.46-6.37-7.47-3.49,0-6,3.07-6.29,7.92s-.11,9.76-.07,14.64a9.09,9.09,0,0,1-3.86,7.91c-11.45,8.81-11.49,22.32-.08,31.32,2.69,2.12,4.21,4.49,3.89,7.86-.35,3.79,1.19,7.83-1.37,11.35l-10.39,0c-.32-7.32-5.85-11.12-10.55-15.43-2.39-2.19-5.17-1.8-7.47.25a5.82,5.82,0,0,0-1.43,7.45c1.29,2.72,4.46,4.34,4.46,7.77l-19.54,0c-2.69-1.17-3.3-3.89-4.52-6.13-12.25-22.59-7.26-55.59,11.48-73.49C156.13,92,175,85.84,197.22,89.48c25.68,4.2,48.19,27.46,51.71,53.3a8.75,8.75,0,0,1-.83,5.67c-7,10.4-9.59,21.7-7,34.06C240.54,184.34,239.93,186.16,238.24,187.32Z"/><path class="cls-6" d="M248.1,148.45c-1-27.71-24.57-53.2-51.79-57.87-33.37-5.73-63.71,16-71.33,44.85-3.87,14.66-3.26,29.21,3.34,43.17,1.39,2.93,2.93,5.8,4.4,8.7l-17.29,0c-5.71-12.66-8.84-25.83-7.91-39.81.19-1.77-.68-3.46-.45-5.25.11-2.1-.08-4.31,2.1-5.64,2-11.53,7.36-21.59,13.79-31.17,13.13-16.06,29.61-26.55,50.24-30,38.87-6.49,77.59,18.77,87.52,57.05.37,1.42.72,2.83,1.07,4.25A59.8,59.8,0,0,0,248.1,148.45Z"/><path class="cls-5" d="M372,187.32l-71.4.1c2-28.87,31-53,60.67-47.59,13.12,4.47,18.87,14,17.17,28C377.62,174.82,376.77,181.69,372,187.32Z"/><path class="cls-7" d="M403.07,95.61c5,0,10.07-.12,15.1,0a14.75,14.75,0,0,1,14.51,13.14c.71,8.15-3.92,15.32-11.92,16.35a151.89,151.89,0,0,1-35.91.09c-8.09-.88-12.92-8.3-12.09-16.18S379.64,95.76,388,95.61c5-.09,10.07,0,15.1,0Z"/><path class="cls-6" d="M372,187.32c2-6.47,4.6-12.62,5.18-19.6,1-12.49-2.92-21-13.86-26.62a24.07,24.07,0,0,1-2-1.27c23.78,2.47,44.28,23.66,46,47.53Z"/><path class="cls-9" d="M238.24,187.32a6.89,6.89,0,0,1,2.89-4.8c.63,1.59,1.27,3.18,1.9,4.78Z"/><path class="cls-10" d="M177.64,187.32c0-2.11-.09-4.24.1-6.34.52-5.72-.61-9.88-5.86-13.94-10-7.75-8.51-24,2.09-30.94,3-2,4-4.16,3.81-7.6-.26-4.86-.13-9.76-.05-14.64.09-5.31,3.14-9,7.45-9.32,3.81-.24,7.78,3.86,8,8.86.27,5.19.21,10.41,0,15.61a7.39,7.39,0,0,0,3.68,7.22c12.51,8.47,10,27.47-.57,33-2.57,1.34-3.22,3.26-3.1,5.95.19,4.06.1,8.13.13,12.2Z"/><path class="cls-11" d="M152.26,187.32c-1.71-2.15-3.56-4.2-5.08-6.46-2.41-3.59-1.87-7.47,1.31-9.92s6.56-2.65,9.64.29c2.57,2.45,5.06,5,7.52,7.57a7.28,7.28,0,0,1,1.6,8.48Z"/><path class="cls-11" d="M203.12,187.32c-.23-6.16,6.6-15.82,12.52-17.84,3.31-1.13,5.82.28,7.68,2.68,2.2,2.84,2.07,6.09.12,9.05-1.41,2.16-3.16,4.09-4.76,6.13Z"/><path class="cls-7" d="M109.17,136.58a14.87,14.87,0,0,0-.87,5.95c-.85,1.21,0,3.17-1.78,4-7.56,9.59-16.44,17.95-25.55,26-5.78,5.08-14.7,3.89-19.87-1.61s-5.49-14.76-.13-20.4c7.27-7.66,14.71-15.16,22.4-22.39,7.49-7,19.26-4.5,23.72,4.8C107.71,134.15,107.72,135.77,109.17,136.58Z"/><path class="cls-12" d="M106.52,146.49c.6-1.32,1.19-2.64,1.78-4-.08,1.68.51,3.46-.78,4.94Z"/><path class="cls-11" d="M282.65,65.44a6.74,6.74,0,0,1,4.87,1.84c2.93,2.79,5.9,5.56,8.53,8.61s2.44,6.33-.1,9.27c-2.34,2.72-5.39,3.63-8.72,1.85a24.87,24.87,0,0,1-11.05-11.19A7.29,7.29,0,0,1,282.65,65.44Z"/><path class="cls-11" d="M282.28,49.14c0,1.62,0,3.24,0,4.87,0,4.19-2.29,6.69-6.25,7.41a7.24,7.24,0,0,1-8.31-5.83,35.59,35.59,0,0,1,0-13.49,6.85,6.85,0,0,1,7.3-5.89c4.08.13,6.6,2.55,7.16,6.61a47.55,47.55,0,0,1,0,6.32Z"/><path class="cls-11" d="M217.78,152.78c0-1.94-.11-3.89,0-5.82.29-4.44,3.06-6.82,7.18-7.11,3.75-.26,6.41,1.87,7.46,5.61a27.1,27.1,0,0,1,0,13.88c-.94,3.87-3.36,5.83-7.28,5.7-4.12-.14-6.6-2.49-7.31-6.45a34.1,34.1,0,0,1-.06-5.81Z"/><path class="cls-11" d="M160.71,113.3a7.44,7.44,0,0,1,6.5,4.37c1.37,3,1.1,5.78-1.18,8.09-2.5,2.53-5,5.06-7.36,7.7a7.47,7.47,0,0,1-10.53.37,7.32,7.32,0,0,1-.83-10.09c2.48-3.42,5.19-6.65,8.85-8.9A7.59,7.59,0,0,1,160.71,113.3Z"/><path class="cls-13" d="M137.49,152.05a41.63,41.63,0,0,1,.65-6.25c1-4,4.82-6.57,8.27-6a8.15,8.15,0,0,1,6.67,8.81,26.48,26.48,0,0,0-.05,7.17c.74,4.84-2.17,8.68-6.5,9.24s-8-2.17-8.68-7.12a40.47,40.47,0,0,1,0-5.83Z"/><path class="cls-11" d="M217.74,135.78a7.56,7.56,0,0,1-5.69-2.37c-2.31-2.28-4.64-4.53-6.82-6.93-3-3.27-3.09-7.71-.44-10.55,3.1-3.33,7.11-3.61,10.77-.37a68.37,68.37,0,0,1,7.74,8,7.54,7.54,0,0,1,.69,8.28A6.88,6.88,0,0,1,217.74,135.78Z"/></g></g></svg>