<svg xmlns="http://www.w3.org/2000/svg" viewBox="0 0 500 372.58"><defs><style>.cls-1{fill:#febd65;}.cls-2{fill:#fe624b;}.cls-3{fill:#fe4b34;}.cls-4{fill:#fea630;}.cls-5{fill:#fea730;}.cls-6{fill:#fe8f79;}.cls-7{fill:#fe8f78;}</style></defs><g id="Layer_2" data-name="Layer 2"><g id="ic-seafood"><path class="cls-1" d="M499.17,252.54a1.12,1.12,0,0,1,.83.2v5.86a1.22,1.22,0,0,1-.83.2Q496.41,255.66,499.17,252.54Z"/><path class="cls-2" d="M394.47,284c-9.56,14.06-21.67,25.66-35,36-7.33,7.13-16.57,11.21-25.6,15.44-5.64,2.64-11.08,6.24-17.68,6.38a225.06,225.06,0,0,1-36,1c-42.49-1.78-81.67-13.38-115.26-40.48-19.1-15.41-32.9-34.49-38.95-58.64a85.34,85.34,0,0,1,4.34-54.94C141.84,161.38,162.41,142.28,188,128a10.5,10.5,0,0,1,2.25-.91c1.51-.35,2.86.27,4.28.63,7.84,2,13.13-.75,16.21-8.36.36-.88.16-2.5,2-2,14.81-1.34,29.63-2.36,44.51-1.41,5,.32,10,.54,15,1.33,2.63.42,3.44-.46,3.81-2.64,1.78.66,1.4,2.35,1.7,3.68,2.2,9.66,11.79,13.2,19.8,7.31,1.4-1,2.44-2.65,4.42-2.74a206.05,206.05,0,0,1,48.8,20.54c7,2.47,13.06,6.2,17.27,12.51,17.49,14.33,30.79,31.6,37.45,53.5.42,1.39.67,2.84,1,4.26.26.19.65.34.75.6,2.88,7.13,4.56,14.38,2.13,22-.84,8.58-1.89,17.12-4.46,25.39.84,1.86-.06,3.5-.79,5.07C401.25,272.76,399.43,279.24,394.47,284Z"/><path class="cls-3" d="M190.46,127.57c-8.16,5.51-16.76,10.36-24.4,16.68-22,18.23-37.55,40.5-40.88,69.4-2.83,24.49,4.7,46.61,19.55,66.06,15.07,19.73,34.69,33.61,57.21,43.93a203.14,203.14,0,0,0,52.95,15.68,208.2,208.2,0,0,0,55.26,1.44c2-.22,4.21-.83,6.11.65-.35.8-1.12.65-1.77.79a229.55,229.55,0,0,1-66.75,11.17,227.51,227.51,0,0,1-74-11.17c-11.05-1.25-20.32-7-29.83-12-5.36-2.83-11-5.41-15.13-10.17-9.71-8.07-19.72-15.81-27.43-26L93.75,284c-5.48-6.81-10-14.07-10.52-23.11-2.61-8-3.61-16.19-4.3-24.48a27.45,27.45,0,0,1,2.79-22.71c4.51-19.12,14.81-34.89,28.41-48.69,3.16-3.22,6.73-6,10.11-9,4.07-6.15,10.29-9.46,16.63-12.63,5.25-1.72,9.66-5.1,14.61-7.45a222.34,222.34,0,0,1,34.88-13C188.65,123.6,190.37,124.89,190.46,127.57Z"/><path class="cls-2" d="M339.81,67.35l35.62-.16c7.21,0,8.26-1,8.26-8.06q0-25.64,0-51.25c0-7.38,1.38-8.53,8.7-7.4C427.57,5.91,451.93,34,451,69.09c-.62,22.51-10.71,40.46-29.17,53.55-32,6.74-58-7.06-72.85-29.33a64.34,64.34,0,0,1-8.64-18.45C339.62,72.43,338.44,69.94,339.81,67.35Z"/><path class="cls-2" d="M79.79,3.55C84.85,1.06,90.4.63,95.83.05c4.53-.48,5.64,2.76,5.63,6.69q-.06,25.88,0,51.75c0,8.27.45,8.7,8.93,8.7q25.63,0,51.27,0c6,0,7.32,1.75,6.58,7.76-2.47,20.18-12.15,36-28.66,47.75-14.67,2.66-29,2.31-42.92-3.9C55.8,100.55,41.29,48.08,71.27,12.11A66.9,66.9,0,0,1,79.79,3.55Z"/><path class="cls-3" d="M79.79,3.55c0,4-4,5.2-6.05,7.54-12.1,13.75-17.83,29.71-17,47.74a67.81,67.81,0,0,0,41.1,59.08c12.14,5.21,24.69,6.18,37.61,4.07,1.38-.23,3-.54,4.14.73-4.32,3.61-9.59,5.48-14.49,8-7.72,4.75-15.92,6.53-24.82,4-33.46-.62-57.9-25-64.53-51.36C27.31,50,48.11,11.83,79.79,3.55Z"/><path class="cls-3" d="M339.81,67.35A64.56,64.56,0,0,0,352.33,96c12.71,16.37,29.15,26.26,50.35,26.86,5.46.15,11,.67,16.41-.87a2.55,2.55,0,0,1,2.69.7c-9.92,7.25-21.17,10.82-33.29,12-9.16,2.88-17.83,1.52-26.15-3-16.83-6.46-30.14-17-38.61-33.19a64.29,64.29,0,0,1-7.34-25c-.33-4.26,1.35-6.43,5.86-6.28C328.1,67.34,334,67.29,339.81,67.35Z"/><path class="cls-4" d="M409.27,236.36a98.13,98.13,0,0,0-2.88-22.63c18.48.1,37,.49,55.44.17,8.15-.14,13.8,2.5,18.13,9.51,4.94,8,10.71,15.44,16.11,23.14,1.3,1.85,2.65,3.69,3.1,6v6.26a9.78,9.78,0,0,1-8.45,7.68c-4.83.83-8.61-1-11.39-4.93-5.15-7.32-10.38-14.58-15.33-22-1.66-2.49-3.5-3.29-6.4-3.27C441.49,236.4,425.38,236.35,409.27,236.36Z"/><path class="cls-4" d="M81.72,213.65a88.75,88.75,0,0,0-2.79,22.71c-12.18,0-24.36.1-36.54-.12-3.22-.06-5,1.11-6.68,3.65-5,7.42-10.14,14.7-15.32,22a10.82,10.82,0,0,1-11.53,4.58c-4.44-.83-7-3.79-8.38-7.92-1.25-3.78.11-7.08,2.17-10.07C9.39,238.7,16.25,229,23,219.33c3.05-4.37,7.52-5.3,12.42-5.3q20.22,0,40.44,0C77.84,214,79.78,213.78,81.72,213.65Z"/><path class="cls-4" d="M314.49,342.2l1.77-.79A180.36,180.36,0,0,0,354,323.05c1.74-1.12,3.24-2.7,5.42-3.05,8,0,15.94.13,23.9,0a12.36,12.36,0,0,1,11.11,5.77c6.5,9.33,13.11,18.59,19.54,28,4.46,6.52,3.66,12.81-1.84,16.77s-11.82,2.34-16.37-4c-4.72-6.61-9.48-13.21-13.91-20-2-3.05-4.14-4.27-7.88-4.24C354.16,342.38,334.32,342.23,314.49,342.2Z"/><path class="cls-4" d="M128.76,320c4.34,1.5,7.66,4.71,11.57,6.94a206.5,206.5,0,0,0,33.39,15.26c-15.92,0-31.85.2-47.77,0-3.75-.05-5.88,1.22-7.87,4.25-4.73,7.19-9.71,14.21-14.81,21.15-2.77,3.78-6.53,5.73-11.45,4.56-4.59-1.08-7.28-4-8.51-8.43-1-3.39.21-6.49,2.08-9.21q10.24-14.83,20.7-29.52a11.22,11.22,0,0,1,10-5C120.31,320.1,124.54,320,128.76,320Z"/><path class="cls-4" d="M394.47,284c3.71-7.28,7.6-14.48,10.34-22.21,7.65,0,15.3.06,22.95,0a14.19,14.19,0,0,1,12.73,6.68c6.27,9.31,12.88,18.39,19.26,27.62,2.91,4.22,3.59,8.82.77,13.28a10.51,10.51,0,0,1-10.9,5c-3.91-.5-6.38-3-8.48-6-4.86-6.92-9.81-13.78-14.48-20.84-1.74-2.63-3.69-3.52-6.81-3.46C411.39,284.21,402.93,284,394.47,284Z"/><path class="cls-4" d="M83.23,260.84c2.4,8.2,6.7,15.54,10.52,23.11-2.92.05-5.91.54-8.74.07-7.06-1.16-11.36,1.81-14.81,7.8s-7.61,11.29-11.61,16.81c-4.38,6.05-10.89,7.6-16,4-5.47-3.83-6.46-10.61-2.22-16.78,6.43-9.36,13.08-18.57,19.49-27.94,3.07-4.49,7.3-6,12.48-6.2C76,261.57,79.75,262.89,83.23,260.84Z"/><path d="M190.46,127.57c-1.36-1.59-2.73-3.17-4.1-4.76-2.45-6.29-2.13-12.17,3.13-16.92a13,13,0,0,1,14.94-2.3c5.84,2.65,8,7.68,8.25,13.8C209.35,129.1,201.87,132.52,190.46,127.57Z"/><path d="M301.88,122.93c-5.94,7.14-12.44,8.9-19,5.16-5.24-3-7.05-7.69-6.89-13.42,1.82-9,9.19-14.12,17.18-11.9C301.8,105.18,305.25,113.13,301.88,122.93Z"/><path class="cls-5" d="M362.34,131.64c8.58,2.17,17.26,3.55,26.15,3C382,142,374.14,148.23,368,156c-5.31-4.79-11.38-8.53-17.27-12.51Q356.5,137.55,362.34,131.64Z"/><path class="cls-4" d="M100.25,134.75c8.54.32,16.72-1.6,24.82-4l11.8,12.56-16.63,12.63c-4.38-6.32-10.58-10.92-15.7-16.55C103.13,137.82,101.68,136.29,100.25,134.75Z"/><path class="cls-6" d="M390.67,234.67c-.53,20.24-7.92,37.93-19.89,53.9-1.83,2.44-3.94,4.8-7.68,4.21-5.05-.79-7.18-5.65-4.35-10.39,2.58-4.31,5.8-8.17,8.3-12.57,16-28.21,11.94-54.68-6.59-80-1.82-2.48-4-4.7-5.82-7.17-2.87-3.86-2.69-7.41.31-10,2.59-2.2,7.46-1.75,10.09,1.38,11.41,13.56,20.68,28.27,23.63,46.18C389.46,225.06,390,229.87,390.67,234.67Z"/><path class="cls-3" d="M195.28,266.69A18.28,18.28,0,0,1,177.48,285c-9.46.18-18.28-8.68-18.33-18.43-.05-9.46,8.08-17.59,17.7-17.7C187.33,248.71,195.22,256.36,195.28,266.69Z"/><path class="cls-3" d="M200.16,297.89c0-10.35,7.8-17.9,18.35-17.81,9.07.08,17.54,8.71,17.65,18,.11,9.5-8.84,18.25-18.6,18.14C208.19,316.1,199.49,308.11,200.16,297.89Z"/><path class="cls-7" d="M441.38,67.63a27.7,27.7,0,0,1,0,3.41c-.42,3.54-2.44,5.59-6,5.89s-6-1.43-6.64-5c-1.29-6.66-1.67-13.51-4.59-19.79a57.71,57.71,0,0,0-20.72-24.58c-5-3.3-6.21-6.8-3.86-10.39s6.78-3.77,11.6-.38C428.75,29.25,439.35,45.9,441.38,67.63Z"/><path class="cls-7" d="M151.34,87.8A30.17,30.17,0,0,1,126,117.39a6.22,6.22,0,0,1-7.13-3.76c-1.59-3.28-.26-5.8,2.19-7.69a18.49,18.49,0,0,1,5.7-2.66c6.45-2.08,12.39-8.65,11-17.25a7.18,7.18,0,0,1,6.53-8.11c4.32-.13,6.72,2.24,7,7C151.39,85.84,151.34,86.82,151.34,87.8Z"/></g></g></svg>