<svg xmlns="http://www.w3.org/2000/svg" viewBox="0 0 500 449.61"><defs><style>.cls-1{fill:#4c8056;}.cls-2{fill:#e54c3c;}.cls-3{fill:#efc319;}.cls-4{fill:#527f72;}.cls-5{fill:#e47e25;}.cls-6{fill:#fa7b76;}.cls-7{fill:#fa7a75;}.cls-8{fill:#ebab1d;}</style></defs><g id="Layer_2" data-name="Layer 2"><g id="ic-spicy"><path class="cls-1" d="M500,363.51c-3.17,2.93-6.71,2.91-10.63,1.67a70.56,70.56,0,0,1-13.81-6.51c-3.33-.2-5.09-2.7-6.9-4.94a55.54,55.54,0,0,1-12.18-30.06c-4,13.86-11.13,25.08-25.88,29.25a45.12,45.12,0,0,1-23.16,0c-7.59-1.86-9.25-6.71-4.66-13,6.64-9.08,12.9-18.34,17.05-28.91,2.51-6.4,3-12.93,2.55-19.65a12.83,12.83,0,0,0-1.58-5.08c-2.39-4.74-3.81-5.34-8.9-3.84-11.12,3.29-22.34,5.44-34.06,5.33a73.65,73.65,0,0,1-43.34-14,85.13,85.13,0,0,1-17.93-19,22.09,22.09,0,0,1-3.29-6.47c-1.18-4.42,1.69-8,6.47-8,3.24,0,6.39.94,9.61,1.27a85.3,85.3,0,0,0,32.44,0,55.39,55.39,0,0,0,28.86-15.22c10.21-10.19,27.88-10.37,38.42-.72,8.19,4.84,16.31,9.79,23.17,16.49,1.18,1.68.29,3.45.25,5.18-.15,6,3.34,9,9.22,7.8,1.38-.28,2.74-1.16,4.13,0a131.15,131.15,0,0,1,25.87,35.75,27.84,27.84,0,0,1,1.94,20.27c-3.05,11.24-3.59,22.76-.57,34.24,1.38,5.25,4.21,9.72,6.91,14.29Z"/><path class="cls-2" d="M334.84,272.67c24.27,16.85,50.41,17,77.26,8.08,5.33-1.78,7.49,0,9.52,4,3.86,7.66,2.91,15.5.57,23.25-3.34,11-9.58,20.56-16.24,29.83-.95,1.32-2,2.58-2.92,3.9-3.13,4.4-2,8.34,3.23,9.6,21.88,5.32,39-.79,47.63-23.7.91-2.41,1.59-4.9,2.8-7.48,2.23,14.91,6.63,28.67,18.87,38.53-31.06,43.66-74.47,68.78-125.54,80.7-82.69,19.31-163.15,11.37-240.3-24.49-35.39-16.45-65.42-39.95-87.18-73a162.56,162.56,0,0,1-22-49.66C-1,286.4.72,281.76,5.2,279.17c4.81-2.79,9.69-2,14,2.69C39.6,304,65,318.5,92.6,329.48c4.28-.51,7.86,1.82,11.58,3.2A211.42,211.42,0,0,0,158.65,345c4.31,1.22,8.73.74,13.08.58,43-1.59,82-15.64,117.8-39a282.23,282.23,0,0,0,41.12-31.91C331.8,273.55,332.93,272.26,334.84,272.67Z"/><path class="cls-3" d="M159,346c-23.23-1.14-45.14-7.61-66.43-16.55A236.33,236.33,0,0,1,82.35,286c-5-37-4.11-73.33,12-108a110,110,0,0,1,15.24-24.31c1.78-2.14,3.54-4.65,6.86-3.06s2.59,4.55,2.3,7.28c-1.39,13.15-1.83,26.29.34,39.39a64.78,64.78,0,0,0,2.65,10.36c4.74,13.86,15,21.84,27.92,21.91a32.72,32.72,0,0,0,31-22c3.78-11.17,3.34-22.75,2.43-34.3-1.43-18.08-1.35-36.05,3.44-53.75,5.26-19.46,16.25-34.83,32.45-46.72,9.17-6.73,18.59-13.16,26.89-21a63.1,63.1,0,0,0,13.74-18.21c3.36-6.93,4-14,.58-21.14-.71-1.46-1.29-3-1.85-4.5-.9-2.47-.89-4.9,1.15-6.78,2.22-2,4.64-1.07,6.76.25a44.93,44.93,0,0,1,12.26,11.74c10.48,14.19,12.92,30.53,12.85,47.6-.07,17.38-3.66,34.19-7.6,51-2.66,11.33-3.71,22.82-1.09,34.32,6.37,27.93,33.9,40.62,60.58,27.68,19.91-9.65,29.21-26.44,30.68-48,.2-2.91,0-5.85-.05-8.78-.07-2.24.15-4.36,2.54-5.27s4.36.14,5.81,2.27c3.74,5.51,7.74,10.86,11.28,16.5a246.45,246.45,0,0,1,35.64,95.17c-6.89-2.81-13.69-5.92-21.42-5.73-5.79.15-10.88,2-14.86,6.17-15.61,16.55-35.39,19.73-56.73,17.75-2.36-.22-4.91.11-7.12-1.22-3.49-2-5.45-5.45-8.14-8.21-11.42-11.72-24.83-20.89-38.54-29.61-16.43-10.46-31.52-22.46-43.44-37.94-7.45-9.69-12.9-20.39-9.89-33.38a14.42,14.42,0,0,1,.72-2.13,6.32,6.32,0,0,0-.81,2.77c-6.37,21.69-2.42,42.42,5.65,62.85,5.13,13,11.11,25.67,15.44,39,9.38,28.88-8.19,58.33-38.14,62.85-15.82,2.38-30.27-2.25-42.62-12.71-1-.84-1.87-1.81-2.85-2.66-6-5.21-10-4-11.35,4-3.12,18.26-1.55,35.95,7.57,52.5.16.28.34.55.48.84.77,1.58,2.29,3.3,1,4.92S160.76,346.49,159,346Z"/><path class="cls-4" d="M465.85,255.05c-2,.65-3.92,1.66-6,1.88-5.29.58-9.11-3.71-8.71-9.63a39.15,39.15,0,0,1,1.06-5.19c7.09-7.13,10.66-16.22,13.4-25.54,8.85-30.1.85-56.06-20-78.68-9.44-10.22-20.28-18.75-31.8-26.48-5.23-3.52-6.51-9.23-3-13.3,2.86-3.32,6.72-4.6,10.5-2.15,28,18.1,52.4,39.75,61.81,73.21,8.13,28.92,1.91,56-14.5,80.87C467.58,251.63,465.85,252.87,465.85,255.05Z"/><path class="cls-5" d="M229.42,133c-1.87,15.32,4.81,27.52,14.5,38.38C255.56,184.4,269.22,195,284,204.4c13.55,8.6,26.87,17.68,37.95,29.52,2.53,2.7,4.67,5.77,7,8.67-2.39-.36-4.78-.77-7.19-1.08s-4.94-.63-6.66,1.74-1.11,4.81.29,7.23c5,8.69,12,15.67,19.45,22.19a310.78,310.78,0,0,1-46,35.87c-28.64,18.34-59.45,31.18-93.2,36.19a210.86,210.86,0,0,1-32.48,2.16c-1.42,0-3,.34-4.16-.86,5.47-.34,5.35-.27,2.72-4.84C153,326,151,309.52,152.94,292.32c.41-3.57.71-7.09,2.4-10.34,2-3.86,4.55-4.69,8.28-2.31,4.92,3.15,8.62,7.85,13.76,10.8,30.67,17.61,65.58,3.11,72.92-29.71,2.43-10.85.11-21.52-4.14-31.86C239,211.51,230.79,194.47,226.55,176c-3.31-14.43-3.71-28.91,1.87-43A.62.62,0,0,1,229.42,133Z"/><path class="cls-6" d="M194.33,366.43c42.22,0,80.94-11.74,116.26-34.83a26.84,26.84,0,0,1,5.08-2.86c4.29-1.61,9.17.21,10.95,3.84s.31,8.81-3.25,11.26a223.85,223.85,0,0,1-115,39.43c-9.58.45-19.1,1.43-28.61-.22-5.24-.9-7.6-4.41-7-9.36.47-4.17,4.13-7.19,8.9-7.25C185.86,366.38,190.09,366.43,194.33,366.43Z"/><path class="cls-7" d="M344.84,327.41c-4.61,0-8.85-4-8.81-8.39s4.26-8.29,9-8.28a8.48,8.48,0,0,1,8.37,8.26C353.49,323.87,349.91,327.38,344.84,327.41Z"/><path class="cls-8" d="M229.42,133h-1c.28-1.67.64-3.29,2.69-4.46C230.77,130.36,230.63,131.84,229.42,133Z"/></g></g></svg>