<svg xmlns="http://www.w3.org/2000/svg" viewBox="0 0 440.35 500"><defs><style>.cls-1{fill:#fcca82;}.cls-2{fill:#8cb8c1;}.cls-3{fill:#eef2f4;}.cls-4{fill:#c8e1e6;}.cls-5{fill:#fcca81;}.cls-6{fill:#fbb043;}.cls-7{fill:#f6ba5e;}.cls-8{fill:#fb8085;}.cls-9{fill:#fa636f;}.cls-10{fill:#7fcf61;}</style></defs><g id="Layer_2" data-name="Layer 2"><g id="ic-soup"><path class="cls-1" d="M227,0c6.85,4.79,5.39,12.72.65,21.93-1.33,2.58-3.36,4.8-3.65,7.87a17.17,17.17,0,0,0,2.61,11.57c7.08,10.75,6.65,21.72-.06,32.47-3.67,5.86-3.79,11.51,0,17.28a33.71,33.71,0,0,1,5.07,14.08c.66,4.69-2.37,9.19-6.67,9.83-3.64.54-7.15-2.25-7.93-6.85a35.83,35.83,0,0,0-4.56-11.64c-5.43-9.71-5.33-19.7.64-29.08,4.27-6.71,4.47-12.92.25-19.52-6.53-10.2-6.16-20.54-.16-30.78,1.75-3,3.42-5.92,3.54-9.42S219,2.19,221.15,0Z"/><path class="cls-2" d="M.48,253.84c-3.7-33.42,14.39-55.29,39.31-73.21,26.58-19.11,56.93-29.58,88.44-37a383.22,383.22,0,0,1,64.47-9.09c45.59-2.79,90.53.72,134.6,12.94,29.81,8.27,58.13,19.91,82.22,40,14.53,12.11,25.93,26.44,29.81,45.59,1.39,6.9,1.14,13.85.55,20.8-1.44,14.83-9.29,26.43-19.05,36.88-15.82,16.94-35.37,28.4-56.47,37.43-1.65.71-3.34,1.29-4.93,2.14-19.52,8.4-40,13.58-60.76,17.7-32.56,6.46-65.52,8.22-98.53,6.68-48.47-2.25-95.59-11.16-139.28-33.52-18.38-9.4-35.15-21.12-47.79-37.83C6.45,274.62,1.13,265.2.48,253.84Z"/><path class="cls-3" d="M.48,253.84c7.38,29.41,28.26,47.32,53,61.71,31.21,18.12,65.38,27.39,100.71,33.2a416.29,416.29,0,0,0,88.41,4.54c39.9-2,79-8.87,116.22-24a6,6,0,0,1,1-.21c1.69,1.86,1.66,1.85.64,4.52-3.63,9.46-8.73,18.17-14.09,26.71-22.76,36.29-53.29,64.08-91.82,82.86a217.41,217.41,0,0,1-64.08,19.7c-9.6-.37-18.88-2.71-28.05-5.26-16.24-4.5-32-10.2-46.6-18.9-.74-1.89-2.62-2.3-4.14-3.19C91.94,424,73.88,410.3,58.51,393.41,34.69,367.26,17.5,337.29,8.13,303,3.73,286.89.65,270.6.48,253.84Z"/><path class="cls-4" d="M190.84,461.85c10.66-2.42,21.43-4.33,31.91-7.63a228.27,228.27,0,0,0,49.14-21.88,220.71,220.71,0,0,0,50.28-41.78,211.33,211.33,0,0,0,37.9-59c.41-1,.79-1.8-.28-2.54,16-6.83,31.32-14.77,45.12-25.42,14.74-11.37,26.87-24.8,32.91-42.88.76-2.26,1.38-4.57,2.06-6.86-.36,26.43-6.87,51.49-16.84,75.77a211,211,0,0,1-32.54,53.91,215.32,215.32,0,0,1-61.87,51.84c-3,1.7-4,3.51-4,6.83,0,3.65,1,7.45-.77,11-2.9-3.59-.86-7.86-1.75-12.16-5,2-9.75,4.67-14.73,6.75-27,11.28-55,17.64-84.37,17.48-8.94-.05-17.88.32-26.77-1C194.17,464,191.88,464.33,190.84,461.85Z"/><path class="cls-2" d="M190.84,461.85c4.42,2,9.3,1.58,13.86,1.83,31.89,1.74,63.08-2.09,93.12-13.49a236.21,236.21,0,0,0,26-11.78v14.82c-2.21,15.28-10.62,25.9-24.64,32-19.38,8.38-39.75,12.48-60.79,14.07-27.63,2.09-54.73-.14-81.26-8.19A119.28,119.28,0,0,1,139,484.15c-15.06-7.45-22.34-20.12-23.12-36.7-.14-2.92,0-5.85-.06-8.77,2.34-.59,4,1,5.84,1.92,21.22,10.89,43.78,17.52,67.27,21.23A12.54,12.54,0,0,0,190.84,461.85Z"/><path class="cls-1" d="M264.14,82.72a22.73,22.73,0,0,1,4.37-15.92c4.51-6.48,4.3-12.64-.15-18.94A23.94,23.94,0,0,1,264,32.7c.18-4.65,2.43-7.14,6.68-7.4,4-.24,7.54,2.17,7.81,6.32s2.12,7.72,4.11,11.27c5.85,10.44,5.57,20.81-1,30.83-3.93,6-4,11.75.07,17.67a25.87,25.87,0,0,1,4.87,16c-.22,4.46-3.24,7.6-7.28,7.64a7.26,7.26,0,0,1-7.33-7,21.32,21.32,0,0,0-3.6-9.93C265.39,93.34,263.33,88.24,264.14,82.72Z"/><path class="cls-1" d="M175.3,58.08c.62,5.68-1.68,10.89-4.83,15.69-3.95,6-3.84,11.69.1,17.66,3.18,4.8,5.22,10.07,4.77,16-.33,4.45-3.29,7.6-7.31,7.59a7.56,7.56,0,0,1-7.29-7.13c-.08-4-1.88-7.14-3.77-10.36-5.85-10-6.11-20.13,0-29.92,4.26-6.81,4.91-13,.24-19.86a23.74,23.74,0,0,1-4.47-15.15c.28-4.21,2.95-7.15,6.88-7.34,4.28-.21,7.58,2.45,7.75,6.88a18.45,18.45,0,0,0,3.42,9.47A26.56,26.56,0,0,1,175.3,58.08Z"/><path class="cls-5" d="M88.37,299.66C73.89,293.21,60,285.78,48,275.2c-1-.84-1.78-1.83-2.67-2.75-1.34-2.17-.13-4.11.63-6,4.77-12.08,13.5-21,23.59-28.62,19.08-14.48,40.73-23.62,63.67-29.92a329.52,329.52,0,0,1,74.09-11.16,330.35,330.35,0,0,1,88,8.11c25.07,5.76,49,14.54,70.32,29.29,7.23,5,14.3,10.24,19.59,17.44,1,1.4,2.65,2.56,2,4.68a146.5,146.5,0,0,1-27.56,18.31c-31.92,16.75-66.21,25.84-101.6,31.5-31.14,5-62.49,5.77-93.86,4.71a404.22,404.22,0,0,1-60-7c-2.73-.5-5.38-1.26-8-2S91.19,299.55,88.37,299.66Z"/><path class="cls-4" d="M387.14,255.88c-14.26-18.55-33.9-29.38-55-38-23.4-9.6-47.83-15-72.93-17.85-14.05-1.6-28.14-2.77-42.2-2.46-39.15.88-77.51,6.53-113.75,22.32-18,7.84-34.72,17.66-47.63,32.95a49.8,49.8,0,0,0-10.32,19.64c-7.9-7.34-14.28-15.79-15.33-26.79-.88-9.16,3.41-17,9-24,9.42-11.76,21.7-19.92,34.8-26.83,25.94-13.69,53.87-21,82.63-26.05,27.82-4.87,55.85-5.82,83.87-4.53,44.21,2,87.19,10.18,126.9,31C380.09,202,392.14,210,401.18,221.6c11.94,15.35,12.59,27.74.39,43.66-1.93,2.53-3.54,5.5-6.48,7.18A80.86,80.86,0,0,1,387.14,255.88Z"/><path class="cls-6" d="M387.14,255.88a44.14,44.14,0,0,1,7.95,16.56c-9.63,10-21.34,17-33.65,22.93-28.16,13.62-58.12,21-89,25.07A375.91,375.91,0,0,1,212.19,324c-39.94-1.19-79.13-6.87-116.68-21.33-.75-.29-1.47-.68-2.21-1-.06-1.77.92-1.34,1.9-.88,11.32,1.78,22.64,3.66,34,5.33,6.71,1,13.44,1.91,20.2,2.43a478.88,478.88,0,0,0,62.81.84c38.72-2.13,76.87-8.18,113.56-21.42,20.24-7.3,39.57-16.37,56.76-29.58C383.85,257.32,385.14,255.85,387.14,255.88Z"/><path class="cls-7" d="M95.2,300.75l-1.9.88-4.93-2C90.93,298.24,93,299.82,95.2,300.75Z"/><path class="cls-8" d="M100.14,258.83c-.11-5.87,3-9.69,7.9-12.35,7.38-4,15.67-4.85,23.75-6.27,11.46-2,22.35-6.45,33.82-8.18,8.92-1.34,18.07-2,26.36,3.17,1.42,10.38-3.6,17.56-11.8,22.85-9.59,6.18-20.56,8.07-31.65,8.82-13.39.9-26.68-.08-39.63-4C105.78,262,102.56,261.25,100.14,258.83Z"/><path class="cls-9" d="M100.14,258.83c6.84,1.81,13.48,4.36,20.52,5.37,18.62,2.67,37.09,2.8,54.67-5.05,9.24-4.13,15.78-10.72,15.63-21.85,0-.69.66-1.4,1-2.1,2.47.42,3.57,2.79,5.52,3.94,4.89,3,6.41,8,4.17,13.76-3,13.63-13.1,19.78-25.32,22.77-21.4,5.23-42.76,4.71-63.46-3.42C106.87,269.88,101.15,266.37,100.14,258.83Z"/><path class="cls-10" d="M237.46,298.88c-5.47-.29-10.33-1.33-14.67-4.13-7.34-4.74-7.44-13-.26-17.93,8.11-5.52,21.24-5.42,29.4.23,7.12,4.94,6.92,13.26-.51,17.83A29.75,29.75,0,0,1,237.46,298.88Z"/><path class="cls-10" d="M267.43,255.81a26.73,26.73,0,0,1-13.76-4.25c-7-4.69-7.12-12.45-.47-17.41,8-6,22.26-5.9,30.28.16,6.39,4.83,6.22,12.41-.37,17A27.63,27.63,0,0,1,267.43,255.81Z"/><path class="cls-10" d="M331.53,249c5.38-.55,10.25,1.17,14.7,4.06,6,3.89,6.6,11.4,1.45,16.24-7.15,6.72-24.35,7-31.92.59-6.83-5.83-5.76-13.75,2.55-18A23.33,23.33,0,0,1,331.53,249Z"/><path class="cls-10" d="M201.66,252.9c.24-5.08-.78-9.78-4.17-13.76,2.65-2.78,5.76-5.06,8.1-8.22s5.87-3.43,9.09-1.43c3.63,2.25,4.76,5.7,2.67,9.62C213.88,245.65,208.3,249.91,201.66,252.9Z"/></g></g></svg>