<svg xmlns="http://www.w3.org/2000/svg" viewBox="0 0 487.64 363.37"><defs><style>.cls-1{fill:#febd65;}.cls-2{fill:#fe624b;}.cls-3{fill:#fe4b34;}.cls-4{fill:#fea630;}.cls-5{fill:#fea730;}.cls-6{fill:#fe8f79;}.cls-7{fill:#fe8f78;}</style></defs><g id="Layer_2" data-name="Layer 2"><g id="Layer_3" data-name="Layer 3"><path class="cls-1" d="M486.83,246.3a1.1,1.1,0,0,1,.81.19v5.72a1.23,1.23,0,0,1-.81.19Q484.15,249.34,486.83,246.3Z"/><path class="cls-2" d="M384.72,276.94c-9.33,13.72-21.13,25-34.16,35.15-7.15,7-16.16,10.93-25,15.06-5.5,2.58-10.8,6.09-17.23,6.22a218.77,218.77,0,0,1-35.08,1c-41.43-1.73-79.64-13.05-112.41-39.47-18.62-15-32.09-33.64-38-57.19a83.19,83.19,0,0,1,4.23-53.59c11.23-26.71,31.28-45.34,56.19-59.22a9.76,9.76,0,0,1,2.2-.89c1.47-.35,2.79.26,4.17.61,7.65,2,12.8-.73,15.81-8.15.35-.86.16-2.44,1.94-2,14.45-1.3,28.9-2.29,43.41-1.36,4.87.31,9.78.52,14.59,1.29,2.56.41,3.36-.44,3.72-2.58,1.74.65,1.36,2.29,1.66,3.59,2.14,9.43,11.49,12.88,19.31,7.13,1.36-1,2.38-2.58,4.31-2.67a201.54,201.54,0,0,1,47.59,20c6.81,2.41,12.74,6.05,16.84,12.2,17.06,14,30,30.82,36.53,52.18.41,1.36.65,2.77,1,4.15.25.19.62.34.73.59,2.8,7,4.45,14,2.08,21.48-.83,8.36-1.85,16.69-4.36,24.76.82,1.81-.06,3.41-.77,5C391.33,266,389.56,272.34,384.72,276.94Z"/><path class="cls-3" d="M185.76,124.42c-8,5.37-16.35,10.1-23.8,16.27-21.48,17.77-36.63,39.49-39.88,67.68-2.75,23.88,4.59,45.46,19.08,64.43C155.85,292,175,305.57,197,315.64a197.7,197.7,0,0,0,51.64,15.29,202.55,202.55,0,0,0,53.89,1.4c2-.21,4.11-.8,6,.64-.33.78-1.09.63-1.72.77a223.45,223.45,0,0,1-65.1,10.89,221.56,221.56,0,0,1-72.19-10.89c-10.78-1.22-19.83-6.83-29.1-11.73-5.23-2.76-10.74-5.27-14.75-9.92-9.47-7.87-19.23-15.42-26.75-25.35-2.47-3.26-4.93-6.54-7.39-9.81-5.35-6.64-9.71-13.72-10.26-22.54-2.55-7.76-3.53-15.79-4.2-23.87a26.77,26.77,0,0,1,2.72-22.15c4.4-18.65,14.44-34,27.7-47.49,3.09-3.14,6.57-5.89,9.87-8.82,4-6,10-9.22,16.21-12.31,5.13-1.68,9.43-5,14.25-7.26a216.18,216.18,0,0,1,34-12.72C184,120.55,185.66,121.8,185.76,124.42Z"/><path class="cls-2" d="M331.41,65.68q17.37-.08,34.74-.15c7,0,8.05-1,8.06-7.86q0-25,0-50c0-7.19,1.35-8.31,8.49-7.21,34.3,5.3,58.06,32.7,57.11,66.91-.61,22-10.45,39.46-28.45,52.23-31.22,6.57-56.59-6.89-71.05-28.6a62.39,62.39,0,0,1-8.43-18C331.22,70.64,330.07,68.21,331.41,65.68Z"/><path class="cls-2" d="M77.82,3.46C82.75,1,88.17.61,93.46.05,97.88-.42,99,2.75,99,6.57q-.06,25.24,0,50.47c0,8.07.43,8.49,8.7,8.49q25,0,50,0c5.82,0,7.14,1.71,6.42,7.56-2.41,19.69-11.85,35.13-27.95,46.58-14.3,2.59-28.31,2.25-41.85-3.8-39.84-17.82-54-69-24.75-104.07A64.91,64.91,0,0,1,77.82,3.46Z"/><path class="cls-3" d="M77.82,3.46c0,3.93-3.9,5.08-5.9,7.35-11.81,13.42-17.39,29-16.61,46.56A66.14,66.14,0,0,0,95.39,115c11.84,5.07,24.08,6,36.69,4,1.34-.22,2.87-.52,4,.72-4.21,3.52-9.35,5.34-14.13,7.82-7.53,4.63-15.53,6.37-24.21,3.91C65.14,130.82,41.3,107,34.83,81.33,26.63,48.77,46.92,11.54,77.82,3.46Z"/><path class="cls-3" d="M331.41,65.68a62.92,62.92,0,0,0,12.21,27.9c12.4,16,28.43,25.61,49.1,26.19,5.33.15,10.73.66,16-.85a2.51,2.51,0,0,1,2.63.69c-9.68,7.07-20.66,10.55-32.47,11.66-8.93,2.82-17.39,1.48-25.51-2.89C337,122.09,324,111.76,315.72,96a62.8,62.8,0,0,1-7.15-24.4c-.32-4.15,1.32-6.26,5.71-6.12C320,65.68,325.7,65.63,331.41,65.68Z"/><path class="cls-4" d="M399.16,230.52a96.57,96.57,0,0,0-2.81-22.07c18,.1,36,.47,54.06.16,7.95-.13,13.46,2.44,17.69,9.28,4.81,7.78,10.44,15.06,15.7,22.56,1.27,1.81,2.59,3.6,3,5.85v6.1a9.53,9.53,0,0,1-8.24,7.49c-4.71.81-8.4-1-11.11-4.81-5-7.13-10.12-14.21-15-21.47-1.61-2.43-3.41-3.21-6.24-3.19C430.58,230.56,414.87,230.51,399.16,230.52Z"/><path class="cls-4" d="M79.7,208.37A86.6,86.6,0,0,0,77,230.52c-11.88,0-23.76.1-35.64-.12-3.14-.06-4.86,1.09-6.51,3.56C30,241.2,24.94,248.3,19.88,255.39a10.53,10.53,0,0,1-11.24,4.46c-4.33-.81-6.82-3.69-8.17-7.72-1.22-3.69.1-6.91,2.12-9.83,6.56-9.5,13.26-18.92,19.88-28.39,3-4.26,7.33-5.18,12.11-5.17q19.72,0,39.45,0C75.92,208.72,77.81,208.49,79.7,208.37Z"/><path class="cls-4" d="M306.72,333.74l1.72-.77a175.92,175.92,0,0,0,36.83-17.91c1.7-1.08,3.16-2.63,5.29-3,7.77,0,15.54.12,23.31,0a12,12,0,0,1,10.83,5.63c6.34,9.1,12.79,18.13,19.05,27.28,4.35,6.35,3.58,12.49-1.78,16.36s-11.54,2.27-16-3.94c-4.61-6.45-9.25-12.88-13.57-19.51a8,8,0,0,0-7.69-4.13C345.4,333.91,326.06,333.77,306.72,333.74Z"/><path class="cls-4" d="M125.58,312.09c4.23,1.46,7.46,4.6,11.29,6.77a200.93,200.93,0,0,0,32.56,14.88c-15.53,0-31.06.19-46.59,0-3.66,0-5.74,1.19-7.68,4.15-4.61,7-9.47,13.86-14.44,20.62-2.7,3.69-6.37,5.59-11.17,4.45-4.48-1.05-7.1-3.95-8.3-8.22-.93-3.31.21-6.33,2-9q10-14.47,20.18-28.8a11,11,0,0,1,9.76-4.88C117.34,312.18,121.46,312.09,125.58,312.09Z"/><path class="cls-4" d="M384.72,276.94c3.61-7.1,7.41-14.12,10.08-21.66,7.46,0,14.92.06,22.38,0a13.82,13.82,0,0,1,12.42,6.52c6.12,9.08,12.56,17.93,18.79,26.93,2.84,4.11,3.49,8.61.74,13a10.22,10.22,0,0,1-10.62,4.84c-3.82-.49-6.22-2.92-8.28-5.85-4.74-6.75-9.57-13.45-14.12-20.32-1.7-2.57-3.6-3.44-6.64-3.38C401.22,277.18,393,277,384.72,276.94Z"/><path class="cls-4" d="M81.18,254.39c2.34,8,6.53,15.16,10.26,22.54-2.85.05-5.77.53-8.53.07-6.89-1.13-11.08,1.76-14.44,7.61S61,295.62,57.14,301c-4.27,5.9-10.61,7.41-15.62,3.91-5.32-3.73-6.29-10.35-2.16-16.36,6.27-9.13,12.76-18.11,19-27.25,3-4.38,7.12-5.84,12.18-6.05C74.09,255.11,77.78,256.39,81.18,254.39Z"/><path d="M185.76,124.42l-4-4.65c-2.39-6.13-2.07-11.86,3.06-16.49A12.67,12.67,0,0,1,199.37,101c5.71,2.58,7.84,7.49,8,13.46C204.17,125.91,196.88,129.25,185.76,124.42Z"/><path d="M294.42,119.89c-5.79,7-12.13,8.68-18.56,5-5.11-2.9-6.87-7.51-6.72-13.09,1.78-8.8,9-13.78,16.75-11.61C294.34,102.58,297.7,110.34,294.42,119.89Z"/><path class="cls-5" d="M353.38,128.38c8.37,2.12,16.83,3.47,25.51,2.89-6.37,7.26-14,13.29-20,20.86-5.18-4.68-11.1-8.33-16.84-12.21Z"/><path class="cls-4" d="M97.77,131.41c8.33.32,16.31-1.55,24.21-3.91q5.74,6.12,11.5,12.25l-16.22,12.31C113,145.9,107,141.42,102,135.93,100.58,134.41,99.17,132.92,97.77,131.41Z"/><path class="cls-6" d="M381,228.87c-.51,19.74-7.72,37-19.4,52.57-1.78,2.38-3.84,4.68-7.48,4.11-4.93-.78-7-5.52-4.25-10.14,2.51-4.21,5.66-8,8.1-12.26,15.62-27.51,11.65-53.32-6.43-78-1.78-2.42-3.89-4.59-5.68-7-2.79-3.76-2.62-7.22.31-9.71,2.52-2.14,7.27-1.7,9.83,1.34,11.13,13.23,20.18,27.58,23.05,45C379.83,219.49,380.37,224.19,381,228.87Z"/><path class="cls-3" d="M190.46,260.1a17.83,17.83,0,0,1-17.37,17.81c-9.22.18-17.82-8.46-17.87-18-.05-9.23,7.88-17.16,17.26-17.26C182.7,242.56,190.4,250,190.46,260.1Z"/><path class="cls-3" d="M195.21,290.53c0-10.09,7.61-17.46,17.89-17.37,8.86.08,17.12,8.49,17.22,17.54.11,9.27-8.62,17.8-18.13,17.69C203.05,308.29,194.56,300.49,195.21,290.53Z"/><path class="cls-7" d="M430.47,66a28.43,28.43,0,0,1,0,3.33c-.41,3.46-2.38,5.45-5.87,5.74s-5.81-1.38-6.48-4.84c-1.26-6.49-1.63-13.18-4.47-19.3a56.42,56.42,0,0,0-20.21-24c-4.86-3.21-6.06-6.62-3.77-10.13s6.61-3.68,11.31-.36C418.15,28.53,428.49,44.77,430.47,66Z"/><path class="cls-7" d="M147.6,85.63a29.44,29.44,0,0,1-24.68,28.86,6.08,6.08,0,0,1-7-3.67c-1.55-3.2-.25-5.66,2.14-7.5a18.17,18.17,0,0,1,5.56-2.6c6.28-2,12.08-8.43,10.74-16.81A7,7,0,0,1,140.78,76c4.21-.13,6.55,2.19,6.81,6.78C147.64,83.72,147.6,84.68,147.6,85.63Z"/></g></g></svg>