<svg xmlns="http://www.w3.org/2000/svg" viewBox="0 0 500 419.59"><defs><style>.cls-1{fill:#fec147;}.cls-2{fill:#a4e786;}.cls-3{fill:#fe475a;}.cls-4{fill:#85c882;}.cls-5{fill:#97b95c;}.cls-6{fill:#fd8205;}.cls-7{fill:#7a9d51;}.cls-8{fill:#fea326;}.cls-9{fill:#86c883;}.cls-10{fill:#ef3049;}.cls-11{fill:#fcb740;}.cls-12{fill:#fe9400;}.cls-13{fill:#f4e2a6;}.cls-14{fill:#fea428;}.cls-15{fill:#f3e2a6;}.cls-16{fill:#fc8207;}</style></defs><g id="Layer_2" data-name="Layer 2"><g id="ic-vegetable"><path class="cls-1" d="M359.8,284.39c-.09,2-2.08,3.44-1.78,5.88,18.51,1.78,34.35,9,46.34,23.64,4.48,1.91,5.84,6.31,7.89,10.07,3.55,6.5,6.62,13.21,6.73,20.85-4,15.8-12,29-25.18,38.78a65.58,65.58,0,0,1-24.47,11.29c-2.41.55-4.95,1.25-7.09-.86a9.12,9.12,0,0,0-12.38-5.15c-2.55,1.17-1.38,4.32-3.27,5.8-3.48,1.68-7,.23-10.37-.18-10.81-1.31-21.64-2.41-32.42-3.88-1.84-.25-3.67-.44-5.23-1.56a3.8,3.8,0,0,1-1.1-1.36c-1.36-5.42-.52-10.94-.67-16.41-.18-6.59-.34-6.85-6.69-6.83-6.15,0-6.35.33-6.51,7.06-.1,4.64.62,9.33-.63,13.93a3.06,3.06,0,0,1-1.15,1.32,7.37,7.37,0,0,1-4.42.67c-27.08-3.48-54.27-6.12-81.31-9.95a8.51,8.51,0,0,1-1.93-.54,3.16,3.16,0,0,1-1.31-1.12c-1.65-4.69-.59-9.55-.87-14.34s-.68-5.1-6.36-5.12c-6.15,0-6.6.33-6.82,5.16-.17,3.81.39,7.65-.49,11.44a3.63,3.63,0,0,1-.9,1.39c-5.7,1.21-11.26-.38-16.83-1.08-7.42-.94-15-.73-22.17-3.63-12.21-5-20.19-13.89-25-25.93,2.39-13,11.1-20.85,22.06-26.72,5.71-3.06,12-3.72,18.42-4.18,11.16-.81,22.19-2.75,33.34-3.73,4.51-.86,9.21-.56,13.62-2.16,5.67-.06,11.27-1,16.9-1.49,2.84-.26,5.88-1.64,8.61.58,1.69,4.55.76,9.29.88,13.94.16,6.7-.06,13.41.08,20.11.09,4.8.69,5.2,6.35,5.2s6.46-.46,6.54-5.07c.17-9.72,0-19.44.07-29.16,0-2.49-.3-5.05,1-7.37,6.48-3.1,13.63-2.56,20.47-3.59,7.42-1.11,14.9-1.78,22.33-2.84,8.35-.48,16.62-1.74,24.93-2.63,2-.21,4-.7,5.75.81,1.39,2.1,1.15,4.49,1.16,6.81.05,9.7-.05,19.4.05,29.1.06,5.42.71,5.91,6.77,5.87,5.59,0,6.12-.45,6.16-5.9.08-10,0-20.07,0-30.11,0-2.33-.18-4.69.65-6.95.82-1.75,2.51-2.21,4.13-2.31,7-.45,12.92-3.8,19.09-6.59C355,284.37,357.21,282.75,359.8,284.39Z"/><path class="cls-2" d="M321.44,136.26c8.6-7,18.13-11.77,29.34-12.7.5,0,1-.36,1.47-.23,8.95,2.72,12.54-3,16.22-9.61,3.21-5.77,8.63-9.6,14.56-12.53a24.29,24.29,0,0,1,8.93,5.52c2.22,2.05,4.42,2.25,7.34,1.74,15.8-2.71,30.17-.09,41.29,12.54,9.59,10.9,13.36,23.52,9.91,37.83-.88,3.67-.08,6.16,2.29,9.07,17.54,21.44,12.37,50.55-11.43,64.38-3.6,2.08-4.77,4.57-4.75,8.49.12,19.25-8.59,33.7-24.42,44.17a11,11,0,0,1-6,2.28c-6.56-2.29-11.83-6.61-17.14-10.86-4.53-1.59-6.32-5.82-8.34-9.46-2.37-4.3-4.95-7.31-10.31-6.71-1.29.14-2.57-.6-3.81-1.08-17.47-6-28-17.73-30.22-36.33a5.88,5.88,0,0,0-3.5-5,68.89,68.89,0,0,1-13.06-9.33,52.18,52.18,0,0,1-13.63-23.73c-1.58-4.9-1.32-9.95-1.24-15a35.59,35.59,0,0,1,2.18-12.93c2.4-5.73,4.87-11.42,9-16.23C317.59,138.82,319,136.93,321.44,136.26Z"/><path class="cls-3" d="M187.39,310.54c-10.91,1.25-21.82,2.61-32.75,3.7-5.8.58-11.53.9-17,3.3C125.65,322.75,118,331.65,114,343.83A13,13,0,0,1,112.7,355c-14.57,0-29.15.25-43.71-.19C32.68,353.66,1.5,322.51.11,286.32A66.22,66.22,0,0,1,12.92,255,78,78,0,0,1,39.53,232.4c2.73-1.47,5.39-1.74,8.12-.13,3,1.77,6.65,2.48,8.94,5.41.14,4.17-3.59,6.4-5,9.81,3.44.14,6.35-3.22,10-1.43.37,3.6-2.41,5.74-4,8.39a112.89,112.89,0,0,1-6.52,9.65c13.71-4.57,27.23-9,40.7-13.6a15.58,15.58,0,0,1,10.75,0c13,4.53,26.1,8.66,39.35,13.25-2.79-4.09-5.47-8.09-8.09-12.13-1.07-1.66-2.52-3.22-2.1-5.47,3.9-2.47,7,1.46,10.32,1.36-2.54-2.71-4.82-5.66-5.28-9.7,8.33-7.78,13.24-8.18,22.63-2.22q26.06,16.55,33.27,46.5c.47,1.95,1.27,3.81,1.66,5.78a52.92,52.92,0,0,1-1.89,13.3C190.94,304.37,191.05,308.47,187.39,310.54Z"/><path class="cls-4" d="M406.18,287.21c12.84-7.44,23.05-17.08,27.28-31.93a49.11,49.11,0,0,0,1.83-16.85c-.2-3,.69-4.93,3.6-6.34,26.49-12.74,30.1-47.11,10.23-66.16-1.78-1.7-1-2.89-.58-4.37,6.66-23.87-6.3-46.45-30.22-51.92a40.19,40.19,0,0,0-20.36.51c-1.45.42-3,1.43-4.18,0-3-3.71-7.81-5.18-10.75-8.93,16.8-7.78,34.39-5,47.33,7.77,1.5,1.48,2.5,2,4.67,1.31,24.91-8,51.16,9,53.49,36.94a37.73,37.73,0,0,1-2,14.34c-.65,2.08-.37,3.15,1.17,4.73,20.39,20.88,14.79,53.48-11.34,66.26-2,1-3.39,1.51-3.07,4.61,2.79,26.72-17.29,50.8-44,53.41C421.19,291.34,413.53,290.51,406.18,287.21Z"/><path class="cls-2" d="M418.11,344.92c-1.56-11.68-6.73-21.76-13.75-31,17.72-4.3,35.46-8.55,53.16-12.92,10.1-2.49,10.16-2.6,13.32,7.24,1.53,4.73,5.66,10.13,3.72,14-1.74,3.53-8,4.88-12.3,7.09a157.66,157.66,0,0,0-16.86,9.43h9.67c13.59,0,27.19.07,40.78-.06,3,0,4.13.78,4,3.95q-.3,12.07,0,24.17c.08,3.29-1,4.29-4.26,4.26-15.1-.16-30.21-.07-45.31-.07h-4.88l-.27.85c8.74,4.39,17.42,8.93,26.27,13.09,3.18,1.49,4.26,2.89,2.82,6.4A121.29,121.29,0,0,0,469,407.09c-1,3.79-2.7,4.07-6.05,3.21-19.29-4.95-38.64-9.7-58-14.53-.73-1.46.08-2.62.85-3.69,9.84-13.53,12.83-28.88,12-45.23A3,3,0,0,1,418.11,344.92Z"/><path class="cls-2" d="M61.44,246l-12.55,3.65,7.35-11.75c.17-2.31,1.75-3.93,2.91-5.72,3.71-5.72,3.74-5.7-2.55-8.86-3.13-1.57-6.27-3.11-9.38-4.74-1.44-.75-3.14-1.22-3.9-2.92l-10.54-5.92a247.81,247.81,0,0,1,37.41-12c4.23-1,8.47-2.09,12.76-2.8,2.11-.35,2.92-1.25,2.9-3.21,2.46.61,1.93,2.79,2.25,4.46.92,4.91,1.09,9.93,1.82,14.87.79,5.28,2.62,6.25,9.85,5.31,4.84-.63,3.44-4.16,3.15-6.89-.34-3.31-.61-6.63-1-9.94-.21-1.79-.71-3.68,1-5.1,10.29.23,20.06,3.35,30,5.34,9.64,1.18,18.53,4.71,27.29,8.67,1.28,2.37-.55,3.31-2.09,4.22a84.13,84.13,0,0,1-7.53,3.79c-6.05,2-11.46,5.42-17.21,8.09-2.49,1.16-2.42,2.65-1.11,4.8,1.72,2.8,4.37,5.12,4.77,8.66l7.05,11.34L132,245.81c-2.08.7-4-.18-5.86-.8-7.64-2.51-15.33-4.89-22.87-7.69a17.71,17.71,0,0,0-13.14-.06c-7.52,2.84-15.22,5.21-22.86,7.73C65.4,245.61,63.54,246.53,61.44,246Z"/><path class="cls-5" d="M236.13,113.78c1.48-2.12,0-3.87-.8-5.62-10.14-23-28.49-33.9-53-35.26-4.19-.24-5.79-1.34-5.07-5.43a5.56,5.56,0,0,0,0-1c0-10.85,0-10.95,11-9.75,15.54,1.71,29.63,7.07,41.55,17.39,3,2.58,5,3,7.63-.33s5.69-6.12,8.57-9.15c2.6-5.41,7.87-8.44,11.51-12.92,10-9.9,19.83-19.89,29.81-29.77,4.72-4.68,6-4.64,10.71-.05,8,7.81,8,7.88.25,15.68Q289.1,46.8,279.89,56c-5.8,5.59-11.4,11.39-17.14,17-1.42,1.4-2.67,3.06-4.8,3.49-4.06,3.91-8.07,7.86-12.21,11.69-1.49,1.38-1.65,2.57-.61,4.28C249,99,251.51,106,254,113l1.06,1.19c1.13,1.91,1.45,4.1,2.11,6.18,1.37,6.73,2.49,13.48,2.25,20.4-.14,3.85-1.76,6-5.76,5.94-.34,0-.67,0-1,0-11.75.51-12,.28-12.42-11.47-.17-4.71-1.31-9.27-2-13.89C237.63,118.85,236.8,116.34,236.13,113.78Z"/><path class="cls-6" d="M236.13,113.78c2.65,1.27,2.56,3.82,2.88,6.17.14,3-2.5,3.25-4.34,4.08-23.45,10.64-42.15,26.67-55.39,48.85a121.08,121.08,0,0,0-10.74,23.29c-.74,2.2-1.14,4.62-3.24,6.11-3.49,1-2.26,4.78-4.06,6.76a1.28,1.28,0,0,1-1.34-.17l-27-9.13q22.09-67.23,90.83-84.06C227.81,114.7,232,114.4,236.13,113.78Z"/><path class="cls-7" d="M366.84,258.11c9.3-.75,14,4.95,17.7,12.35,1.08,2.17,3,3.94,4.5,5.89-8.81,2.37-17.9,3.69-26.49,6.9-.93.35-1.83.76-2.75,1.14a29.61,29.61,0,0,0-10.67,4.2c-5.79,3.48-12.15,4.36-18.64,5-5.06,3-10.47,3.32-16.07,2-10.13.64-20.09,3-30.3,2.91-3.91-1.81-6.32-5.3-9.19-8.27-1.12-1.16-1.67-2.73-.43-4,3.84-4.07,7-9,12.55-11.08,10.7-1.87,21.52-2.82,32.28-4.12a24.31,24.31,0,0,0,9-2.73c9.15-5.08,19.21-7.64,29.16-10.5C360.68,256.84,363.75,257.46,366.84,258.11Z"/><path class="cls-8" d="M193.5,376c13,1.51,26.08,3,39.11,4.53,9.73,1.16,19.43,2.62,29.19,3.49,6.78.61,13.46,2.31,20.32,2.09,3.06,4.73,1.33,10,1.57,15,.15,3.19.93,6.7-1.68,9.48l-88.6-10.58c-3-5.27-1.1-11-1.5-16.52C191.72,381,191.37,378.2,193.5,376Z"/><path class="cls-2" d="M279,55.57c7.26-7.41,14.42-14.91,21.82-22.17,2.6-2.55,2.9-4.3.11-6.94-10.1-9.55-6.76-9.32-16.11-.27-9,8.73-17.91,17.57-26.86,26.37C250.47,50.2,246,45,244.07,37.5c2.54-7.08,7.5-12.19,13.48-16.46C271.19,11.28,285.77,3.52,302.48.62,309.22-.55,316-.72,320.41,6.16c-4.36,15.76-12.49,29.43-23.23,41.62a28.44,28.44,0,0,1-12.51,8C282.8,56.46,280.83,57.24,279,55.57Z"/><path class="cls-8" d="M112.7,355c.07-3.75.07-7.5,1.25-11.12,3.68,3,4.51,7.85,7.4,11.49a39.89,39.89,0,0,0,28.13,15.55c9.27.95,18.51,2.15,27.77,3.15a4.66,4.66,0,0,1,1.54,4c-.43,6.68,1.71,13.54-1.43,20-11.47-1.32-23.08-1.88-34.37-4.11C125.5,390.51,113.58,374.47,112.7,355Z"/><path class="cls-8" d="M418.11,344.92c3.41,17.66-1.31,33.42-11.22,48-.65.95-1.27,1.93-1.9,2.89-11.13,12.81-25,20.71-41.79,23.37a26.41,26.41,0,0,1-3.45.11c2.29-5.57,1.4-11.43,1.56-17.19.05-2.16-.17-4.33.45-6.45a3.13,3.13,0,0,1,1-1.4c16.95-1.31,30.28-9.43,41.21-22C410.9,364.27,414.74,354.71,418.11,344.92Z"/><path class="cls-9" d="M279,55.57c10.81-.73,17.23-7.82,23.13-15.79A110.11,110.11,0,0,0,318.23,9.32c.45-1.3.78-2.57,2.18-3.16,3.81,6.74,2.08,13.64.25,20.38a115.65,115.65,0,0,1-20.1,40.06c-11.12,14.57-27.32,18.21-42.61,10C264.7,69.28,271.62,62.18,279,55.57Z"/><path class="cls-8" d="M298.28,388.16c10.35,1.35,20.7,2.73,31.06,4,5.75.72,11.52,1.34,17.28,2a3.37,3.37,0,0,1,1,1.42c1,5.45.38,11,.47,16.45.05,3.31,1.25,4.85,4.7,4.93,2.1.05,4.86-.82,5.92,2.25-7.61,1.16-15-.92-22.39-1.87-13.08-1.67-26.17-3.25-39.26-4.87-.82-6.92-.3-13.85-.24-20.78A4.53,4.53,0,0,1,298.28,388.16Z"/><path class="cls-10" d="M43.32,215.66c6.64,2.37,12.63,6.11,19,9,2,.89,2,1.89.86,3.43-2.34,3.25-4.64,6.52-6.95,9.79-4.5-1.72-8.6-6.5-13.16-5.41-7.13,1.7-13,6.76-18.5,11.67-11.8,10.55-19.82,23.38-22.82,39.13-.2,1.08-1.09,2-1.65,3C-1.45,256.7,14.16,230,40.66,217,41.55,216.58,42.44,216.11,43.32,215.66Z"/><path class="cls-1" d="M255.89,119.08c-1.4-1.4-.9-3.46-1.71-5.06,1.78-1.18,3.92.11,5.73-.85,22.6,2.12,43.21,9.55,61.53,23.09a63.61,63.61,0,0,0-13,20.11,114.2,114.2,0,0,0-47.7-33.92C258.79,121.72,257,121,255.89,119.08Z"/><path class="cls-5" d="M102.91,194.4c.61,6.42,1.17,12.85,1.85,19.26.36,3.36-1.08,4.2-4.28,4.24-12.21.16-12.11.26-12.89-12.54-.28-4.58-1.15-9.12-1.75-13.67A51.24,51.24,0,0,0,77,170.1c-1.75-2.42-1.64-4.06.63-5.89a53.11,53.11,0,0,0,3.93-3.87c4.94-4.94,5-5,8.83.63A66,66,0,0,1,101.83,190,42,42,0,0,0,102.91,194.4Z"/><path class="cls-6" d="M298.28,388.16c0,6.43,0,12.87,0,19.3,0,1.73.61,3.69-1.16,5.05A79.61,79.61,0,0,1,282,410.66q.06-12.26.11-24.51l.09.07a24.06,24.06,0,0,1,16,2Z"/><path class="cls-6" d="M177.36,398.08q-.06-12-.11-24.06l.08.05c5.64-1.54,11-1.22,16.09,2l.08,0-.09,24A86.66,86.66,0,0,1,177.36,398.08Z"/><path class="cls-6" d="M358.73,419.25c-2.45-1.6-5.21-.79-7.79-.73-3.2.08-4.48-.91-4.36-4.26.23-6.34.1-12.68.12-19a18.68,18.68,0,0,1,16,0c0,6.37-.11,12.74.14,19.09.11,2.62-.86,4-3.09,4.92Z"/><path class="cls-9" d="M244.07,37.5A38.76,38.76,0,0,0,258,52.56a104,104,0,0,1-12,12.07C241.29,55.88,240.1,46.88,244.07,37.5Z"/><path class="cls-11" d="M259.91,113.17c-1.73,1.54-3.82.56-5.73.85l-.15-1Z"/><path class="cls-8" d="M255.89,119.08c12.07,4.51,23.55,10.14,33.9,17.9a143.38,143.38,0,0,1,17.06,15.33,5.33,5.33,0,0,1,1.55,4.06c-1,4.28-2.2,8.53-2.32,13a4.15,4.15,0,0,1-.71.68c-1.65,1.25-4.7.17-5.35,2.9a26.78,26.78,0,0,0-.14,8.89c.17,1.6,1.4,2.11,2.82,2.28,1.63.2,3.32.22,4.64,1.44a63.9,63.9,0,0,0,13.18,22.21c.87,8.11-2.35,15.51-4.39,23-4.31,16-11.49,30.37-24.38,41.36a26.65,26.65,0,0,1-5.63,4.13,1.57,1.57,0,0,0-.45.22c-3.65,3.63-9.42,6.8-10.36,11s6.34,6.72,8.81,11c-5.88,1.87-12.06,2-18.09,2.62-8,.82-16,2.67-24.2,2.4C239,307,235,306,231.34,306.25a50.48,50.48,0,0,0-7.8-3.38,71.52,71.52,0,0,1-30.77-22.61c-1.32-8.95-2.4-17.9-6.31-26.29a76,76,0,0,0-21.26-27.66c-1.68-1.35-3.58-2.59-4-5a4.41,4.41,0,0,1,1-3.9c2.79-1.61,5.88-1.08,8.85-1,3.37,0,5.06-1.24,4.79-4.74a18.91,18.91,0,0,1,0-3c.33-3.72-1-5.72-5.07-5.52-1.95.09-4.08.24-5.59-1.54C169,191.05,173.08,180.66,179,171c13.6-22.32,32.76-38.1,56.44-48.64,1.39-.62,2.87-.92,3.61-2.43,2.49,6.87,3.06,14,2.77,21.23-.11,2.94.68,4.55,3.9,4.09a6.68,6.68,0,0,1,1,0c12.47.13,13.06-.61,11-13.28C257,127.7,256.49,123.38,255.89,119.08Z"/><path class="cls-12" d="M314.42,295.58l16.07-2c0,13.43-.08,26.86.09,40.28.05,3.5-.56,5.07-4.61,5-11.58-.07-11.58.12-11.58-11.59Z"/><path class="cls-12" d="M230.54,305.39c3.76-.63,7.66-.46,11.29-1.88,0,12.93-.11,25.87.06,38.79.05,3.46-.91,4.63-4.5,4.64-11.69,0-11.71.16-11.69-11.49,0-9.91.09-19.82.13-29.73C227.29,304.06,228.89,304.38,230.54,305.39Z"/><path class="cls-13" d="M230.54,305.39l-4.71.33c-8.45.74-16.74,3.61-25.37,1.89-4.28-.34-6.74-3.21-8.94-6.44l1.75-13.86c-.14-2.35-1.74-4.76.3-7,7.75,7.68,15.71,15.1,25.91,19.53,2.92,1.26,5.91,2.34,8.89,3.45C229.45,303.67,230.81,303.66,230.54,305.39Z"/><path class="cls-12" d="M298.19,388.21c-5.35-.49-10.74-.65-16-2,0-6.36.11-12.72-.13-19.07-.13-3.38,1.15-4.21,4.35-4.24,11.84-.13,11.84-.24,11.83,11.75C298.26,379.17,298.22,383.69,298.19,388.21Z"/><path class="cls-12" d="M193.42,376.09l-16.09-2c0-5,.11-10-.05-15-.09-2.86.63-4.11,3.85-4.21,12.32-.36,12.32-.48,12.32,11.74Z"/><path class="cls-12" d="M354.42,371c-9.17-.16-7.72,1.32-7.74-9.23,0-8.21-1.24-6.84,9.57-6.86,7.79,0,6.45-1.1,6.49,9.45C362.78,372.22,363.54,370.92,354.42,371Z"/><path class="cls-12" d="M233.54,379.11c-9.18-.18-7.79,1.41-7.81-9.17,0-8.29-1.24-6.9,9.51-6.93,7.87,0,6.51-1.07,6.56,9.39C241.84,380.27,242.6,379,233.54,379.11Z"/><path class="cls-12" d="M362.7,395.24h-16c0-.35-.05-.69-.08-1,.06-7,.06-7,9.83-7,6.29,0,6.29,0,6.34,7Z"/><path class="cls-14" d="M191.52,301.17l8.94,6.44c-3.73,3.77-8.93,1-13.07,2.93Q189.46,305.86,191.52,301.17Z"/><path class="cls-5" d="M286.12,276.25a36,36,0,0,1,3.37-3.7c18.89-15.76,25.23-37.71,29.89-60.48.3-1.48.31-3,1.14-4.33,4.88,3.47,9.3,7.63,14.94,9.88,1.8.72,2,1.81,2.12,3.43,1.34,18.75,11.63,30.49,28.91,36.71.14.05.23.23.35.35-11.26.23-22,3.66-31.63,8.65-10.07,5.21-20.59,6.1-31.26,7.49C298,275,292.06,275.59,286.12,276.25Z"/><path class="cls-15" d="M307.34,185.53c-9.08.14-9.08.14-9.08-8.64,0-7.27,0-7.27,7.82-7.55C306.31,174.75,306.2,180.19,307.34,185.53Z"/><path class="cls-10" d="M61.44,246c11.08-4.7,22.74-7.69,34-11.79a4.79,4.79,0,0,1,2.94.14c11.21,3.78,22.41,7.63,33.61,11.46,3.31,7.09,8.71,12.89,12.54,20.11-14.56-4.87-28.78-9.53-42.92-14.43a13.1,13.1,0,0,0-9.13.09c-14.34,4.94-28.75,9.64-44,14.71Z"/><path class="cls-10" d="M193.57,280.29l-.3,7c-1.58-4.72-3.11-9.45-4.76-14.14-6-17.2-17.71-29.56-33.23-38.69-3.82-2.25-7.22-2.82-11.07-.17a57.24,57.24,0,0,1-7.15,3.66c-2.61-3.83-7.54-7.88-7.2-11.43.37-4,7.18-4.66,11.13-6.86,2.88-1.59,5.67-3.52,9-4a17.22,17.22,0,0,1,12,6.34c13.49,10.31,23.62,23,28.54,39.55A69.62,69.62,0,0,1,193.57,280.29Z"/><path class="cls-16" d="M162.07,222l-12-6.34c2.56-1.38,5.14-2.72,7.67-4.16,1-.58,2.7-.74,2.19-2.64l1.06-.11c2.6,2.79,1.65,6,1.2,9.23Z"/><path class="cls-13" d="M162.16,218c-2-2.87-.34-6.22-1.2-9.23,1.14-2.55-2.11-7.7,4.23-7.17.17,0,.33,0,.5,0,12.11.34,12,.33,11.72,12.42-.08,3.27-1.33,3.94-4.19,3.82C169.54,217.73,165.84,217.93,162.16,218Z"/><path class="cls-13" d="M306.65,201.71c7.74,0,7.74,0,7.74,9.13,0,7,0,7-9.38,7-6.75,0-6.75,0-6.75-9.63C298.27,201.71,298.27,201.71,306.65,201.71Z"/></g></g></svg>