<svg xmlns="http://www.w3.org/2000/svg" viewBox="0 0 500 494.3"><defs><style>.cls-1{fill:#fe624b;}.cls-2{fill:#f8ba32;}.cls-3{fill:#fea630;}.cls-4{fill:#fe4b34;}.cls-5{fill:#fede74;}.cls-6{fill:#cbbf33;}.cls-7{fill:#fe8f78;}.cls-8{fill:#f48741;}.cls-9{fill:#98ae17;}.cls-10{fill:#fed451;}.cls-11{fill:#fc6a48;}.cls-12{fill:#fc6949;}.cls-13{fill:#fb6c47;}.cls-14{fill:#eb803d;}.cls-15{fill:#f68840;}.cls-16{fill:#99ae17;}.cls-17{fill:#abb21e;}.cls-18{fill:#fd634b;}</style></defs><g id="Layer_2" data-name="Layer 2"><g id="ic-western"><path class="cls-1" d="M500,448.36c-2.46,3.15-1.62,7.51-3.91,10.73-3.24-.37-6.34.51-9.5,1-2.67.4-5.4.87-7.95-.63-1-1.47-.2-2.82.39-4.11,6.13-13.56,4-26.88-1.22-40.06-1.51-3.83-4.43-5.21-7.67-4.22-3.09.95-4.39,3.76-3.55,8,.63,3.18,2,6.17,2.67,9.34,1.58,7.1,1.87,14.14-1.12,21-1.32,3-3,5.79-6.22,7.15-7.84-.93-13.72-5.56-19.19-10.63-7.38-6.85-14.13-14.35-21.54-21.17-3-4.55-4.72-9.8-7.78-14.34a58.65,58.65,0,0,0-7-8.57c-1.24-1.24-2.41-2.61-2.42-4.55a2.66,2.66,0,0,1,2.27-1.69,43,43,0,0,0,7.64-1.17c8.16-2.33,14.3-10.87,12-19-2.23-7.92,1.63-12.09,6.86-16.25,10,2,15.15,8.72,17.43,18.09a50.72,50.72,0,0,1,1.3,14,25.88,25.88,0,0,0,.19,5.35,5.47,5.47,0,0,0,4.69,4.92c2.57.43,4.32-1,5.6-3.09,1.55-2.45,1.48-5.25,1.54-8,.06-2.58-.34-5.21.55-7.73a1.63,1.63,0,0,1,2.82-.35c7,6.82,14.71,13,20.28,21.14,6.43,8.09,10,17.51,12.79,27.31Z"/><path class="cls-2" d="M404.36,397.59c7.88,7.44,13.15,16.63,17.58,26.37,6.85,14.75,5.79,29.44-.58,44-2.46,5.61-5.59,10.89-11.12,14.19-13.21,9.67-28.42,9.91-43.71,8.76-11.08-.84-22.15-2.29-32.69-6.26-29-16.86-55.59-37.11-81.35-58.44q-22.89-19-44.19-39.75c-9.89-9.64-19.57-19.48-29.18-29.39a727.42,727.42,0,0,1-71.59-86.13,565.3,565.3,0,0,1-34.56-56c-12.85-23.56-19.2-48.52-17.33-75.42,1.55-22.22,14.06-34.9,38.54-39.72,2.34-.46,4.78-1.09,7.25-.65a9.23,9.23,0,0,1,3.72,2.18c4,10.11,11.62,16.69,21.26,21.2,2.15,2,4.14,4.19,6.42,6.06a6.76,6.76,0,0,1,1.5,2.47c3.5,9.24,10.52,14.85,19.24,18.72.9.69,1.75,1.43,2.71,2,5.78,4.75,10.82,10.27,16,15.59C195.14,190.69,219,213,242.12,235.9c2.2,4.24,3.85,8.75,7.21,12.39A38.55,38.55,0,0,0,264.09,258c1.36,1.46,2.63,3,4.12,4.37a28.49,28.49,0,0,1,2.31,2.48c4.21,10.94,11.92,18.13,23.09,21.65,15.86,16,31.22,32.43,48.05,47.41,4,3.54,7.11,8,11.75,10.81,1.26,1,1.4,2.51,1.95,3.84,3.57,8.49,9.28,14.74,18.31,17.53a4.23,4.23,0,0,1,2.47,1.42c.66,3.16,4.08,4,5.53,6.49a35.3,35.3,0,0,0,20.77,20.84A6.19,6.19,0,0,1,404.36,397.59Z"/><path class="cls-2" d="M487.21,403.48,464.91,382c-1.71-1.56-1.77-3.77-2.17-5.8-2.86-14.54-11.58-24-25.24-29.18-1.82-.69-3.76-1.1-5.26-2.46-2.24-3-3.66-6.49-6-9.42-2.92-3.63-6.44-6.63-10.83-8a11.92,11.92,0,0,1-8.51-8.41c-1.14-3.57-4-6.28-5.38-9.78-.17-8.48-2.89-15.83-9.22-21.74a24.19,24.19,0,0,0-8.17-5.15,13.66,13.66,0,0,1-8.64-8.49,27.37,27.37,0,0,0-10.21-12.71,21,21,0,0,0-3.55-2.27c-4.85-2.86-9.11-6.75-14.72-8.3-1.86-.51-2.66-2.26-3.29-4-4.49-12.1-13.18-18.81-25.95-20.34a7.71,7.71,0,0,1-3.6-1.34c-4.16-3.32-8.4-6.51-13.55-8.22a4.83,4.83,0,0,1-3.48-3.11c-2.31-8.46-8-14.09-15.21-18.57-1.53-2.37-1.75-5.22-2.83-7.76-4.92-11.59-13.73-18.66-25.59-22.25-2.16-.65-4.51-.77-6.42-2.16-.9-3.82,1-7.5.09-11.49-2.37-9.86-7.76-17.06-17.16-20.8-3.92-1.56-6.31-3.67-7.83-7.73-4.41-11.73-15.15-18.38-27.77-17.83a6.21,6.21,0,0,1-1.92-.18c-2-.78-2.2-2.69-2.68-4.37-4-14.19-13.87-22.2-27.63-26-1.55-.43-3.26-.47-4.39-1.87C153.55,64.5,147.41,59.11,138.67,57a3.28,3.28,0,0,1-2-1.25c-2.83-4.65-7.39-7.68-10.88-11.71-1.44-1.66-3.66-3-2.86-5.74,3.5-4.21,8.72-4.92,13.49-5.84,17.71-3.44,34.38-.8,49.39,9.83,1.71,1.21,2.93,3,4.95,3.85,11.65,11.33,23.36,22.61,34.94,34Q316.44,169.54,407.13,259c24.09,23.76,48.46,47.24,72.08,71.46,18.53,19,22.48,48,10.67,69C489.08,400.82,488.1,402.12,487.21,403.48Z"/><path class="cls-3" d="M101.66,99.9C89.4,101.29,78,104.46,68.36,113A31.26,31.26,0,0,0,58,132.16a119.11,119.11,0,0,0,4.42,55.61C67.17,202.26,74.5,215.72,82.07,229a528.07,528.07,0,0,0,41.14,61.23c11.79,15.21,24,30.06,36.83,44.43,11.37,12.72,23.36,24.78,35.22,37C210.15,387,225.88,401.38,242,415.45a711,711,0,0,0,83.26,62.74c3,1.92,6,3.75,9,5.64.06,0,0,.32-.06.45s-.23.23-.35.34a180.41,180.41,0,0,1-24.51-10.54c-39.72-19.88-75.62-45.51-109.68-73.8-52.74-43.79-100.1-92.77-140.9-147.91C38.92,225.58,20.8,197.59,8.32,166.53a111.27,111.27,0,0,1-6.07-64.44c1.54-7.66,6.37-13.31,11.63-18.67,6-6.93,14.33-9.26,22.72-11.08,14.07-3,27.4,0,40.25,5.86,8.2,4.61,16,9.76,22.26,16.92C100.31,96.49,102.37,97.48,101.66,99.9Z"/><path class="cls-1" d="M101.66,99.9c-6.52-8.7-15.32-14.68-24.35-20.38C66.4,70.05,55.37,60.67,47.42,48.4c-7.36-11.35-8.46-24-7.19-37.09.28-2.86.83-5.82,2.92-8.13C60-2.66,75.84-.29,90.87,8.9c2.38-.29,4,1.23,5.47,2.63,8.64,8.27,17,16.81,25.43,25.31a7.7,7.7,0,0,1,1.45,2.51c3.9,4,7.86,8,11.65,12.17.91,1,3.19,1.45,2.12,3.67-5.51,2-10.86,2.75-15.72-1.69C116,48.64,109.1,48,102.44,46.89c-2-1.19-1.93-3.23-2-5.16-.12-2.43.07-4.87-.12-7.3-.33-4.38-2.62-6.9-6.06-6.79-3.28.1-5.53,2.48-5.68,6.65-.19,5.5-.51,11,.74,16.49a14.47,14.47,0,0,1,.57,5.78C86,68.46,89.4,78.53,100.2,87c4.89,3.85,6.27,8.44,4.44,14.84Z"/><path class="cls-4" d="M43.15,3.18c-2.6,11.66-3.41,23.31.77,34.8A52.63,52.63,0,0,0,56,57.64c7.2,7.2,14.85,14,21.34,21.88-9.33-3.65-18.76-6.87-28.95-7a54.33,54.33,0,0,0-31.52,9.32,29.56,29.56,0,0,1-3,1.54C-4.8,54.38,10,13.06,43.15,3.18Z"/><path class="cls-4" d="M410.24,482.12c5.11-6.27,10-12.67,12.4-20.57,3.36-10.94,3.14-21.9.36-32.9-.39-1.55-.71-3.13-1.06-4.69,5.24,5.09,10.71,10,15.65,15.32A70.52,70.52,0,0,0,461,456.22c.36,2.14-1.42,2.69-2.7,3.56-1.47,1-3.14,1.76-4.29,3.16-1.81,2.21-2.26,4.78-.78,7.23a5.37,5.37,0,0,0,6.78,2.38,32.12,32.12,0,0,0,14.27-9.77c1.23-1.46,2.11-3.34,4.32-3.64a44.7,44.7,0,0,0,13.81-1.6c1.63-.44,3.26-.9,3.68,1.55-6.29,19.09-27.41,34.46-47.74,35.17A57.52,57.52,0,0,1,410.24,482.12Z"/><path class="cls-3" d="M123.22,39.35c-7.49-7.33-15-14.63-22.44-22A57.85,57.85,0,0,0,90.87,8.9C114-3.77,141.45-.35,163,18.7c9.73,8.58,18.5,18.25,27.71,27.43-6.39-3-12-7.38-18.75-9.78-15.42-5.48-30.65-5.43-45.86.61A4.54,4.54,0,0,0,123.22,39.35Z"/><path class="cls-5" d="M89,56.78A85.08,85.08,0,0,1,87,34.55c.31-5.35,3-8.59,7.3-8.67,4.51-.08,7.26,3.38,7.45,9,.12,3.84-.86,7.78.84,11.51,1.19,1,1.41,2.49,1.79,3.9,3.41,12.53,11.32,19.08,24.32,19.86a68.06,68.06,0,0,0,14.54-.47,24.84,24.84,0,0,1,15.08,2c7.47,2.07,14.69,4.51,20.88,9.55,7.27,5.94,10.6,14,13.22,22.57a27.32,27.32,0,0,1,1.93,16.57,49.29,49.29,0,0,0,0,18.4c3.31,15.78,13.36,22.71,30.69,21.7,5.84-.34,11.66-.4,17.49-.37,1.79,0,3.62.2,4.61,2.1,18.79,2.43,32,14.59,35.26,32.46,2,1.76,2.32,4.12,2.33,6.59,0,5,.11,10-.05,15,0,2.76-.15,5.52,0,8.28.75,16.71,10.37,26.43,27.06,27.28a89,89,0,0,0,11.18-.49c13.67-1,26.56,1.35,37.76,9.93a46.28,46.28,0,0,1,8.29,8.89,40.79,40.79,0,0,1,6.47,20.45c.7,9.19-1.3,18.37,0,27.59,2.21,15.4,12.35,24.19,28,23.66,6.48-.23,12.95-.2,19.43-.19,3.42,0,6.8.36,9.77,2.34,5.26,2,10.6,3.76,15.33,7,11,7.47,15.59,18.37,17,31.08-.21,4.85.42,9.74-.5,14.56a8,8,0,0,1-5.81,6.55c-2.87.87-5-.58-6.94-2.46-1.57-1.52-1.55-3.46-1.61-5.42-.14-4.85.17-9.66-.48-14.55-1.41-10.65-7-17.5-17-21-.65.1.16.27-.45.16-13-2.41-26.2,1.55-39.25-1.09-14.82-3-25.53-10.95-31.19-25.14-3.92-9.82-5.68-20-4-30.58a46.23,46.23,0,0,0,.24-11.69c-1.07-10.36-6.33-17.59-16.48-20.78a49.61,49.61,0,0,0-17.82-1.76c-7.63.43-15.27.94-22.83-.72a38.93,38.93,0,0,1-13.09-5.17c-14.16-8.78-19.63-22.27-20.35-38.16-.31-6.79,0-13.6-.09-20.41A38.55,38.55,0,0,0,265,192.48c-2.82-7.77-8.89-11.62-16.47-13.61a71.67,71.67,0,0,0-7.15-1.4c-6.85-.79-13.57,1.22-20.41.9a56.08,56.08,0,0,1-19-4c-15.48-6.36-22.27-19-25.35-34.48-2-8.89,0-17.79-.09-26.68C176.35,97.72,167,88,151.36,87.62c-8.12-.21-16.26.26-24.37-.12-16.23-.75-28.37-8.28-36-22.79A15.58,15.58,0,0,1,89,56.78Z"/><path class="cls-6" d="M288.18,261.92c11.63,6.46,24.12,7,36.87,5.11,22.55-3.41,38,13.91,34.14,36.86-3.5,20.9,5.86,48.1,32.52,53.21a57.93,57.93,0,0,0,19.76.8,43.64,43.64,0,0,1,21.14,1.78c-4.67,5.25-6.36,10.59-5.37,18.27,1.44,11.19-8.07,18.59-20.89,18.6-1.16-.94-2.81.3-3.92-.87-10.84-3.53-18-10.75-21.56-21.56-.77-2.69-2.8-4.39-4.85-6.06-12.33-3.1-19.7-11.16-23.11-23.17-.31-.12-.76-.31-.75-.54.24-6.78-4.33-10.29-9.12-13.77-1.7-1.24-2.74-3.21-3.82-5a15.24,15.24,0,0,0-6.83-6,30.1,30.1,0,0,1-16.9-20.83c-.66-2.76-2-4.19-4.7-4.79a33.28,33.28,0,0,1-12.63-6.12c-4.79-4.32-8.52-9.36-10.3-15.62C286.89,268.77,285.88,265.27,288.18,261.92Z"/><path class="cls-7" d="M478.6,459.14a37.55,37.55,0,0,1-16.43,14c-4.34,1.9-8.3,1-10.27-2.31s-.58-7.72,3.19-10.49c1.94-1.43,4.6-1.81,5.91-4.13,9.16-6.9,8.84-16.51,7.24-26.31-.62-3.79-2.43-7.37-3.2-11.15s-.23-7.57,4.26-9.14c4.15-1.44,7.78,0,9.5,4.33,4.63,11.56,7.07,23.37,3.77,35.85C481.68,453.16,479.75,456,478.6,459.14Z"/><path class="cls-8" d="M402.43,395.68c1.36,0,2.82-.38,3.92.87-.79.12-1.58.22-2,1A3.13,3.13,0,0,1,402.43,395.68Z"/><path class="cls-9" d="M288.18,261.92c-1.12,10.4,3.86,18.2,10.71,25.21-2,1.94-3.95,1.52-5.88-.09-12-3-19.58-10.65-23.44-22.23-.76-1-.8-2.4-1.73-3.32-1-1.48-2.83-1.51-4.07-2.54-11.1-3.79-18.74-11-22.26-22.37-.26-.21-.61-.45-.6-.73.08-6.73-4.26-10.49-8.95-14.41-5-4.16-7.61-10-8.8-16.42-.51-2.71-1.77-4-4.57-4.77-12.13-3.32-20.63-10.69-23.83-23.19-.81-3.17-2.46-4.25-5.47-5.13-11.16-3.24-19-10.11-21.77-21.83A90.5,90.5,0,0,1,177.82,140c1.94,7.54,4.14,14.88,9,21.26,8.39,11,19.94,14.84,33,15.74,7.45.52,14.82-1.79,22.29-.59,1.45,3.34,4,5,7.58,5.69,6.37,1.29,11.09,5.6,16,9.5,2.64,4.66,2.94,9.78,2.9,15,0,7.75-.69,15.54.32,23.25C270.72,243.21,276.5,254.36,288.18,261.92Z"/><path class="cls-6" d="M177.82,140c-2.28,4.25-5.32,7.71-9.78,9.76-2.74,3.45-6.47,3.22-10.27,2.77-1.35-.76-3-1-4.26-1.83-10.79-3.5-17.39-11.19-21.38-21.47-1.16-2.75-2.79-5-5.89-5.82-10.1-4.27-18.22-10.52-21.6-21.53-.25-2.89-1.36-5.68-.9-8.65.35-2.22-1.23-3-2.76-4-9.23-6.41-14.92-14.73-14-26.54.17-2.14.32-4.21,1.94-5.84,2.44,4.89,4.31,10,7.8,14.42,7.81,9.91,18.11,14.44,30.33,15,7.78.34,15.6,0,23.4,0,15.74,0,28.09,10,27.53,27.67C177.74,122.54,176.24,131.25,177.82,140Z"/><path class="cls-10" d="M295.9,426.87a7.6,7.6,0,0,1,5.24,1.83c15,11.39,32,17.41,50.55,19.73a134.16,134.16,0,0,0,39.66-.82c4.14-.71,8.93,2.29,9.78,6.22.78,3.64-1.9,7.15-6.54,8.18a99,99,0,0,1-15.36,2,142.56,142.56,0,0,1-41.35-2.9c-17-3.9-32.73-10.37-46.6-21.06a7.54,7.54,0,0,1-2.6-9.14C289.84,427.63,292.55,426.77,295.9,426.87Z"/><path class="cls-3" d="M127.12,152.93c0,11.92-8.28,20.18-20.19,20.16-11.75,0-20.83-9-20.81-20.54a20.57,20.57,0,0,1,20.44-20.46C118.93,132.08,127.14,140.39,127.12,152.93Z"/><path class="cls-3" d="M115.67,228.57C102.35,227.07,95,218.9,95.26,207s9.49-20.27,20.91-20c12.53.32,20.8,9.54,20.42,20.9C136.19,220.33,127.85,227.54,115.67,228.57Z"/><path class="cls-1" d="M157.45,151.52a23.73,23.73,0,0,0,10.59-1.8c4.28,11.6,11.67,19.67,24.5,21.48,2,.28,2.56,1.29,3,3.15,2.93,14,11.86,22.73,25.53,25,2,.33,2.68,1,2.93,2.95a30,30,0,0,0,15,23.17,4.28,4.28,0,0,1,2.35,4.33c-.09,2.25.12,4.53.2,6.79-1.9-.74-3-2.42-4.39-3.77q-39.74-39.17-79.43-78.35c-.69-.68-1.47-1.27-2.21-1.9C155.34,150.71,156.4,151.12,157.45,151.52Z"/><path class="cls-1" d="M293,287l5.88.09c4.62,2.66,9.15,5.55,14.66,6.05,2.39.21,2.54,2.11,2.87,3.86C318.28,307,323.9,314.1,333,318.4a14.59,14.59,0,0,1,7.1,6.21c1.39,2.55,2.95,5.4,5.56,6.62,6,2.82,7.81,7.54,7.3,13.66-.76.84-1.41.43-2-.18q-28.62-28.18-57.23-56.38A4.71,4.71,0,0,1,293,287Z"/><path class="cls-11" d="M126.24,123.37c5-1.14,6.41,1.37,5.89,5.82A19.35,19.35,0,0,1,126.24,123.37Z"/><path class="cls-12" d="M376,368.06c4.5-.29,5.27,2.41,4.85,6.06C379,372.32,376,371.38,376,368.06Z"/><path class="cls-13" d="M263.77,259c1.74.42,4.21-1.12,5,1.85.38,1.09.75,2.18-1.1,2.13A11.52,11.52,0,0,1,263.77,259Z"/><path class="cls-14" d="M267.67,262.93c.87-.45.95-1.31,1.1-2.13,1.13,1.17.82,2.62.8,4Z"/><path class="cls-15" d="M157.45,151.52c-.78.13-1.57.21-2,1a3.11,3.11,0,0,1-2-1.9C154.88,150.69,156.34,150.28,157.45,151.52Z"/><path class="cls-9" d="M247.16,162.18c-6.92-1.52-13.92-1.09-20.81-.34a37.89,37.89,0,0,1-14.85-1.29c-11.07-3.2-17.89-11.77-18.87-23.45-.36-4.31-1.07-8.68,0-13,1.59-6.77.27-13.53-.13-20.29a28.39,28.39,0,0,1,31.22,19.13,7.92,7.92,0,0,0,5.74,5.7C243.2,132.91,253,151.07,247.16,162.18Z"/><path class="cls-6" d="M368.21,270.72c-10.74-14.21-25.75-18.84-42.69-18.41-6.28.17-12.44,1-18.81.16-15.64-2.14-22.5-13.85-23.38-27.72-.17-2.58,0-5.19,0-7.78,2.84-2.58,6.27-2.41,9.66-1.88a29.65,29.65,0,0,1,14.47,6.5c2.16,1.79,4.32,2.75,7.08,2.25,2.23,1.65,5,1.08,7.46,1.61,11.3,2.41,18.54,9.3,22.5,19.78,1,2.58,2.22,4.12,4.78,4.74,5.2,1.27,8.85,5.11,13.09,8,.68,1.35,2.07,2.06,3,3.2C366.88,264.17,370.14,266.69,368.21,270.72Z"/><path class="cls-6" d="M432.63,343.92c-11.23-2-22.57-.27-33.84-1C383,342,375.66,330.44,374,318.23c-1.27-9.39.85-18.68.2-28,2.58.74,2.11,3,2.06,4.73-.09,3.17,1,4.22,4.28,3.91,6.71-.63,12.54,2.07,18.09,5.54a11,11,0,0,1,3.7,4.34c2.78,4.15,5.75,8.19,7.12,13.1.49,1.76,1.81,2.48,3.46,3C422.77,327.79,429,334.56,432.63,343.92Z"/><path class="cls-6" d="M158.35,71.66c-9.67-1.69-19.35.16-29-.08-15.27-.39-26-10.49-26.7-25.23,6.3-.53,12.26.69,17.26,4.55,4.17,3.22,8.19,5.86,13.76,4.15,1-.31,2.23.07,3.35.14C146.46,57.64,154.39,62.07,158.35,71.66Z"/><path class="cls-16" d="M402.35,308.73c-7.45-5.68-15.14-10.56-25.24-8.05-1.92.48-1.88-1.13-2-2.45-.31-2.67.82-5.5-.85-8-.4-7-2.91-13.33-6-19.49,0-3.79-2.6-6.51-3.91-9.76-.2-.93.1-1.36,1.1-1.09,6.15,3.12,9.53,8.62,11.94,14.68,1.11,2.81,2.48,4.43,5.41,5.47C396,284.76,403.74,297.89,402.35,308.73Z"/><path class="cls-16" d="M314.58,223.84c-1.81,2.86-3.83,2.37-6,.4-7.2-6.6-15.42-9.71-25.23-7.27-.41-7.44.89-14.95-.95-22.33,8.24,2.75,12.61,9.17,15.28,16.83a5.61,5.61,0,0,0,4,4.11A30.82,30.82,0,0,1,314.58,223.84Z"/><path class="cls-17" d="M365.4,259.87c-.37.36-.74.72-1.1,1.09-.8-.91-3-.94-1.89-3A3.73,3.73,0,0,1,365.4,259.87Z"/><path class="cls-18" d="M265.75,191.56c-2.07.57-3.27-.83-4.6-2-3.93-3.48-8.38-6.13-13.62-6.78-4.08-.51-6-2.21-5.36-6.41,6.78.85,13.21,2.57,18.48,7.29C263.09,185.84,265.11,188.24,265.75,191.56Z"/></g></g></svg>